<?xml version="1.0" encoding="UTF-8"?><svg xmlns="http://www.w3.org/2000/svg" width="900" height="700" viewBox="0 0 900 700"><rect width="900" height="700" fill="white"/><text x="450.00" y="20" font-family="Arial,sans-serif" font-size="15" font-weight="bold" text-anchor="middle" fill="#111111">Convergence Trajectories: HCA vs BA (30 trials, 5000 iterations, deterministic seeds)</text><text x="450.00" y="635.00" font-family="Arial,sans-serif" font-size="12" text-anchor="middle" fill="#222222">Iteration (log scale)</text><text x="15" y="325.00" font-family="Arial,sans-serif" font-size="12" text-anchor="middle" fill="#222222" transform="rotate(-90 15 325.00)">Best cost found (baht)</text><g><rect x="70.00" y="40.00" width="240.00" height="153.33" fill="white" stroke="none"/><line x1="70.00" y1="40.00" x2="70.00" y2="193.33" stroke="#333333" stroke-width="1"/><line x1="66.00" y1="193.33" x2="70.00" y2="193.33" stroke="#333333" stroke-width="1"/><text x="64.00" y="196.33" font-family="Arial,sans-serif" font-size="9" text-anchor="end" fill="#333333">2000</text><line x1="70.00" y1="193.33" x2="310.00" y2="193.33" stroke="#dddddd" stroke-width="0.5"/><line x1="66.00" y1="162.67" x2="70.00" y2="162.67" stroke="#333333" stroke-width="1"/><text x="64.00" y="165.67" font-family="Arial,sans-serif" font-size="9" text-anchor="end" fill="#333333">4000</text><line x1="70.00" y1="162.67" x2="310.00" y2="162.67" stroke="#dddddd" stroke-width="0.5"/><line x1="66.00" y1="132.00" x2="70.00" y2="132.00" stroke="#333333" stroke-width="1"/><text x="64.00" y="135.00" font-family="Arial,sans-serif" font-size="9" text-anchor="end" fill="#333333">6000</text><line x1="70.00" y1="132.00" x2="310.00" y2="132.00" stroke="#dddddd" stroke-width="0.5"/><line x1="66.00" y1="101.33" x2="70.00" y2="101.33" stroke="#333333" stroke-width="1"/><text x="64.00" y="104.33" font-family="Arial,sans-serif" font-size="9" text-anchor="end" fill="#333333">8000</text><line x1="70.00" y1="101.33" x2="310.00" y2="101.33" stroke="#dddddd" stroke-width="0.5"/><line x1="66.00" y1="70.67" x2="70.00" y2="70.67" stroke="#333333" stroke-width="1"/><text x="64.00" y="73.67" font-family="Arial,sans-serif" font-size="9" text-anchor="end" fill="#333333">10000</text><line x1="70.00" y1="70.67" x2="310.00" y2="70.67" stroke="#dddddd" stroke-width="0.5"/><line x1="66.00" y1="40.00" x2="70.00" y2="40.00" stroke="#333333" stroke-width="1"/><text x="64.00" y="43.00" font-family="Arial,sans-serif" font-size="9" text-anchor="end" fill="#333333">12000</text><line x1="70.00" y1="40.00" x2="310.00" y2="40.00" stroke="#dddddd" stroke-width="0.5"/><polygon points="70.00,61.09 70.00,61.09 89.53,61.09 100.96,61.09 109.06,83.73 115.35,86.39 120.49,91.97 124.83,104.95 128.60,109.46 131.91,109.46 134.88,126.65 137.57,135.50 140.02,135.83 142.28,140.03 144.36,140.19 148.13,147.86 149.84,151.65 152.97,153.56 154.41,154.25 157.10,155.87 159.55,156.10 161.81,158.97 164.88,159.17 166.76,160.76 169.37,161.89 171.75,163.21 173.95,163.31 176.63,164.54 179.08,165.05 181.34,165.05 183.93,167.31 186.30,168.48 188.90,170.36 191.28,170.53 193.48,171.03 196.16,172.00 198.62,174.34 200.87,175.16 203.21,175.39 205.83,175.39 208.22,175.56 210.62,175.71 213.01,176.53 215.37,176.53 217.85,177.17 220.27,177.53 222.74,178.22 225.13,178.52 227.54,178.67 229.96,178.67 232.45,178.84 234.82,179.08 237.24,179.08 239.66,179.61 242.15,179.86 244.55,180.02 246.97,180.28 249.40,180.28 251.81,180.28 254.23,180.31 256.65,180.31 259.09,180.31 261.52,180.31 263.94,180.31 266.37,180.31 268.78,180.31 271.21,180.31 273.62,180.31 276.06,180.31 278.49,180.31 280.90,180.31 283.32,180.31 285.76,180.31 288.18,180.31 290.60,180.31 293.02,180.31 295.45,180.31 297.87,180.31 300.30,180.31 302.72,180.31 305.15,180.31 307.57,180.31 309.99,180.31 309.99,180.31 307.57,180.31 305.15,180.31 302.72,180.31 300.30,180.31 297.87,180.31 295.45,180.31 293.02,180.31 290.60,180.31 288.18,180.31 285.76,180.31 283.32,180.31 280.90,180.31 278.49,180.31 276.06,180.31 273.62,180.31 271.21,180.31 268.78,180.31 266.37,180.31 263.94,180.31 261.52,180.31 259.09,180.31 256.65,180.31 254.23,180.31 251.81,180.31 249.40,180.31 246.97,180.31 244.55,180.31 242.15,180.31 239.66,180.31 237.24,180.31 234.82,180.31 232.45,180.31 229.96,180.31 227.54,180.31 225.13,180.31 222.74,180.31 220.27,180.31 217.85,180.31 215.37,180.31 213.01,180.11 210.62,179.99 208.22,179.67 205.83,179.46 203.21,179.46 200.87,179.46 198.62,179.07 196.16,179.07 193.48,178.16 191.28,178.10 188.90,178.10 186.30,177.88 183.93,177.88 181.34,175.50 179.08,175.39 176.63,175.39 173.95,175.39 171.75,175.39 169.37,175.18 166.76,175.13 164.88,174.49 161.81,174.49 159.55,173.58 157.10,172.44 154.41,172.04 152.97,169.43 149.84,169.43 148.13,168.49 144.36,165.12 142.28,164.85 140.02,161.30 137.57,160.69 134.88,159.15 131.91,159.15 128.60,152.55 124.83,152.52 120.49,148.54 115.35,141.91 109.06,135.70 100.96,127.44 89.53,116.95 70.00,97.60 70.00,61.09" fill="#c0392b" fill-opacity="0.18" stroke="none"/><polygon points="70.00,148.87 70.00,148.87 89.53,148.87 100.96,148.87 109.06,149.72 115.35,149.72 120.49,150.00 124.83,152.69 128.60,155.32 131.91,155.32 134.88,161.93 137.57,161.93 140.02,161.93 142.28,164.32 144.36,164.88 148.13,165.39 149.84,165.39 152.97,166.80 154.41,166.80 157.10,170.92 159.55,170.92 161.81,173.72 164.88,174.12 166.76,174.12 169.37,174.99 171.75,174.99 173.95,175.93 176.63,176.46 179.08,176.81 181.34,176.85 183.93,177.17 186.30,178.44 188.90,178.48 191.28,178.58 193.48,179.04 196.16,179.59 198.62,179.62 200.87,179.62 203.21,179.62 205.83,179.69 208.22,179.85 210.62,180.03 213.01,180.04 215.37,180.31 217.85,180.31 220.27,180.31 222.74,180.31 225.13,180.31 227.54,180.31 229.96,180.31 232.45,180.31 234.82,180.31 237.24,180.31 239.66,180.31 242.15,180.31 244.55,180.31 246.97,180.31 249.40,180.31 251.81,180.31 254.23,180.31 256.65,180.31 259.09,180.31 261.52,180.31 263.94,180.31 266.37,180.31 268.78,180.31 271.21,180.31 273.62,180.31 276.06,180.31 278.49,180.31 280.90,180.31 283.32,180.31 285.76,180.31 288.18,180.31 290.60,180.31 293.02,180.31 295.45,180.31 297.87,180.31 300.30,180.31 302.72,180.31 305.15,180.31 307.57,180.31 309.99,180.31 309.99,180.31 307.57,180.31 305.15,180.31 302.72,180.31 300.30,180.31 297.87,180.31 295.45,180.31 293.02,180.31 290.60,180.31 288.18,180.31 285.76,180.31 283.32,180.31 280.90,180.31 278.49,180.31 276.06,180.31 273.62,180.31 271.21,180.31 268.78,180.31 266.37,180.31 263.94,180.31 261.52,180.31 259.09,180.31 256.65,180.31 254.23,180.31 251.81,180.31 249.40,180.31 246.97,180.31 244.55,180.31 242.15,180.31 239.66,180.31 237.24,180.31 234.82,180.31 232.45,180.31 229.96,180.31 227.54,180.31 225.13,180.31 222.74,180.31 220.27,180.31 217.85,180.31 215.37,180.31 213.01,180.31 210.62,180.31 208.22,180.31 205.83,180.31 203.21,180.31 200.87,180.31 198.62,180.31 196.16,180.31 193.48,180.31 191.28,180.31 188.90,180.31 186.30,180.31 183.93,180.31 181.34,180.31 179.08,180.31 176.63,180.31 173.95,180.31 171.75,180.31 169.37,180.31 166.76,180.31 164.88,179.99 161.81,179.99 159.55,179.54 157.10,179.32 154.41,179.32 152.97,179.00 149.84,178.60 148.13,178.13 144.36,177.86 142.28,176.00 140.02,176.00 137.57,176.00 134.88,175.65 131.91,175.34 128.60,173.82 124.83,171.94 120.49,171.94 115.35,171.52 109.06,171.02 100.96,167.64 89.53,165.41 70.00,164.72 70.00,148.87" fill="#2874a6" fill-opacity="0.18" stroke="none"/><polyline points="70.00,61.09 70.00,61.09 89.53,92.48 100.96,103.28 109.06,120.60 115.35,123.98 120.49,132.01 124.83,136.76 128.60,141.75 131.91,145.54 134.88,147.88 137.57,148.91 140.02,151.50 142.28,153.82 144.36,156.11 148.13,158.97 149.84,162.72 152.97,163.21 154.41,163.21 157.10,164.65 159.55,166.23 161.81,166.57 164.88,167.21 166.76,167.62 169.37,167.62 171.75,168.06 173.95,169.51 176.63,171.34 179.08,172.11 181.34,172.51 183.93,172.84 186.30,174.12 188.90,174.21 191.28,174.70 193.48,175.00 196.16,175.67 198.62,176.67 200.87,176.84 203.21,177.15 205.83,177.25 208.22,177.70 210.62,178.33 213.01,178.45 215.37,178.80 217.85,179.16 220.27,179.27 222.74,179.40 225.13,179.74 227.54,179.95 229.96,179.97 232.45,180.07 234.82,180.31 237.24,180.31 239.66,180.31 242.15,180.31 244.55,180.31 246.97,180.31 249.40,180.31 251.81,180.31 254.23,180.31 256.65,180.31 259.09,180.31 261.52,180.31 263.94,180.31 266.37,180.31 268.78,180.31 271.21,180.31 273.62,180.31 276.06,180.31 278.49,180.31 280.90,180.31 283.32,180.31 285.76,180.31 288.18,180.31 290.60,180.31 293.02,180.31 295.45,180.31 297.87,180.31 300.30,180.31 302.72,180.31 305.15,180.31 307.57,180.31 309.99,180.31" fill="none" stroke="#c0392b" stroke-width="1.8"/><polyline points="70.00,148.87 70.00,149.35 89.53,155.28 100.96,157.59 109.06,158.37 115.35,159.95 120.49,160.59 124.83,163.14 128.60,165.13 131.91,165.36 134.88,165.88 137.57,167.44 140.02,169.47 142.28,169.60 144.36,171.36 148.13,172.05 149.84,173.19 152.97,173.19 154.41,173.84 157.10,175.88 159.55,177.36 161.81,177.36 164.88,177.67 166.76,177.69 169.37,178.24 171.75,178.94 173.95,179.06 176.63,179.19 179.08,179.51 181.34,179.58 183.93,179.66 186.30,179.78 188.90,180.08 191.28,180.31 193.48,180.31 196.16,180.31 198.62,180.31 200.87,180.31 203.21,180.31 205.83,180.31 208.22,180.31 210.62,180.31 213.01,180.31 215.37,180.31 217.85,180.31 220.27,180.31 222.74,180.31 225.13,180.31 227.54,180.31 229.96,180.31 232.45,180.31 234.82,180.31 237.24,180.31 239.66,180.31 242.15,180.31 244.55,180.31 246.97,180.31 249.40,180.31 251.81,180.31 254.23,180.31 256.65,180.31 259.09,180.31 261.52,180.31 263.94,180.31 266.37,180.31 268.78,180.31 271.21,180.31 273.62,180.31 276.06,180.31 278.49,180.31 280.90,180.31 283.32,180.31 285.76,180.31 288.18,180.31 290.60,180.31 293.02,180.31 295.45,180.31 297.87,180.31 300.30,180.31 302.72,180.31 305.15,180.31 307.57,180.31 309.99,180.31" fill="none" stroke="#2874a6" stroke-width="1.8"/><line x1="70.00" y1="193.33" x2="310.00" y2="193.33" stroke="#333333" stroke-width="1"/><line x1="70.00" y1="193.33" x2="70.00" y2="197.33" stroke="#333333" stroke-width="1"/><text x="70.00" y="209.33" font-family="Arial,sans-serif" font-size="10" text-anchor="middle" fill="#333333">1</text><line x1="134.88" y1="193.33" x2="134.88" y2="197.33" stroke="#333333" stroke-width="1"/><text x="134.88" y="209.33" font-family="Arial,sans-serif" font-size="10" text-anchor="middle" fill="#333333">10</text><line x1="199.77" y1="193.33" x2="199.77" y2="197.33" stroke="#333333" stroke-width="1"/><text x="199.77" y="209.33" font-family="Arial,sans-serif" font-size="10" text-anchor="middle" fill="#333333">100</text><line x1="264.65" y1="193.33" x2="264.65" y2="197.33" stroke="#333333" stroke-width="1"/><text x="264.65" y="209.33" font-family="Arial,sans-serif" font-size="10" text-anchor="middle" fill="#333333">1000</text><line x1="310.00" y1="193.33" x2="310.00" y2="197.33" stroke="#333333" stroke-width="1"/><text x="310.00" y="209.33" font-family="Arial,sans-serif" font-size="10" text-anchor="middle" fill="#333333">5000</text><text x="190.00" y="32.00" font-family="Arial,sans-serif" font-size="12" font-weight="bold" text-anchor="middle" fill="#222222">H=3, fc=240</text></g><g><rect x="355.00" y="40.00" width="240.00" height="153.33" fill="white" stroke="none"/><line x1="355.00" y1="40.00" x2="355.00" y2="193.33" stroke="#333333" stroke-width="1"/><line x1="351.00" y1="193.33" x2="355.00" y2="193.33" stroke="#333333" stroke-width="1"/><text x="349.00" y="196.33" font-family="Arial,sans-serif" font-size="9" text-anchor="end" fill="#333333">2000</text><line x1="355.00" y1="193.33" x2="595.00" y2="193.33" stroke="#dddddd" stroke-width="0.5"/><line x1="351.00" y1="162.67" x2="355.00" y2="162.67" stroke="#333333" stroke-width="1"/><text x="349.00" y="165.67" font-family="Arial,sans-serif" font-size="9" text-anchor="end" fill="#333333">4000</text><line x1="355.00" y1="162.67" x2="595.00" y2="162.67" stroke="#dddddd" stroke-width="0.5"/><line x1="351.00" y1="132.00" x2="355.00" y2="132.00" stroke="#333333" stroke-width="1"/><text x="349.00" y="135.00" font-family="Arial,sans-serif" font-size="9" text-anchor="end" fill="#333333">6000</text><line x1="355.00" y1="132.00" x2="595.00" y2="132.00" stroke="#dddddd" stroke-width="0.5"/><line x1="351.00" y1="101.33" x2="355.00" y2="101.33" stroke="#333333" stroke-width="1"/><text x="349.00" y="104.33" font-family="Arial,sans-serif" font-size="9" text-anchor="end" fill="#333333">8000</text><line x1="355.00" y1="101.33" x2="595.00" y2="101.33" stroke="#dddddd" stroke-width="0.5"/><line x1="351.00" y1="70.67" x2="355.00" y2="70.67" stroke="#333333" stroke-width="1"/><text x="349.00" y="73.67" font-family="Arial,sans-serif" font-size="9" text-anchor="end" fill="#333333">10000</text><line x1="355.00" y1="70.67" x2="595.00" y2="70.67" stroke="#dddddd" stroke-width="0.5"/><line x1="351.00" y1="40.00" x2="355.00" y2="40.00" stroke="#333333" stroke-width="1"/><text x="349.00" y="43.00" font-family="Arial,sans-serif" font-size="9" text-anchor="end" fill="#333333">12000</text><line x1="355.00" y1="40.00" x2="595.00" y2="40.00" stroke="#dddddd" stroke-width="0.5"/><polygon points="355.00,58.50 355.00,58.50 374.53,58.50 385.96,58.50 394.06,81.48 400.35,83.95 405.49,89.72 409.83,102.84 413.60,107.34 416.91,107.34 419.88,124.18 422.57,133.33 425.02,133.77 427.28,138.04 429.36,138.15 433.13,145.76 434.84,149.43 437.97,151.47 439.41,152.18 442.10,153.85 444.55,154.01 446.81,156.85 449.88,157.05 451.76,158.85 454.37,159.94 456.75,161.27 458.95,161.32 461.63,162.59 464.08,163.11 466.34,163.11 468.93,166.02 471.30,167.40 473.90,168.90 476.28,169.03 478.48,169.40 481.16,170.38 483.62,171.24 485.87,173.00 488.21,173.78 490.83,173.78 493.22,174.13 495.62,174.19 498.01,175.09 500.37,175.11 502.85,175.72 505.27,176.04 507.74,176.80 510.13,177.09 512.54,177.25 514.96,177.25 517.45,177.42 519.82,177.66 522.24,177.66 524.66,178.18 527.15,178.43 529.55,178.59 531.97,178.86 534.40,178.86 536.81,178.86 539.23,178.88 541.65,178.88 544.09,178.88 546.52,178.88 548.94,178.88 551.37,178.88 553.78,178.88 556.21,178.88 558.62,178.88 561.06,178.88 563.49,178.88 565.90,178.88 568.32,178.88 570.76,178.88 573.18,178.88 575.60,178.88 578.02,178.88 580.45,178.88 582.87,178.88 585.30,178.88 587.72,178.88 590.15,178.88 592.57,178.88 594.99,178.88 594.99,178.88 592.57,178.88 590.15,178.88 587.72,178.88 585.30,178.88 582.87,178.88 580.45,178.88 578.02,178.88 575.60,178.88 573.18,178.88 570.76,178.88 568.32,178.88 565.90,178.88 563.49,178.88 561.06,178.88 558.62,178.88 556.21,178.88 553.78,178.88 551.37,178.88 548.94,178.88 546.52,178.88 544.09,178.88 541.65,178.88 539.23,178.88 536.81,178.88 534.40,178.88 531.97,178.88 529.55,178.88 527.15,178.88 524.66,178.88 522.24,178.88 519.82,178.88 517.45,178.88 514.96,178.88 512.54,178.88 510.13,178.88 507.74,178.88 505.27,178.88 502.85,178.88 500.37,178.88 498.01,178.88 495.62,178.68 493.22,178.68 490.83,178.24 488.21,178.24 485.87,178.24 483.62,178.22 481.16,177.64 478.48,176.73 476.28,176.67 473.90,176.67 471.30,176.36 468.93,176.36 466.34,173.94 464.08,173.19 461.63,173.19 458.95,173.19 456.75,173.01 454.37,172.98 451.76,172.98 449.88,172.98 446.81,172.98 444.55,171.98 442.10,170.49 439.41,169.29 437.97,166.67 434.84,166.67 433.13,164.53 429.36,163.25 427.28,162.90 425.02,159.34 422.57,158.84 419.88,157.35 416.91,157.35 413.60,150.55 409.83,150.51 405.49,146.40 400.35,139.91 394.06,133.72 385.96,125.15 374.53,114.77 355.00,95.03 355.00,58.50" fill="#c0392b" fill-opacity="0.18" stroke="none"/><polygon points="355.00,147.16 355.00,147.16 374.53,147.16 385.96,147.16 394.06,148.27 400.35,148.27 405.49,148.40 409.83,151.08 413.60,153.82 416.91,153.82 419.88,160.05 422.57,160.05 425.02,160.05 427.28,162.52 429.36,163.06 433.13,163.73 434.84,163.73 437.97,165.19 439.41,165.19 442.10,169.47 444.55,169.47 446.81,172.30 449.88,172.69 451.76,172.69 454.37,173.56 456.75,173.56 458.95,174.50 461.63,175.03 464.08,175.29 466.34,175.42 468.93,175.74 471.30,177.02 473.90,177.05 476.28,177.15 478.48,177.61 481.16,178.16 483.62,178.20 485.87,178.20 488.21,178.20 490.83,178.26 493.22,178.43 495.62,178.60 498.01,178.61 500.37,178.88 502.85,178.88 505.27,178.88 507.74,178.88 510.13,178.88 512.54,178.88 514.96,178.88 517.45,178.88 519.82,178.88 522.24,178.88 524.66,178.88 527.15,178.88 529.55,178.88 531.97,178.88 534.40,178.88 536.81,178.88 539.23,178.88 541.65,178.88 544.09,178.88 546.52,178.88 548.94,178.88 551.37,178.88 553.78,178.88 556.21,178.88 558.62,178.88 561.06,178.88 563.49,178.88 565.90,178.88 568.32,178.88 570.76,178.88 573.18,178.88 575.60,178.88 578.02,178.88 580.45,178.88 582.87,178.88 585.30,178.88 587.72,178.88 590.15,178.88 592.57,178.88 594.99,178.88 594.99,178.88 592.57,178.88 590.15,178.88 587.72,178.88 585.30,178.88 582.87,178.88 580.45,178.88 578.02,178.88 575.60,178.88 573.18,178.88 570.76,178.88 568.32,178.88 565.90,178.88 563.49,178.88 561.06,178.88 558.62,178.88 556.21,178.88 553.78,178.88 551.37,178.88 548.94,178.88 546.52,178.88 544.09,178.88 541.65,178.88 539.23,178.88 536.81,178.88 534.40,178.88 531.97,178.88 529.55,178.88 527.15,178.88 524.66,178.88 522.24,178.88 519.82,178.88 517.45,178.88 514.96,178.88 512.54,178.88 510.13,178.88 507.74,178.88 505.27,178.88 502.85,178.88 500.37,178.88 498.01,178.88 495.62,178.88 493.22,178.88 490.83,178.88 488.21,178.88 485.87,178.88 483.62,178.88 481.16,178.88 478.48,178.88 476.28,178.88 473.90,178.88 471.30,178.88 468.93,178.88 466.34,178.88 464.08,178.88 461.63,178.88 458.95,178.88 456.75,178.88 454.37,178.88 451.76,178.88 449.88,178.56 446.81,178.56 444.55,178.12 442.10,177.89 439.41,177.89 437.97,177.58 434.84,177.17 433.13,176.70 429.36,176.43 427.28,175.86 425.02,175.86 422.57,175.86 419.88,174.94 416.91,174.12 413.60,174.12 409.83,170.51 405.49,170.51 400.35,170.09 394.06,169.59 385.96,166.13 374.53,163.78 355.00,163.07 355.00,147.16" fill="#2874a6" fill-opacity="0.18" stroke="none"/><polyline points="355.00,58.50 355.00,58.50 374.53,90.00 385.96,101.02 394.06,118.27 400.35,121.82 405.49,129.84 409.83,134.33 413.60,138.81 416.91,143.18 419.88,145.75 422.57,146.82 425.02,149.35 427.28,151.81 429.36,154.09 433.13,157.14 434.84,161.09 437.97,161.45 439.41,161.45 442.10,162.80 444.55,164.43 446.81,164.82 449.88,165.48 451.76,165.81 454.37,165.81 456.75,166.35 458.95,167.77 461.63,169.77 464.08,170.17 466.34,170.44 468.93,170.67 471.30,171.91 473.90,172.67 476.28,173.23 478.48,173.52 481.16,174.17 483.62,175.16 485.87,175.37 488.21,175.65 490.83,175.80 493.22,176.19 495.62,176.90 498.01,177.02 500.37,177.38 502.85,177.73 505.27,177.84 507.74,177.97 510.13,178.48 512.54,178.54 514.96,178.59 517.45,178.77 519.82,178.88 522.24,178.88 524.66,178.88 527.15,178.88 529.55,178.88 531.97,178.88 534.40,178.88 536.81,178.88 539.23,178.88 541.65,178.88 544.09,178.88 546.52,178.88 548.94,178.88 551.37,178.88 553.78,178.88 556.21,178.88 558.62,178.88 561.06,178.88 563.49,178.88 565.90,178.88 568.32,178.88 570.76,178.88 573.18,178.88 575.60,178.88 578.02,178.88 580.45,178.88 582.87,178.88 585.30,178.88 587.72,178.88 590.15,178.88 592.57,178.88 594.99,178.88" fill="none" stroke="#c0392b" stroke-width="1.8"/><polyline points="355.00,147.16 355.00,147.64 374.53,153.57 385.96,155.89 394.06,156.80 400.35,158.03 405.49,158.91 409.83,161.47 413.60,163.61 416.91,163.72 419.88,164.21 422.57,165.77 425.02,167.95 427.28,168.18 429.36,169.93 433.13,170.55 434.84,171.72 437.97,171.72 439.41,172.42 442.10,174.63 444.55,176.10 446.81,176.30 449.88,176.51 451.76,176.81 454.37,176.81 456.75,177.51 458.95,177.63 461.63,177.76 464.08,178.09 466.34,178.15 468.93,178.24 471.30,178.35 473.90,178.77 476.28,178.88 478.48,178.88 481.16,178.88 483.62,178.88 485.87,178.88 488.21,178.88 490.83,178.88 493.22,178.88 495.62,178.88 498.01,178.88 500.37,178.88 502.85,178.88 505.27,178.88 507.74,178.88 510.13,178.88 512.54,178.88 514.96,178.88 517.45,178.88 519.82,178.88 522.24,178.88 524.66,178.88 527.15,178.88 529.55,178.88 531.97,178.88 534.40,178.88 536.81,178.88 539.23,178.88 541.65,178.88 544.09,178.88 546.52,178.88 548.94,178.88 551.37,178.88 553.78,178.88 556.21,178.88 558.62,178.88 561.06,178.88 563.49,178.88 565.90,178.88 568.32,178.88 570.76,178.88 573.18,178.88 575.60,178.88 578.02,178.88 580.45,178.88 582.87,178.88 585.30,178.88 587.72,178.88 590.15,178.88 592.57,178.88 594.99,178.88" fill="none" stroke="#2874a6" stroke-width="1.8"/><line x1="355.00" y1="193.33" x2="595.00" y2="193.33" stroke="#333333" stroke-width="1"/><line x1="355.00" y1="193.33" x2="355.00" y2="197.33" stroke="#333333" stroke-width="1"/><text x="355.00" y="209.33" font-family="Arial,sans-serif" font-size="10" text-anchor="middle" fill="#333333">1</text><line x1="419.88" y1="193.33" x2="419.88" y2="197.33" stroke="#333333" stroke-width="1"/><text x="419.88" y="209.33" font-family="Arial,sans-serif" font-size="10" text-anchor="middle" fill="#333333">10</text><line x1="484.77" y1="193.33" x2="484.77" y2="197.33" stroke="#333333" stroke-width="1"/><text x="484.77" y="209.33" font-family="Arial,sans-serif" font-size="10" text-anchor="middle" fill="#333333">100</text><line x1="549.65" y1="193.33" x2="549.65" y2="197.33" stroke="#333333" stroke-width="1"/><text x="549.65" y="209.33" font-family="Arial,sans-serif" font-size="10" text-anchor="middle" fill="#333333">1000</text><line x1="595.00" y1="193.33" x2="595.00" y2="197.33" stroke="#333333" stroke-width="1"/><text x="595.00" y="209.33" font-family="Arial,sans-serif" font-size="10" text-anchor="middle" fill="#333333">5000</text><text x="475.00" y="32.00" font-family="Arial,sans-serif" font-size="12" font-weight="bold" text-anchor="middle" fill="#222222">H=3, fc=280</text></g><g><rect x="640.00" y="40.00" width="240.00" height="153.33" fill="white" stroke="none"/><line x1="640.00" y1="40.00" x2="640.00" y2="193.33" stroke="#333333" stroke-width="1"/><line x1="636.00" y1="193.33" x2="640.00" y2="193.33" stroke="#333333" stroke-width="1"/><text x="634.00" y="196.33" font-family="Arial,sans-serif" font-size="9" text-anchor="end" fill="#333333">2000</text><line x1="640.00" y1="193.33" x2="880.00" y2="193.33" stroke="#dddddd" stroke-width="0.5"/><line x1="636.00" y1="162.67" x2="640.00" y2="162.67" stroke="#333333" stroke-width="1"/><text x="634.00" y="165.67" font-family="Arial,sans-serif" font-size="9" text-anchor="end" fill="#333333">4000</text><line x1="640.00" y1="162.67" x2="880.00" y2="162.67" stroke="#dddddd" stroke-width="0.5"/><line x1="636.00" y1="132.00" x2="640.00" y2="132.00" stroke="#333333" stroke-width="1"/><text x="634.00" y="135.00" font-family="Arial,sans-serif" font-size="9" text-anchor="end" fill="#333333">6000</text><line x1="640.00" y1="132.00" x2="880.00" y2="132.00" stroke="#dddddd" stroke-width="0.5"/><line x1="636.00" y1="101.33" x2="640.00" y2="101.33" stroke="#333333" stroke-width="1"/><text x="634.00" y="104.33" font-family="Arial,sans-serif" font-size="9" text-anchor="end" fill="#333333">8000</text><line x1="640.00" y1="101.33" x2="880.00" y2="101.33" stroke="#dddddd" stroke-width="0.5"/><line x1="636.00" y1="70.67" x2="640.00" y2="70.67" stroke="#333333" stroke-width="1"/><text x="634.00" y="73.67" font-family="Arial,sans-serif" font-size="9" text-anchor="end" fill="#333333">10000</text><line x1="640.00" y1="70.67" x2="880.00" y2="70.67" stroke="#dddddd" stroke-width="0.5"/><line x1="636.00" y1="40.00" x2="640.00" y2="40.00" stroke="#333333" stroke-width="1"/><text x="634.00" y="43.00" font-family="Arial,sans-serif" font-size="9" text-anchor="end" fill="#333333">12000</text><line x1="640.00" y1="40.00" x2="880.00" y2="40.00" stroke="#dddddd" stroke-width="0.5"/><polygon points="640.00,55.95 640.00,55.95 659.53,55.95 670.96,55.95 679.06,79.26 685.35,81.53 690.49,87.50 694.83,100.74 698.60,105.24 701.91,105.24 704.88,121.73 707.57,131.18 710.02,131.73 712.28,136.06 714.36,136.15 718.13,143.68 719.84,147.23 722.97,149.39 724.41,150.13 727.10,151.87 729.55,151.95 731.81,154.75 734.88,154.96 736.76,156.96 739.37,158.05 741.75,159.27 743.95,159.35 746.63,160.67 749.08,161.19 751.34,161.19 753.93,164.72 756.30,167.26 758.90,167.62 761.28,167.84 763.48,168.76 766.16,169.05 768.62,171.05 770.87,171.58 773.21,172.19 775.83,172.19 778.22,172.64 780.62,172.76 783.01,173.68 785.37,173.68 787.85,174.31 790.27,174.71 792.74,175.52 795.13,175.77 797.54,175.88 799.96,175.99 802.45,176.09 804.82,176.56 807.24,176.56 809.66,177.02 812.15,177.08 814.55,177.18 816.97,177.44 819.40,177.44 821.81,177.44 824.23,177.47 826.65,177.47 829.09,177.47 831.52,177.47 833.94,177.47 836.37,177.47 838.78,177.47 841.21,177.47 843.62,177.47 846.06,177.47 848.49,177.47 850.90,177.47 853.32,177.47 855.76,177.47 858.18,177.47 860.60,177.47 863.02,177.47 865.45,177.47 867.87,177.47 870.30,177.47 872.72,177.47 875.15,177.47 877.57,177.47 879.99,177.47 879.99,177.47 877.57,177.47 875.15,177.47 872.72,177.47 870.30,177.47 867.87,177.47 865.45,177.47 863.02,177.47 860.60,177.47 858.18,177.47 855.76,177.47 853.32,177.47 850.90,177.47 848.49,177.47 846.06,177.47 843.62,177.47 841.21,177.47 838.78,177.47 836.37,177.47 833.94,177.47 831.52,177.47 829.09,177.47 826.65,177.47 824.23,177.47 821.81,177.47 819.40,177.47 816.97,177.47 814.55,177.47 812.15,177.47 809.66,177.47 807.24,177.47 804.82,177.47 802.45,177.47 799.96,177.47 797.54,177.47 795.13,177.47 792.74,177.47 790.27,177.47 787.85,177.47 785.37,177.47 783.01,177.47 780.62,177.27 778.22,177.27 775.83,176.82 773.21,176.62 770.87,176.62 768.62,176.40 766.16,176.35 763.48,175.32 761.28,175.26 758.90,175.26 756.30,174.86 753.93,174.86 751.34,172.53 749.08,171.77 746.63,171.70 743.95,171.70 741.75,171.51 739.37,171.49 736.76,171.49 734.88,171.49 731.81,171.49 729.55,170.39 727.10,168.80 724.41,167.66 722.97,164.94 719.84,164.81 718.13,162.60 714.36,161.45 712.28,161.00 710.02,157.40 707.57,157.00 704.88,155.56 701.91,155.56 698.60,148.57 694.83,148.53 690.49,144.29 685.35,137.94 679.06,131.76 670.96,122.89 659.53,112.62 640.00,92.48 640.00,55.95" fill="#c0392b" fill-opacity="0.18" stroke="none"/><polygon points="640.00,145.47 640.00,145.47 659.53,145.47 670.96,145.47 679.06,146.83 685.35,146.83 690.49,146.96 694.83,149.48 698.60,152.34 701.91,152.34 704.88,158.20 707.57,158.20 710.02,158.20 712.28,160.76 714.36,161.28 718.13,162.09 719.84,162.09 722.97,163.60 724.41,163.60 727.10,168.04 729.55,168.04 731.81,170.89 734.88,171.28 736.76,171.28 739.37,172.15 741.75,172.15 743.95,173.09 746.63,173.62 749.08,173.80 751.34,173.99 753.93,174.33 756.30,175.60 758.90,175.64 761.28,175.74 763.48,176.20 766.16,176.46 768.62,176.75 770.87,176.78 773.21,176.78 775.83,176.85 778.22,177.02 780.62,177.19 783.01,177.20 785.37,177.47 787.85,177.47 790.27,177.47 792.74,177.47 795.13,177.47 797.54,177.47 799.96,177.47 802.45,177.47 804.82,177.47 807.24,177.47 809.66,177.47 812.15,177.47 814.55,177.47 816.97,177.47 819.40,177.47 821.81,177.47 824.23,177.47 826.65,177.47 829.09,177.47 831.52,177.47 833.94,177.47 836.37,177.47 838.78,177.47 841.21,177.47 843.62,177.47 846.06,177.47 848.49,177.47 850.90,177.47 853.32,177.47 855.76,177.47 858.18,177.47 860.60,177.47 863.02,177.47 865.45,177.47 867.87,177.47 870.30,177.47 872.72,177.47 875.15,177.47 877.57,177.47 879.99,177.47 879.99,177.47 877.57,177.47 875.15,177.47 872.72,177.47 870.30,177.47 867.87,177.47 865.45,177.47 863.02,177.47 860.60,177.47 858.18,177.47 855.76,177.47 853.32,177.47 850.90,177.47 848.49,177.47 846.06,177.47 843.62,177.47 841.21,177.47 838.78,177.47 836.37,177.47 833.94,177.47 831.52,177.47 829.09,177.47 826.65,177.47 824.23,177.47 821.81,177.47 819.40,177.47 816.97,177.47 814.55,177.47 812.15,177.47 809.66,177.47 807.24,177.47 804.82,177.47 802.45,177.47 799.96,177.47 797.54,177.47 795.13,177.47 792.74,177.47 790.27,177.47 787.85,177.47 785.37,177.47 783.01,177.47 780.62,177.47 778.22,177.47 775.83,177.47 773.21,177.47 770.87,177.47 768.62,177.47 766.16,177.47 763.48,177.47 761.28,177.47 758.90,177.47 756.30,177.47 753.93,177.47 751.34,177.47 749.08,177.47 746.63,177.47 743.95,177.47 741.75,177.47 739.37,177.47 736.76,177.47 734.88,177.15 731.81,177.15 729.55,176.70 727.10,176.48 724.41,176.48 722.97,176.17 719.84,175.76 718.13,175.29 714.36,175.02 712.28,174.44 710.02,174.44 707.57,174.44 704.88,173.44 701.91,172.70 698.60,172.70 694.83,169.08 690.49,169.08 685.35,168.68 679.06,168.18 670.96,164.63 659.53,162.17 640.00,161.43 640.00,145.47" fill="#2874a6" fill-opacity="0.18" stroke="none"/><polyline points="640.00,55.95 640.00,55.95 659.53,87.55 670.96,98.54 679.06,115.96 685.35,119.74 690.49,127.57 694.83,132.25 698.60,136.71 701.91,140.84 704.88,143.65 707.57,144.76 710.02,147.23 712.28,149.80 714.36,151.97 718.13,155.40 719.84,159.44 722.97,159.67 724.41,159.67 727.10,160.98 729.55,162.66 731.81,163.13 734.88,163.76 736.76,164.03 739.37,164.03 741.75,165.67 743.95,166.79 746.63,168.61 749.08,168.80 751.34,169.24 753.93,169.60 756.30,170.55 758.90,171.43 761.28,172.06 763.48,172.30 766.16,172.69 768.62,173.87 770.87,173.95 773.21,174.23 775.83,174.39 778.22,174.78 780.62,175.49 783.01,175.72 785.37,176.16 787.85,176.35 790.27,176.43 792.74,176.53 795.13,177.08 797.54,177.34 799.96,177.47 802.45,177.47 804.82,177.47 807.24,177.47 809.66,177.47 812.15,177.47 814.55,177.47 816.97,177.47 819.40,177.47 821.81,177.47 824.23,177.47 826.65,177.47 829.09,177.47 831.52,177.47 833.94,177.47 836.37,177.47 838.78,177.47 841.21,177.47 843.62,177.47 846.06,177.47 848.49,177.47 850.90,177.47 853.32,177.47 855.76,177.47 858.18,177.47 860.60,177.47 863.02,177.47 865.45,177.47 867.87,177.47 870.30,177.47 872.72,177.47 875.15,177.47 877.57,177.47 879.99,177.47" fill="none" stroke="#c0392b" stroke-width="1.8"/><polyline points="640.00,145.47 640.00,145.95 659.53,151.83 670.96,154.19 679.06,155.26 685.35,156.36 690.49,157.23 694.83,159.87 698.60,162.10 701.91,162.11 704.88,163.11 707.57,164.15 710.02,166.77 712.28,167.06 714.36,168.52 718.13,169.09 719.84,170.28 722.97,170.31 724.41,171.01 727.10,173.17 729.55,174.69 731.81,174.89 734.88,175.09 736.76,175.67 739.37,175.67 741.75,176.10 743.95,176.14 746.63,176.30 749.08,176.56 751.34,176.67 753.93,176.74 756.30,176.82 758.90,177.23 761.28,177.47 763.48,177.47 766.16,177.47 768.62,177.47 770.87,177.47 773.21,177.47 775.83,177.47 778.22,177.47 780.62,177.47 783.01,177.47 785.37,177.47 787.85,177.47 790.27,177.47 792.74,177.47 795.13,177.47 797.54,177.47 799.96,177.47 802.45,177.47 804.82,177.47 807.24,177.47 809.66,177.47 812.15,177.47 814.55,177.47 816.97,177.47 819.40,177.47 821.81,177.47 824.23,177.47 826.65,177.47 829.09,177.47 831.52,177.47 833.94,177.47 836.37,177.47 838.78,177.47 841.21,177.47 843.62,177.47 846.06,177.47 848.49,177.47 850.90,177.47 853.32,177.47 855.76,177.47 858.18,177.47 860.60,177.47 863.02,177.47 865.45,177.47 867.87,177.47 870.30,177.47 872.72,177.47 875.15,177.47 877.57,177.47 879.99,177.47" fill="none" stroke="#2874a6" stroke-width="1.8"/><line x1="640.00" y1="193.33" x2="880.00" y2="193.33" stroke="#333333" stroke-width="1"/><line x1="640.00" y1="193.33" x2="640.00" y2="197.33" stroke="#333333" stroke-width="1"/><text x="640.00" y="209.33" font-family="Arial,sans-serif" font-size="10" text-anchor="middle" fill="#333333">1</text><line x1="704.88" y1="193.33" x2="704.88" y2="197.33" stroke="#333333" stroke-width="1"/><text x="704.88" y="209.33" font-family="Arial,sans-serif" font-size="10" text-anchor="middle" fill="#333333">10</text><line x1="769.77" y1="193.33" x2="769.77" y2="197.33" stroke="#333333" stroke-width="1"/><text x="769.77" y="209.33" font-family="Arial,sans-serif" font-size="10" text-anchor="middle" fill="#333333">100</text><line x1="834.65" y1="193.33" x2="834.65" y2="197.33" stroke="#333333" stroke-width="1"/><text x="834.65" y="209.33" font-family="Arial,sans-serif" font-size="10" text-anchor="middle" fill="#333333">1000</text><line x1="880.00" y1="193.33" x2="880.00" y2="197.33" stroke="#333333" stroke-width="1"/><text x="880.00" y="209.33" font-family="Arial,sans-serif" font-size="10" text-anchor="middle" fill="#333333">5000</text><text x="760.00" y="32.00" font-family="Arial,sans-serif" font-size="12" font-weight="bold" text-anchor="middle" fill="#222222">H=3, fc=320</text></g><g><rect x="70.00" y="248.33" width="240.00" height="153.33" fill="white" stroke="none"/><line x1="70.00" y1="248.33" x2="70.00" y2="401.67" stroke="#333333" stroke-width="1"/><line x1="66.00" y1="401.67" x2="70.00" y2="401.67" stroke="#333333" stroke-width="1"/><text x="64.00" y="404.67" font-family="Arial,sans-serif" font-size="9" text-anchor="end" fill="#333333">0</text><line x1="70.00" y1="401.67" x2="310.00" y2="401.67" stroke="#dddddd" stroke-width="0.5"/><line x1="66.00" y1="363.33" x2="70.00" y2="363.33" stroke="#333333" stroke-width="1"/><text x="64.00" y="366.33" font-family="Arial,sans-serif" font-size="9" text-anchor="end" fill="#333333">5000</text><line x1="70.00" y1="363.33" x2="310.00" y2="363.33" stroke="#dddddd" stroke-width="0.5"/><line x1="66.00" y1="325.00" x2="70.00" y2="325.00" stroke="#333333" stroke-width="1"/><text x="64.00" y="328.00" font-family="Arial,sans-serif" font-size="9" text-anchor="end" fill="#333333">10000</text><line x1="70.00" y1="325.00" x2="310.00" y2="325.00" stroke="#dddddd" stroke-width="0.5"/><line x1="66.00" y1="286.67" x2="70.00" y2="286.67" stroke="#333333" stroke-width="1"/><text x="64.00" y="289.67" font-family="Arial,sans-serif" font-size="9" text-anchor="end" fill="#333333">15000</text><line x1="70.00" y1="286.67" x2="310.00" y2="286.67" stroke="#dddddd" stroke-width="0.5"/><line x1="66.00" y1="248.33" x2="70.00" y2="248.33" stroke="#333333" stroke-width="1"/><text x="64.00" y="251.33" font-family="Arial,sans-serif" font-size="9" text-anchor="end" fill="#333333">20000</text><line x1="70.00" y1="248.33" x2="310.00" y2="248.33" stroke="#dddddd" stroke-width="0.5"/><polygon points="70.00,286.03 70.00,286.03 89.53,286.03 100.96,286.03 109.06,299.57 115.35,299.99 120.49,306.00 124.83,311.13 128.60,314.82 131.91,315.11 134.88,315.25 137.57,321.13 140.02,328.29 142.28,328.29 144.36,332.69 148.13,334.53 149.84,335.01 152.97,335.21 154.41,342.71 157.10,344.92 159.55,344.92 161.81,346.77 164.88,346.77 166.76,347.57 169.37,349.61 171.75,349.61 173.95,349.90 176.63,352.69 179.08,352.69 181.34,352.69 183.93,353.00 186.30,354.48 188.90,354.62 191.28,355.57 193.48,356.10 196.16,357.22 198.62,358.39 200.87,358.39 203.21,358.39 205.83,358.69 208.22,360.22 210.62,360.22 213.01,362.91 215.37,363.53 217.85,364.59 220.27,366.31 222.74,366.38 225.13,366.90 227.54,367.63 229.96,367.84 232.45,368.17 234.82,368.17 237.24,368.30 239.66,368.30 242.15,368.50 244.55,369.14 246.97,369.20 249.40,369.34 251.81,369.41 254.23,369.41 256.65,369.41 259.09,369.54 261.52,369.81 263.94,370.01 266.37,370.13 268.78,370.13 271.21,370.22 273.62,370.22 276.06,370.34 278.49,370.38 280.90,370.42 283.32,370.54 285.76,370.65 288.18,370.65 290.60,370.65 293.02,370.65 295.45,370.65 297.87,370.77 300.30,370.78 302.72,370.86 305.15,371.08 307.57,371.08 309.99,371.10 309.99,371.19 307.57,371.19 305.15,371.19 302.72,371.19 300.30,371.19 297.87,371.19 295.45,371.19 293.02,371.19 290.60,371.19 288.18,371.19 285.76,371.19 283.32,371.19 280.90,371.19 278.49,371.19 276.06,371.19 273.62,371.19 271.21,371.19 268.78,371.19 266.37,371.19 263.94,371.19 261.52,371.19 259.09,371.19 256.65,371.19 254.23,371.19 251.81,371.10 249.40,370.80 246.97,370.80 244.55,370.66 242.15,370.66 239.66,370.66 237.24,370.59 234.82,370.59 232.45,370.54 229.96,370.52 227.54,370.51 225.13,370.14 222.74,370.11 220.27,370.03 217.85,370.03 215.37,369.84 213.01,369.63 210.62,369.14 208.22,369.14 205.83,369.14 203.21,368.34 200.87,368.34 198.62,366.55 196.16,366.55 193.48,366.27 191.28,366.19 188.90,366.19 186.30,366.19 183.93,365.33 181.34,363.80 179.08,363.61 176.63,363.61 173.95,360.90 171.75,360.65 169.37,360.21 166.76,358.87 164.88,358.00 161.81,358.00 159.55,357.93 157.10,356.53 154.41,355.49 152.97,354.07 149.84,354.06 148.13,353.46 144.36,351.58 142.28,350.83 140.02,348.25 137.57,348.25 134.88,347.85 131.91,347.85 128.60,341.75 124.83,340.14 120.49,338.01 115.35,336.81 109.06,332.15 100.96,327.06 89.53,320.51 70.00,308.76 70.00,286.03" fill="#c0392b" fill-opacity="0.18" stroke="none"/><polygon points="70.00,345.53 70.00,345.53 89.53,345.53 100.96,345.53 109.06,345.53 115.35,345.53 120.49,345.99 124.83,348.02 128.60,349.17 131.91,352.58 134.88,354.06 137.57,354.06 140.02,354.34 142.28,355.68 144.36,356.03 148.13,356.35 149.84,356.35 152.97,357.89 154.41,358.60 157.10,362.23 159.55,362.23 161.81,363.78 164.88,364.40 166.76,365.60 169.37,365.92 171.75,366.37 173.95,366.52 176.63,367.60 179.08,367.60 181.34,367.60 183.93,367.60 186.30,367.70 188.90,368.12 191.28,368.14 193.48,368.14 196.16,369.42 198.62,369.49 200.87,369.49 203.21,369.83 205.83,369.83 208.22,369.95 210.62,369.95 213.01,370.15 215.37,370.41 217.85,370.56 220.27,370.59 222.74,370.59 225.13,370.59 227.54,370.64 229.96,370.65 232.45,370.65 234.82,370.65 237.24,370.65 239.66,370.65 242.15,370.93 244.55,370.96 246.97,371.00 249.40,371.00 251.81,371.07 254.23,371.07 256.65,371.07 259.09,371.07 261.52,371.07 263.94,371.07 266.37,371.09 268.78,371.11 271.21,371.11 273.62,371.11 276.06,371.19 278.49,371.19 280.90,371.19 283.32,371.19 285.76,371.19 288.18,371.19 290.60,371.19 293.02,371.19 295.45,371.19 297.87,371.19 300.30,371.19 302.72,371.19 305.15,371.19 307.57,371.19 309.99,371.19 309.99,371.19 307.57,371.19 305.15,371.19 302.72,371.19 300.30,371.19 297.87,371.19 295.45,371.19 293.02,371.19 290.60,371.19 288.18,371.19 285.76,371.19 283.32,371.19 280.90,371.19 278.49,371.19 276.06,371.19 273.62,371.19 271.21,371.19 268.78,371.19 266.37,371.19 263.94,371.19 261.52,371.19 259.09,371.19 256.65,371.19 254.23,371.19 251.81,371.19 249.40,371.19 246.97,371.19 244.55,371.19 242.15,371.19 239.66,371.19 237.24,371.19 234.82,371.19 232.45,371.19 229.96,371.19 227.54,371.19 225.13,371.19 222.74,371.19 220.27,371.19 217.85,371.19 215.37,371.10 213.01,371.10 210.62,371.09 208.22,371.01 205.83,371.01 203.21,371.01 200.87,371.01 198.62,371.01 196.16,371.01 193.48,370.69 191.28,370.58 188.90,370.44 186.30,370.44 183.93,370.44 181.34,370.44 179.08,370.14 176.63,370.00 173.95,369.61 171.75,369.61 169.37,369.61 166.76,369.61 164.88,368.83 161.81,368.83 159.55,368.20 157.10,368.06 154.41,367.02 152.97,366.70 149.84,366.70 148.13,366.70 144.36,365.08 142.28,365.08 140.02,364.66 137.57,364.66 134.88,362.88 131.91,362.88 128.60,361.67 124.83,361.31 120.49,361.31 115.35,360.40 109.06,359.56 100.96,357.70 89.53,356.53 70.00,355.61 70.00,345.53" fill="#2874a6" fill-opacity="0.18" stroke="none"/><polyline points="70.00,286.03 70.00,286.03 89.53,303.38 100.96,310.00 109.06,320.69 115.35,324.20 120.49,329.27 124.83,332.05 128.60,335.17 131.91,338.02 134.88,338.91 137.57,340.81 140.02,342.14 142.28,343.29 144.36,344.36 148.13,346.82 149.84,348.15 152.97,349.23 154.41,349.23 157.10,350.52 159.55,351.81 161.81,352.18 164.88,353.72 166.76,353.95 169.37,354.03 171.75,355.02 173.95,355.31 176.63,356.47 179.08,357.33 181.34,358.71 183.93,358.71 186.30,359.26 188.90,360.78 191.28,361.90 193.48,361.90 196.16,363.72 198.62,364.21 200.87,364.77 203.21,364.96 205.83,366.65 208.22,366.71 210.62,366.80 213.01,367.14 215.37,367.62 217.85,368.31 220.27,368.31 222.74,368.86 225.13,368.86 227.54,369.26 229.96,369.69 232.45,370.19 234.82,370.30 237.24,370.30 239.66,370.33 242.15,370.34 244.55,370.34 246.97,370.34 249.40,370.34 251.81,370.41 254.23,370.56 256.65,370.56 259.09,370.58 261.52,370.62 263.94,370.62 266.37,370.65 268.78,370.65 271.21,370.65 273.62,370.65 276.06,370.72 278.49,371.04 280.90,371.05 283.32,371.15 285.76,371.19 288.18,371.19 290.60,371.19 293.02,371.19 295.45,371.19 297.87,371.19 300.30,371.19 302.72,371.19 305.15,371.19 307.57,371.19 309.99,371.19" fill="none" stroke="#c0392b" stroke-width="1.8"/><polyline points="70.00,345.53 70.00,345.53 89.53,348.90 100.96,350.45 109.06,351.71 115.35,351.88 120.49,353.11 124.83,354.70 128.60,356.34 131.91,356.86 134.88,357.48 137.57,358.26 140.02,359.17 142.28,360.15 144.36,360.86 148.13,361.10 149.84,361.23 152.97,362.03 154.41,362.52 157.10,365.88 159.55,366.46 161.81,366.93 164.88,367.08 166.76,367.62 169.37,368.54 171.75,368.73 173.95,368.78 176.63,368.79 179.08,368.79 181.34,369.00 183.93,369.19 186.30,369.68 188.90,369.86 191.28,369.88 193.48,370.13 196.16,370.23 198.62,370.47 200.87,370.47 203.21,370.51 205.83,370.58 208.22,370.60 210.62,370.61 213.01,370.65 215.37,370.65 217.85,370.65 220.27,370.78 222.74,370.98 225.13,371.04 227.54,371.09 229.96,371.09 232.45,371.09 234.82,371.11 237.24,371.15 239.66,371.19 242.15,371.19 244.55,371.19 246.97,371.19 249.40,371.19 251.81,371.19 254.23,371.19 256.65,371.19 259.09,371.19 261.52,371.19 263.94,371.19 266.37,371.19 268.78,371.19 271.21,371.19 273.62,371.19 276.06,371.19 278.49,371.19 280.90,371.19 283.32,371.19 285.76,371.19 288.18,371.19 290.60,371.19 293.02,371.19 295.45,371.19 297.87,371.19 300.30,371.19 302.72,371.19 305.15,371.19 307.57,371.19 309.99,371.19" fill="none" stroke="#2874a6" stroke-width="1.8"/><line x1="70.00" y1="401.67" x2="310.00" y2="401.67" stroke="#333333" stroke-width="1"/><line x1="70.00" y1="401.67" x2="70.00" y2="405.67" stroke="#333333" stroke-width="1"/><text x="70.00" y="417.67" font-family="Arial,sans-serif" font-size="10" text-anchor="middle" fill="#333333">1</text><line x1="134.88" y1="401.67" x2="134.88" y2="405.67" stroke="#333333" stroke-width="1"/><text x="134.88" y="417.67" font-family="Arial,sans-serif" font-size="10" text-anchor="middle" fill="#333333">10</text><line x1="199.77" y1="401.67" x2="199.77" y2="405.67" stroke="#333333" stroke-width="1"/><text x="199.77" y="417.67" font-family="Arial,sans-serif" font-size="10" text-anchor="middle" fill="#333333">100</text><line x1="264.65" y1="401.67" x2="264.65" y2="405.67" stroke="#333333" stroke-width="1"/><text x="264.65" y="417.67" font-family="Arial,sans-serif" font-size="10" text-anchor="middle" fill="#333333">1000</text><line x1="310.00" y1="401.67" x2="310.00" y2="405.67" stroke="#333333" stroke-width="1"/><text x="310.00" y="417.67" font-family="Arial,sans-serif" font-size="10" text-anchor="middle" fill="#333333">5000</text><text x="190.00" y="240.33" font-family="Arial,sans-serif" font-size="12" font-weight="bold" text-anchor="middle" fill="#222222">H=4, fc=240</text></g><g><rect x="355.00" y="248.33" width="240.00" height="153.33" fill="white" stroke="none"/><line x1="355.00" y1="248.33" x2="355.00" y2="401.67" stroke="#333333" stroke-width="1"/><line x1="351.00" y1="401.67" x2="355.00" y2="401.67" stroke="#333333" stroke-width="1"/><text x="349.00" y="404.67" font-family="Arial,sans-serif" font-size="9" text-anchor="end" fill="#333333">0</text><line x1="355.00" y1="401.67" x2="595.00" y2="401.67" stroke="#dddddd" stroke-width="0.5"/><line x1="351.00" y1="363.33" x2="355.00" y2="363.33" stroke="#333333" stroke-width="1"/><text x="349.00" y="366.33" font-family="Arial,sans-serif" font-size="9" text-anchor="end" fill="#333333">5000</text><line x1="355.00" y1="363.33" x2="595.00" y2="363.33" stroke="#dddddd" stroke-width="0.5"/><line x1="351.00" y1="325.00" x2="355.00" y2="325.00" stroke="#333333" stroke-width="1"/><text x="349.00" y="328.00" font-family="Arial,sans-serif" font-size="9" text-anchor="end" fill="#333333">10000</text><line x1="355.00" y1="325.00" x2="595.00" y2="325.00" stroke="#dddddd" stroke-width="0.5"/><line x1="351.00" y1="286.67" x2="355.00" y2="286.67" stroke="#333333" stroke-width="1"/><text x="349.00" y="289.67" font-family="Arial,sans-serif" font-size="9" text-anchor="end" fill="#333333">15000</text><line x1="355.00" y1="286.67" x2="595.00" y2="286.67" stroke="#dddddd" stroke-width="0.5"/><line x1="351.00" y1="248.33" x2="355.00" y2="248.33" stroke="#333333" stroke-width="1"/><text x="349.00" y="251.33" font-family="Arial,sans-serif" font-size="9" text-anchor="end" fill="#333333">20000</text><line x1="355.00" y1="248.33" x2="595.00" y2="248.33" stroke="#dddddd" stroke-width="0.5"/><polygon points="355.00,283.85 355.00,283.85 374.53,283.85 385.96,283.85 394.06,297.61 400.35,297.89 405.49,304.02 409.83,309.05 413.60,312.81 416.91,313.10 419.88,313.10 422.57,318.95 425.02,326.20 427.28,326.20 429.36,330.18 433.13,331.96 434.84,333.11 437.97,333.40 439.41,340.87 442.10,343.07 444.55,343.07 446.81,343.65 449.88,343.65 451.76,345.57 454.37,347.12 456.75,347.13 458.95,347.98 461.63,350.35 464.08,350.36 466.34,350.36 468.93,351.25 471.30,351.48 473.90,353.02 476.28,354.04 478.48,354.58 481.16,355.68 483.62,357.92 485.87,357.92 488.21,358.78 490.83,358.89 493.22,359.52 495.62,359.95 498.01,361.43 500.37,361.83 502.85,363.37 505.27,363.89 507.74,364.78 510.13,364.85 512.54,365.33 514.96,366.92 517.45,367.49 519.82,367.49 522.24,367.76 524.66,367.89 527.15,368.25 529.55,368.32 531.97,368.38 534.40,368.38 536.81,368.50 539.23,368.50 541.65,368.50 544.09,368.78 546.52,369.14 548.94,369.25 551.37,369.29 553.78,369.29 556.21,369.29 558.62,369.29 561.06,369.52 563.49,369.53 565.90,369.59 568.32,369.60 570.76,369.68 573.18,369.68 575.60,369.68 578.02,369.69 580.45,369.69 582.87,369.81 585.30,369.81 587.72,369.89 590.15,370.11 592.57,370.11 594.99,370.13 594.99,370.22 592.57,370.22 590.15,370.22 587.72,370.22 585.30,370.22 582.87,370.22 580.45,370.22 578.02,370.22 575.60,370.22 573.18,370.22 570.76,370.22 568.32,370.22 565.90,370.22 563.49,370.22 561.06,370.22 558.62,370.22 556.21,370.22 553.78,370.22 551.37,370.22 548.94,370.22 546.52,370.22 544.09,370.22 541.65,370.22 539.23,370.22 536.81,370.14 534.40,370.14 531.97,370.14 529.55,369.82 527.15,369.82 524.66,369.82 522.24,369.63 519.82,369.62 517.45,369.57 514.96,369.57 512.54,369.54 510.13,369.17 507.74,369.14 505.27,369.07 502.85,369.07 500.37,368.88 498.01,368.66 495.62,368.05 493.22,368.05 490.83,368.05 488.21,368.05 485.87,368.05 483.62,366.17 481.16,366.17 478.48,366.17 476.28,365.25 473.90,365.25 471.30,365.16 468.93,364.29 466.34,362.61 464.08,362.41 461.63,362.41 458.95,360.97 456.75,360.03 454.37,359.69 451.76,357.51 449.88,356.59 446.81,356.59 444.55,356.53 442.10,355.05 439.41,353.90 437.97,352.42 434.84,352.41 433.13,351.87 429.36,349.99 427.28,349.25 425.02,346.59 422.57,346.59 419.88,346.27 416.91,346.27 413.60,339.77 409.83,338.23 405.49,336.21 400.35,335.02 394.06,330.35 385.96,325.06 374.53,318.60 355.00,306.59 355.00,283.85" fill="#c0392b" fill-opacity="0.18" stroke="none"/><polygon points="355.00,344.12 355.00,344.12 374.53,344.12 385.96,344.12 394.06,344.12 400.35,344.12 405.49,344.64 409.83,346.67 413.60,347.54 416.91,351.04 419.88,352.81 422.57,352.81 425.02,352.89 427.28,354.23 429.36,354.63 433.13,355.11 434.84,355.11 437.97,356.76 439.41,357.45 442.10,361.00 444.55,361.00 446.81,362.80 449.88,363.36 451.76,364.57 454.37,365.33 456.75,365.60 458.95,365.69 461.63,366.57 464.08,366.57 466.34,366.57 468.93,366.57 471.30,366.73 473.90,367.15 476.28,367.18 478.48,367.18 481.16,368.45 483.62,368.53 485.87,368.53 488.21,368.87 490.83,368.87 493.22,368.98 495.62,368.98 498.01,369.18 500.37,369.44 502.85,369.59 505.27,369.62 507.74,369.62 510.13,369.62 512.54,369.67 514.96,369.69 517.45,369.69 519.82,369.69 522.24,369.69 524.66,369.69 527.15,369.97 529.55,370.00 531.97,370.03 534.40,370.03 536.81,370.10 539.23,370.10 541.65,370.10 544.09,370.11 546.52,370.11 548.94,370.11 551.37,370.13 553.78,370.14 556.21,370.14 558.62,370.14 561.06,370.22 563.49,370.22 565.90,370.22 568.32,370.22 570.76,370.22 573.18,370.22 575.60,370.22 578.02,370.22 580.45,370.22 582.87,370.22 585.30,370.22 587.72,370.22 590.15,370.22 592.57,370.22 594.99,370.22 594.99,370.22 592.57,370.22 590.15,370.22 587.72,370.22 585.30,370.22 582.87,370.22 580.45,370.22 578.02,370.22 575.60,370.22 573.18,370.22 570.76,370.22 568.32,370.22 565.90,370.22 563.49,370.22 561.06,370.22 558.62,370.22 556.21,370.22 553.78,370.22 551.37,370.22 548.94,370.22 546.52,370.22 544.09,370.22 541.65,370.22 539.23,370.22 536.81,370.22 534.40,370.22 531.97,370.22 529.55,370.22 527.15,370.22 524.66,370.22 522.24,370.22 519.82,370.22 517.45,370.22 514.96,370.22 512.54,370.22 510.13,370.22 507.74,370.22 505.27,370.22 502.85,370.22 500.37,370.13 498.01,370.13 495.62,370.12 493.22,370.04 490.83,370.04 488.21,370.04 485.87,370.04 483.62,370.04 481.16,370.04 478.48,369.72 476.28,369.61 473.90,369.47 471.30,369.47 468.93,369.47 466.34,369.47 464.08,369.18 461.63,368.98 458.95,368.64 456.75,368.64 454.37,368.64 451.76,368.64 449.88,367.86 446.81,367.86 444.55,367.23 442.10,367.09 439.41,366.04 437.97,365.73 434.84,365.73 433.13,365.73 429.36,363.98 427.28,363.91 425.02,363.50 422.57,363.50 419.88,361.66 416.91,361.66 413.60,360.46 409.83,360.02 405.49,360.02 400.35,359.15 394.06,358.39 385.96,356.41 374.53,355.17 355.00,354.23 355.00,344.12" fill="#2874a6" fill-opacity="0.18" stroke="none"/><polyline points="355.00,283.85 355.00,283.85 374.53,301.25 385.96,307.90 394.06,318.67 400.35,322.14 405.49,327.22 409.83,330.11 413.60,332.79 416.91,335.03 419.88,337.00 422.57,337.99 425.02,340.24 427.28,341.35 429.36,342.45 433.13,344.32 434.84,345.67 437.97,346.76 439.41,346.76 442.10,348.79 444.55,350.02 446.81,350.30 449.88,351.44 451.76,351.46 454.37,351.83 456.75,353.48 458.95,353.66 461.63,355.04 464.08,356.02 466.34,357.32 468.93,357.54 471.30,357.93 473.90,358.91 476.28,359.91 478.48,359.91 481.16,362.00 483.62,362.69 485.87,363.61 488.21,363.79 490.83,365.59 493.22,365.64 495.62,365.70 498.01,366.05 500.37,366.52 502.85,367.25 505.27,367.25 507.74,367.87 510.13,367.98 512.54,368.49 514.96,368.73 517.45,369.04 519.82,369.24 522.24,369.24 524.66,369.38 527.15,369.38 529.55,369.38 531.97,369.50 534.40,369.53 536.81,369.55 539.23,369.59 541.65,369.61 544.09,369.62 546.52,369.62 548.94,369.62 551.37,369.66 553.78,369.66 556.21,369.69 558.62,369.69 561.06,369.91 563.49,370.07 565.90,370.08 568.32,370.14 570.76,370.14 573.18,370.18 575.60,370.22 578.02,370.22 580.45,370.22 582.87,370.22 585.30,370.22 587.72,370.22 590.15,370.22 592.57,370.22 594.99,370.22" fill="none" stroke="#c0392b" stroke-width="1.8"/><polyline points="355.00,344.12 355.00,344.12 374.53,347.39 385.96,349.04 394.06,350.34 400.35,350.43 405.49,351.74 409.83,353.32 413.60,355.01 416.91,355.44 419.88,356.13 422.57,356.94 425.02,357.87 427.28,358.86 429.36,359.60 433.13,359.84 434.84,360.07 437.97,360.94 439.41,361.36 442.10,364.75 444.55,365.04 446.81,365.83 449.88,366.06 451.76,366.59 454.37,367.29 456.75,367.72 458.95,367.78 461.63,367.82 464.08,367.82 466.34,367.97 468.93,368.11 471.30,368.59 473.90,368.80 476.28,368.80 478.48,369.06 481.16,369.27 483.62,369.50 485.87,369.50 488.21,369.54 490.83,369.61 493.22,369.63 495.62,369.64 498.01,369.68 500.37,369.69 502.85,369.69 505.27,369.81 507.74,370.01 510.13,370.07 512.54,370.12 514.96,370.12 517.45,370.13 519.82,370.14 522.24,370.18 524.66,370.22 527.15,370.22 529.55,370.22 531.97,370.22 534.40,370.22 536.81,370.22 539.23,370.22 541.65,370.22 544.09,370.22 546.52,370.22 548.94,370.22 551.37,370.22 553.78,370.22 556.21,370.22 558.62,370.22 561.06,370.22 563.49,370.22 565.90,370.22 568.32,370.22 570.76,370.22 573.18,370.22 575.60,370.22 578.02,370.22 580.45,370.22 582.87,370.22 585.30,370.22 587.72,370.22 590.15,370.22 592.57,370.22 594.99,370.22" fill="none" stroke="#2874a6" stroke-width="1.8"/><line x1="355.00" y1="401.67" x2="595.00" y2="401.67" stroke="#333333" stroke-width="1"/><line x1="355.00" y1="401.67" x2="355.00" y2="405.67" stroke="#333333" stroke-width="1"/><text x="355.00" y="417.67" font-family="Arial,sans-serif" font-size="10" text-anchor="middle" fill="#333333">1</text><line x1="419.88" y1="401.67" x2="419.88" y2="405.67" stroke="#333333" stroke-width="1"/><text x="419.88" y="417.67" font-family="Arial,sans-serif" font-size="10" text-anchor="middle" fill="#333333">10</text><line x1="484.77" y1="401.67" x2="484.77" y2="405.67" stroke="#333333" stroke-width="1"/><text x="484.77" y="417.67" font-family="Arial,sans-serif" font-size="10" text-anchor="middle" fill="#333333">100</text><line x1="549.65" y1="401.67" x2="549.65" y2="405.67" stroke="#333333" stroke-width="1"/><text x="549.65" y="417.67" font-family="Arial,sans-serif" font-size="10" text-anchor="middle" fill="#333333">1000</text><line x1="595.00" y1="401.67" x2="595.00" y2="405.67" stroke="#333333" stroke-width="1"/><text x="595.00" y="417.67" font-family="Arial,sans-serif" font-size="10" text-anchor="middle" fill="#333333">5000</text><text x="475.00" y="240.33" font-family="Arial,sans-serif" font-size="12" font-weight="bold" text-anchor="middle" fill="#222222">H=4, fc=280</text></g><g><rect x="640.00" y="248.33" width="240.00" height="153.33" fill="white" stroke="none"/><line x1="640.00" y1="248.33" x2="640.00" y2="401.67" stroke="#333333" stroke-width="1"/><line x1="636.00" y1="401.67" x2="640.00" y2="401.67" stroke="#333333" stroke-width="1"/><text x="634.00" y="404.67" font-family="Arial,sans-serif" font-size="9" text-anchor="end" fill="#333333">0</text><line x1="640.00" y1="401.67" x2="880.00" y2="401.67" stroke="#dddddd" stroke-width="0.5"/><line x1="636.00" y1="363.33" x2="640.00" y2="363.33" stroke="#333333" stroke-width="1"/><text x="634.00" y="366.33" font-family="Arial,sans-serif" font-size="9" text-anchor="end" fill="#333333">5000</text><line x1="640.00" y1="363.33" x2="880.00" y2="363.33" stroke="#dddddd" stroke-width="0.5"/><line x1="636.00" y1="325.00" x2="640.00" y2="325.00" stroke="#333333" stroke-width="1"/><text x="634.00" y="328.00" font-family="Arial,sans-serif" font-size="9" text-anchor="end" fill="#333333">10000</text><line x1="640.00" y1="325.00" x2="880.00" y2="325.00" stroke="#dddddd" stroke-width="0.5"/><line x1="636.00" y1="286.67" x2="640.00" y2="286.67" stroke="#333333" stroke-width="1"/><text x="634.00" y="289.67" font-family="Arial,sans-serif" font-size="9" text-anchor="end" fill="#333333">15000</text><line x1="640.00" y1="286.67" x2="880.00" y2="286.67" stroke="#dddddd" stroke-width="0.5"/><line x1="636.00" y1="248.33" x2="640.00" y2="248.33" stroke="#333333" stroke-width="1"/><text x="634.00" y="251.33" font-family="Arial,sans-serif" font-size="9" text-anchor="end" fill="#333333">20000</text><line x1="640.00" y1="248.33" x2="880.00" y2="248.33" stroke="#dddddd" stroke-width="0.5"/><polygon points="640.00,281.68 640.00,281.68 659.53,281.68 670.96,281.68 679.06,295.50 685.35,295.95 690.49,302.07 694.83,306.99 698.60,310.68 701.91,310.97 704.88,310.97 707.57,316.80 710.02,324.13 712.28,324.13 714.36,328.16 718.13,330.11 719.84,331.24 722.97,331.61 724.41,339.05 727.10,341.24 729.55,341.24 731.81,341.94 734.88,341.94 736.76,343.82 739.37,345.54 741.75,345.57 743.95,346.18 746.63,348.52 749.08,348.53 751.34,348.54 753.93,349.72 756.30,350.01 758.90,351.41 761.28,352.56 763.48,353.34 766.16,354.92 768.62,357.72 770.87,358.33 773.21,358.45 775.83,358.83 778.22,359.22 780.62,360.24 783.01,360.62 785.37,362.24 787.85,362.31 790.27,363.43 792.74,364.50 795.13,365.01 797.54,365.86 799.96,366.41 802.45,366.51 804.82,366.66 807.24,366.76 809.66,367.22 812.15,367.94 814.55,367.94 816.97,367.97 819.40,368.29 821.81,368.29 824.23,368.29 826.65,368.30 829.09,368.36 831.52,368.46 833.94,368.50 836.37,368.59 838.78,368.61 841.21,368.61 843.62,368.64 846.06,368.65 848.49,368.65 850.90,368.65 853.32,368.65 855.76,368.67 858.18,368.73 860.60,368.73 863.02,368.73 865.45,368.73 867.87,368.86 870.30,369.06 872.72,369.16 875.15,369.18 877.57,369.18 879.99,369.18 879.99,369.27 877.57,369.27 875.15,369.27 872.72,369.27 870.30,369.27 867.87,369.27 865.45,369.27 863.02,369.27 860.60,369.27 858.18,369.27 855.76,369.27 853.32,369.27 850.90,369.27 848.49,369.27 846.06,369.27 843.62,369.27 841.21,369.27 838.78,369.27 836.37,369.27 833.94,369.27 831.52,369.27 829.09,369.27 826.65,369.27 824.23,369.27 821.81,369.27 819.40,369.27 816.97,369.19 814.55,369.18 812.15,369.18 809.66,369.06 807.24,368.85 804.82,368.85 802.45,368.85 799.96,368.85 797.54,368.65 795.13,368.63 792.74,368.61 790.27,368.32 787.85,368.12 785.37,368.02 783.01,367.73 780.62,367.14 778.22,366.97 775.83,366.71 773.21,366.71 770.87,366.54 768.62,365.04 766.16,364.87 763.48,364.21 761.28,364.13 758.90,364.12 756.30,364.12 753.93,363.20 751.34,361.66 749.08,361.21 746.63,361.21 743.95,359.76 741.75,358.82 739.37,358.45 736.76,356.17 734.88,355.20 731.81,355.20 729.55,355.13 727.10,353.59 724.41,352.32 722.97,350.79 719.84,350.79 718.13,350.29 714.36,348.41 712.28,347.68 710.02,344.94 707.57,344.94 704.88,344.71 701.91,344.71 698.60,337.91 694.83,336.34 690.49,334.43 685.35,333.24 679.06,328.57 670.96,323.09 659.53,316.71 640.00,304.43 640.00,281.68" fill="#c0392b" fill-opacity="0.18" stroke="none"/><polygon points="640.00,342.71 640.00,342.71 659.53,342.71 670.96,342.71 679.06,342.71 685.35,342.71 690.49,343.29 694.83,345.33 698.60,346.04 701.91,349.51 704.88,351.39 707.57,351.39 710.02,351.61 712.28,352.88 714.36,353.25 718.13,353.88 719.84,353.88 722.97,355.72 724.41,356.27 727.10,359.79 729.55,359.79 731.81,361.83 734.88,362.35 736.76,363.55 739.37,364.32 741.75,364.63 743.95,364.74 746.63,365.55 749.08,365.55 751.34,365.55 753.93,365.55 756.30,365.77 758.90,366.19 761.28,366.22 763.48,366.22 766.16,367.49 768.62,367.57 770.87,367.57 773.21,367.91 775.83,367.91 778.22,368.02 780.62,368.02 783.01,368.23 785.37,368.49 787.85,368.64 790.27,368.67 792.74,368.67 795.13,368.67 797.54,368.72 799.96,368.73 802.45,368.73 804.82,368.73 807.24,368.73 809.66,369.01 812.15,369.01 814.55,369.04 816.97,369.07 819.40,369.07 821.81,369.15 824.23,369.15 826.65,369.15 829.09,369.15 831.52,369.15 833.94,369.15 836.37,369.17 838.78,369.19 841.21,369.19 843.62,369.19 846.06,369.27 848.49,369.27 850.90,369.27 853.32,369.27 855.76,369.27 858.18,369.27 860.60,369.27 863.02,369.27 865.45,369.27 867.87,369.27 870.30,369.27 872.72,369.27 875.15,369.27 877.57,369.27 879.99,369.27 879.99,369.27 877.57,369.27 875.15,369.27 872.72,369.27 870.30,369.27 867.87,369.27 865.45,369.27 863.02,369.27 860.60,369.27 858.18,369.27 855.76,369.27 853.32,369.27 850.90,369.27 848.49,369.27 846.06,369.27 843.62,369.27 841.21,369.27 838.78,369.27 836.37,369.27 833.94,369.27 831.52,369.27 829.09,369.27 826.65,369.27 824.23,369.27 821.81,369.27 819.40,369.27 816.97,369.27 814.55,369.27 812.15,369.27 809.66,369.27 807.24,369.27 804.82,369.27 802.45,369.27 799.96,369.27 797.54,369.27 795.13,369.27 792.74,369.27 790.27,369.27 787.85,369.27 785.37,369.18 783.01,369.18 780.62,369.16 778.22,369.09 775.83,369.09 773.21,369.09 770.87,369.09 768.62,369.09 766.16,369.09 763.48,368.77 761.28,368.66 758.90,368.51 756.30,368.51 753.93,368.51 751.34,368.51 749.08,368.22 746.63,368.02 743.95,367.68 741.75,367.68 739.37,367.68 736.76,367.68 734.88,366.71 731.81,366.27 729.55,366.27 727.10,366.13 724.41,365.08 722.97,363.91 719.84,363.91 718.13,363.91 714.36,362.96 712.28,362.78 710.02,362.34 707.57,362.34 704.88,360.44 701.91,360.44 698.60,359.31 694.83,358.70 690.49,358.70 685.35,357.86 679.06,357.23 670.96,355.13 659.53,353.83 640.00,352.86 640.00,342.71" fill="#2874a6" fill-opacity="0.18" stroke="none"/><polyline points="640.00,281.68 640.00,281.68 659.53,299.14 670.96,305.82 679.06,316.67 685.35,320.10 690.49,325.19 694.83,328.20 698.60,330.93 701.91,333.01 704.88,335.22 707.57,336.19 710.02,338.36 712.28,339.44 714.36,340.56 718.13,342.44 719.84,343.90 722.97,345.12 724.41,345.12 727.10,347.23 729.55,348.40 731.81,348.72 734.88,349.88 736.76,349.88 739.37,350.20 741.75,352.05 743.95,352.19 746.63,353.60 749.08,354.67 751.34,355.95 753.93,356.23 756.30,356.62 758.90,358.33 761.28,358.76 763.48,359.30 766.16,361.15 768.62,362.50 770.87,362.99 773.21,363.67 775.83,364.80 778.22,365.02 780.62,365.02 783.01,365.02 785.37,365.44 787.85,365.83 790.27,366.05 792.74,366.74 795.13,366.82 797.54,367.96 799.96,367.96 802.45,368.38 804.82,368.46 807.24,368.46 809.66,368.55 812.15,368.60 814.55,368.60 816.97,368.61 819.40,368.62 821.81,368.65 824.23,368.67 826.65,368.67 829.09,368.73 831.52,368.78 833.94,368.83 836.37,368.83 838.78,368.83 841.21,368.83 843.62,368.83 846.06,369.18 848.49,369.18 850.90,369.18 853.32,369.27 855.76,369.27 858.18,369.27 860.60,369.27 863.02,369.27 865.45,369.27 867.87,369.27 870.30,369.27 872.72,369.27 875.15,369.27 877.57,369.27 879.99,369.27" fill="none" stroke="#c0392b" stroke-width="1.8"/><polyline points="640.00,342.71 640.00,342.71 659.53,345.83 670.96,347.64 679.06,348.97 685.35,349.12 690.49,350.39 694.83,352.04 698.60,353.68 701.91,354.04 704.88,354.80 707.57,355.63 710.02,356.58 712.28,357.58 714.36,358.35 718.13,358.60 719.84,358.92 722.97,359.76 724.41,360.31 727.10,363.64 729.55,363.81 731.81,364.66 734.88,365.10 736.76,365.57 739.37,366.22 741.75,366.53 743.95,366.74 746.63,366.79 749.08,366.81 751.34,366.95 753.93,367.16 756.30,367.55 758.90,367.79 761.28,367.82 763.48,368.00 766.16,368.27 768.62,368.51 770.87,368.51 773.21,368.59 775.83,368.64 778.22,368.68 780.62,368.70 783.01,368.73 785.37,368.73 787.85,368.75 790.27,368.96 792.74,369.06 795.13,369.12 797.54,369.16 799.96,369.17 802.45,369.18 804.82,369.19 807.24,369.23 809.66,369.27 812.15,369.27 814.55,369.27 816.97,369.27 819.40,369.27 821.81,369.27 824.23,369.27 826.65,369.27 829.09,369.27 831.52,369.27 833.94,369.27 836.37,369.27 838.78,369.27 841.21,369.27 843.62,369.27 846.06,369.27 848.49,369.27 850.90,369.27 853.32,369.27 855.76,369.27 858.18,369.27 860.60,369.27 863.02,369.27 865.45,369.27 867.87,369.27 870.30,369.27 872.72,369.27 875.15,369.27 877.57,369.27 879.99,369.27" fill="none" stroke="#2874a6" stroke-width="1.8"/><line x1="640.00" y1="401.67" x2="880.00" y2="401.67" stroke="#333333" stroke-width="1"/><line x1="640.00" y1="401.67" x2="640.00" y2="405.67" stroke="#333333" stroke-width="1"/><text x="640.00" y="417.67" font-family="Arial,sans-serif" font-size="10" text-anchor="middle" fill="#333333">1</text><line x1="704.88" y1="401.67" x2="704.88" y2="405.67" stroke="#333333" stroke-width="1"/><text x="704.88" y="417.67" font-family="Arial,sans-serif" font-size="10" text-anchor="middle" fill="#333333">10</text><line x1="769.77" y1="401.67" x2="769.77" y2="405.67" stroke="#333333" stroke-width="1"/><text x="769.77" y="417.67" font-family="Arial,sans-serif" font-size="10" text-anchor="middle" fill="#333333">100</text><line x1="834.65" y1="401.67" x2="834.65" y2="405.67" stroke="#333333" stroke-width="1"/><text x="834.65" y="417.67" font-family="Arial,sans-serif" font-size="10" text-anchor="middle" fill="#333333">1000</text><line x1="880.00" y1="401.67" x2="880.00" y2="405.67" stroke="#333333" stroke-width="1"/><text x="880.00" y="417.67" font-family="Arial,sans-serif" font-size="10" text-anchor="middle" fill="#333333">5000</text><text x="760.00" y="240.33" font-family="Arial,sans-serif" font-size="12" font-weight="bold" text-anchor="middle" fill="#222222">H=4, fc=320</text></g><g><rect x="70.00" y="456.67" width="240.00" height="153.33" fill="white" stroke="none"/><line x1="70.00" y1="456.67" x2="70.00" y2="610.00" stroke="#333333" stroke-width="1"/><line x1="66.00" y1="610.00" x2="70.00" y2="610.00" stroke="#333333" stroke-width="1"/><text x="64.00" y="613.00" font-family="Arial,sans-serif" font-size="9" text-anchor="end" fill="#333333">5000</text><line x1="70.00" y1="610.00" x2="310.00" y2="610.00" stroke="#dddddd" stroke-width="0.5"/><line x1="66.00" y1="571.67" x2="70.00" y2="571.67" stroke="#333333" stroke-width="1"/><text x="64.00" y="574.67" font-family="Arial,sans-serif" font-size="9" text-anchor="end" fill="#333333">10000</text><line x1="70.00" y1="571.67" x2="310.00" y2="571.67" stroke="#dddddd" stroke-width="0.5"/><line x1="66.00" y1="533.33" x2="70.00" y2="533.33" stroke="#333333" stroke-width="1"/><text x="64.00" y="536.33" font-family="Arial,sans-serif" font-size="9" text-anchor="end" fill="#333333">15000</text><line x1="70.00" y1="533.33" x2="310.00" y2="533.33" stroke="#dddddd" stroke-width="0.5"/><line x1="66.00" y1="495.00" x2="70.00" y2="495.00" stroke="#333333" stroke-width="1"/><text x="64.00" y="498.00" font-family="Arial,sans-serif" font-size="9" text-anchor="end" fill="#333333">20000</text><line x1="70.00" y1="495.00" x2="310.00" y2="495.00" stroke="#dddddd" stroke-width="0.5"/><line x1="66.00" y1="456.67" x2="70.00" y2="456.67" stroke="#333333" stroke-width="1"/><text x="64.00" y="459.67" font-family="Arial,sans-serif" font-size="9" text-anchor="end" fill="#333333">25000</text><line x1="70.00" y1="456.67" x2="310.00" y2="456.67" stroke="#dddddd" stroke-width="0.5"/><polygon points="70.00,477.60 70.00,486.48 89.53,496.84 100.96,509.22 109.06,509.71 115.35,522.55 120.49,525.95 124.83,527.90 128.60,530.88 131.91,534.19 134.88,534.19 137.57,537.74 140.02,538.33 142.28,546.80 144.36,547.58 148.13,548.06 149.84,548.50 152.97,551.80 154.41,552.11 157.10,554.89 159.55,554.89 161.81,555.42 164.88,559.44 166.76,560.34 169.37,561.01 171.75,561.01 173.95,562.64 176.63,562.64 179.08,562.71 181.34,563.18 183.93,563.97 186.30,565.94 188.90,568.87 191.28,568.87 193.48,569.60 196.16,569.68 198.62,569.68 200.87,569.73 203.21,570.20 205.83,572.27 208.22,574.83 210.62,575.23 213.01,577.14 215.37,577.19 217.85,583.15 220.27,584.29 222.74,585.76 225.13,587.50 227.54,589.09 229.96,589.37 232.45,591.59 234.82,591.82 237.24,594.47 239.66,594.47 242.15,596.72 244.55,596.72 246.97,596.72 249.40,596.96 251.81,597.57 254.23,597.57 256.65,597.57 259.09,599.15 261.52,599.15 263.94,599.89 266.37,601.11 268.78,603.09 271.21,603.40 273.62,603.94 276.06,604.18 278.49,604.30 280.90,604.48 283.32,604.48 285.76,604.55 288.18,604.55 290.60,604.63 293.02,604.73 295.45,604.94 297.87,604.95 300.30,604.95 302.72,605.31 305.15,605.31 307.57,605.31 309.99,605.41 309.99,606.16 307.57,606.16 305.15,606.16 302.72,606.16 300.30,606.16 297.87,606.04 295.45,606.04 293.02,605.95 290.60,605.87 288.18,605.87 285.76,605.87 283.32,605.87 280.90,605.87 278.49,605.87 276.06,605.87 273.62,605.87 271.21,605.87 268.78,605.87 266.37,605.87 263.94,605.59 261.52,605.41 259.09,605.41 256.65,604.88 254.23,604.60 251.81,604.60 249.40,604.42 246.97,604.42 244.55,604.17 242.15,603.66 239.66,603.46 237.24,603.03 234.82,602.79 232.45,602.79 229.96,602.79 227.54,602.15 225.13,601.05 222.74,600.19 220.27,599.65 217.85,598.38 215.37,597.45 213.01,594.75 210.62,594.53 208.22,594.53 205.83,594.53 203.21,594.32 200.87,591.26 198.62,589.22 196.16,588.15 193.48,586.98 191.28,583.74 188.90,583.24 186.30,580.94 183.93,580.77 181.34,577.54 179.08,576.85 176.63,576.64 173.95,576.64 171.75,576.07 169.37,573.39 166.76,570.74 164.88,570.74 161.81,570.74 159.55,569.44 157.10,569.44 154.41,568.94 152.97,566.77 149.84,566.35 148.13,566.35 144.36,566.35 142.28,566.35 140.02,566.35 137.57,566.35 134.88,557.48 131.91,555.52 128.60,553.79 124.83,553.79 120.49,553.78 115.35,550.18 109.06,547.99 100.96,540.81 89.53,534.92 70.00,523.94 70.00,477.60" fill="#c0392b" fill-opacity="0.18" stroke="none"/><polygon points="70.00,561.73 70.00,561.73 89.53,561.73 100.96,561.73 109.06,561.73 115.35,561.73 120.49,561.73 124.83,562.00 128.60,562.00 131.91,563.31 134.88,563.31 137.57,564.98 140.02,564.98 142.28,566.80 144.36,572.97 148.13,572.97 149.84,574.31 152.97,577.50 154.41,578.44 157.10,580.93 159.55,583.93 161.81,585.12 164.88,587.41 166.76,589.48 169.37,592.96 171.75,593.68 173.95,594.50 176.63,596.00 179.08,596.11 181.34,596.11 183.93,597.65 186.30,597.91 188.90,599.47 191.28,599.47 193.48,600.61 196.16,600.62 198.62,601.02 200.87,601.10 203.21,601.10 205.83,602.76 208.22,603.18 210.62,603.35 213.01,603.70 215.37,603.71 217.85,603.91 220.27,604.27 222.74,604.27 225.13,604.27 227.54,604.39 229.96,604.66 232.45,604.78 234.82,604.78 237.24,604.95 239.66,604.95 242.15,604.95 244.55,605.33 246.97,605.34 249.40,605.44 251.81,605.44 254.23,605.44 256.65,605.45 259.09,605.45 261.52,605.56 263.94,605.56 266.37,605.56 268.78,605.79 271.21,605.79 273.62,605.79 276.06,605.81 278.49,605.81 280.90,605.81 283.32,605.81 285.76,605.81 288.18,605.81 290.60,605.81 293.02,605.81 295.45,605.81 297.87,605.81 300.30,605.81 302.72,605.81 305.15,605.81 307.57,605.81 309.99,605.81 309.99,606.47 307.57,606.47 305.15,606.47 302.72,606.47 300.30,606.47 297.87,606.47 295.45,606.47 293.02,606.47 290.60,606.47 288.18,606.47 285.76,606.47 283.32,606.47 280.90,606.47 278.49,606.47 276.06,606.16 273.62,606.16 271.21,606.16 268.78,606.16 266.37,606.16 263.94,606.16 261.52,606.16 259.09,606.16 256.65,606.16 254.23,606.16 251.81,606.16 249.40,606.16 246.97,606.16 244.55,606.16 242.15,606.16 239.66,606.16 237.24,606.03 234.82,606.03 232.45,606.03 229.96,606.03 227.54,606.03 225.13,606.03 222.74,606.03 220.27,606.03 217.85,605.95 215.37,605.95 213.01,605.81 210.62,605.81 208.22,605.81 205.83,605.61 203.21,605.03 200.87,604.81 198.62,604.81 196.16,604.79 193.48,604.72 191.28,603.81 188.90,603.81 186.30,603.60 183.93,603.16 181.34,603.16 179.08,603.16 176.63,602.78 173.95,602.60 171.75,602.60 169.37,602.60 166.76,601.07 164.88,600.96 161.81,600.75 159.55,599.44 157.10,599.21 154.41,591.91 152.97,591.91 149.84,591.41 148.13,591.41 144.36,588.37 142.28,588.37 140.02,588.11 137.57,586.60 134.88,584.33 131.91,584.33 128.60,582.65 124.83,582.24 120.49,580.85 115.35,578.67 109.06,578.11 100.96,576.16 89.53,575.38 70.00,575.38 70.00,561.73" fill="#2874a6" fill-opacity="0.18" stroke="none"/><polyline points="70.00,477.60 70.00,504.39 89.53,519.53 100.96,528.32 109.06,530.24 115.35,531.83 120.49,538.36 124.83,543.72 128.60,543.72 131.91,548.44 134.88,549.55 137.57,550.81 140.02,551.13 142.28,553.03 144.36,555.48 148.13,555.93 149.84,555.93 152.97,558.94 154.41,560.15 157.10,562.95 159.55,563.81 161.81,563.81 164.88,564.19 166.76,565.26 169.37,566.09 171.75,566.83 173.95,569.36 176.63,570.31 179.08,572.47 181.34,573.54 183.93,573.78 186.30,574.24 188.90,574.98 191.28,575.42 193.48,576.33 196.16,577.74 198.62,579.74 200.87,581.12 203.21,583.23 205.83,583.86 208.22,584.81 210.62,585.80 213.01,586.55 215.37,587.59 217.85,590.18 220.27,591.12 222.74,593.85 225.13,595.55 227.54,597.37 229.96,598.16 232.45,598.91 234.82,599.46 237.24,600.05 239.66,600.44 242.15,600.88 244.55,601.76 246.97,602.64 249.40,602.79 251.81,602.79 254.23,603.04 256.65,603.25 259.09,603.50 261.52,603.54 263.94,604.06 266.37,604.17 268.78,604.59 271.21,604.65 273.62,604.95 276.06,604.96 278.49,605.26 280.90,605.26 283.32,605.34 285.76,605.34 288.18,605.37 290.60,605.40 293.02,605.48 295.45,605.66 297.87,605.67 300.30,605.68 302.72,605.72 305.15,605.81 307.57,605.81 309.99,605.81" fill="none" stroke="#c0392b" stroke-width="1.8"/><polyline points="70.00,561.73 70.00,561.73 89.53,561.90 100.96,563.04 109.06,565.52 115.35,566.18 120.49,569.98 124.83,570.99 128.60,572.85 131.91,576.50 134.88,577.30 137.57,578.00 140.02,578.75 142.28,580.50 144.36,581.44 148.13,582.27 149.84,583.22 152.97,584.12 154.41,584.23 157.10,588.20 159.55,592.29 161.81,594.09 164.88,595.95 166.76,597.51 169.37,598.11 171.75,598.20 173.95,599.10 176.63,599.61 179.08,599.86 181.34,600.55 183.93,601.18 186.30,601.23 188.90,601.71 191.28,602.28 193.48,602.55 196.16,602.99 198.62,603.38 200.87,603.38 203.21,603.86 205.83,604.49 208.22,604.56 210.62,604.67 213.01,604.75 215.37,604.79 217.85,604.79 220.27,604.95 222.74,604.95 225.13,605.01 227.54,605.32 229.96,605.43 232.45,605.43 234.82,605.52 237.24,605.73 239.66,605.81 242.15,605.81 244.55,605.81 246.97,605.88 249.40,605.94 251.81,605.94 254.23,605.94 256.65,605.99 259.09,605.99 261.52,606.03 263.94,606.03 266.37,606.03 268.78,606.03 271.21,606.03 273.62,606.03 276.06,606.03 278.49,606.03 280.90,606.03 283.32,606.03 285.76,606.03 288.18,606.03 290.60,606.03 293.02,606.03 295.45,606.03 297.87,606.03 300.30,606.03 302.72,606.09 305.15,606.09 307.57,606.09 309.99,606.16" fill="none" stroke="#2874a6" stroke-width="1.8"/><text x="304.00" y="595.81" font-family="Arial" font-size="9" fill="#666666" text-anchor="end" dominant-baseline="middle">&#916; 45.3</text><line x1="70.00" y1="610.00" x2="310.00" y2="610.00" stroke="#333333" stroke-width="1"/><line x1="70.00" y1="610.00" x2="70.00" y2="614.00" stroke="#333333" stroke-width="1"/><text x="70.00" y="626.00" font-family="Arial,sans-serif" font-size="10" text-anchor="middle" fill="#333333">1</text><line x1="134.88" y1="610.00" x2="134.88" y2="614.00" stroke="#333333" stroke-width="1"/><text x="134.88" y="626.00" font-family="Arial,sans-serif" font-size="10" text-anchor="middle" fill="#333333">10</text><line x1="199.77" y1="610.00" x2="199.77" y2="614.00" stroke="#333333" stroke-width="1"/><text x="199.77" y="626.00" font-family="Arial,sans-serif" font-size="10" text-anchor="middle" fill="#333333">100</text><line x1="264.65" y1="610.00" x2="264.65" y2="614.00" stroke="#333333" stroke-width="1"/><text x="264.65" y="626.00" font-family="Arial,sans-serif" font-size="10" text-anchor="middle" fill="#333333">1000</text><line x1="310.00" y1="610.00" x2="310.00" y2="614.00" stroke="#333333" stroke-width="1"/><text x="310.00" y="626.00" font-family="Arial,sans-serif" font-size="10" text-anchor="middle" fill="#333333">5000</text><text x="190.00" y="448.67" font-family="Arial,sans-serif" font-size="12" font-weight="bold" text-anchor="middle" fill="#222222">H=5, fc=240</text></g><g><rect x="355.00" y="456.67" width="240.00" height="153.33" fill="white" stroke="none"/><line x1="355.00" y1="456.67" x2="355.00" y2="610.00" stroke="#333333" stroke-width="1"/><line x1="351.00" y1="610.00" x2="355.00" y2="610.00" stroke="#333333" stroke-width="1"/><text x="349.00" y="613.00" font-family="Arial,sans-serif" font-size="9" text-anchor="end" fill="#333333">5000</text><line x1="355.00" y1="610.00" x2="595.00" y2="610.00" stroke="#dddddd" stroke-width="0.5"/><line x1="351.00" y1="571.67" x2="355.00" y2="571.67" stroke="#333333" stroke-width="1"/><text x="349.00" y="574.67" font-family="Arial,sans-serif" font-size="9" text-anchor="end" fill="#333333">10000</text><line x1="355.00" y1="571.67" x2="595.00" y2="571.67" stroke="#dddddd" stroke-width="0.5"/><line x1="351.00" y1="533.33" x2="355.00" y2="533.33" stroke="#333333" stroke-width="1"/><text x="349.00" y="536.33" font-family="Arial,sans-serif" font-size="9" text-anchor="end" fill="#333333">15000</text><line x1="355.00" y1="533.33" x2="595.00" y2="533.33" stroke="#dddddd" stroke-width="0.5"/><line x1="351.00" y1="495.00" x2="355.00" y2="495.00" stroke="#333333" stroke-width="1"/><text x="349.00" y="498.00" font-family="Arial,sans-serif" font-size="9" text-anchor="end" fill="#333333">20000</text><line x1="355.00" y1="495.00" x2="595.00" y2="495.00" stroke="#dddddd" stroke-width="0.5"/><line x1="351.00" y1="456.67" x2="355.00" y2="456.67" stroke="#333333" stroke-width="1"/><text x="349.00" y="459.67" font-family="Arial,sans-serif" font-size="9" text-anchor="end" fill="#333333">25000</text><line x1="355.00" y1="456.67" x2="595.00" y2="456.67" stroke="#dddddd" stroke-width="0.5"/><polygon points="355.00,473.87 355.00,482.84 374.53,493.38 385.96,506.01 394.06,506.35 400.35,518.96 405.49,522.73 409.83,524.50 413.60,527.36 416.91,530.66 419.88,530.66 422.57,534.56 425.02,534.98 427.28,543.57 429.36,544.08 433.13,544.72 434.84,545.09 437.97,548.59 439.41,549.12 442.10,551.83 444.55,551.83 446.81,552.36 449.88,556.47 451.76,557.44 454.37,558.26 456.75,558.30 458.95,559.64 461.63,559.64 464.08,559.74 466.34,560.19 468.93,561.05 471.30,563.07 473.90,566.30 476.28,566.30 478.48,566.84 481.16,567.00 483.62,567.00 485.87,567.05 488.21,567.49 490.83,569.68 493.22,569.68 495.62,573.05 498.01,574.54 500.37,575.45 502.85,580.18 505.27,581.91 507.74,583.93 510.13,586.39 512.54,588.59 514.96,588.71 517.45,589.70 519.82,592.56 522.24,593.68 524.66,594.22 527.15,595.16 529.55,595.26 531.97,595.26 534.40,595.59 536.81,596.51 539.23,597.15 541.65,598.08 544.09,599.10 546.52,599.11 548.94,600.88 551.37,601.42 553.78,601.50 556.21,601.50 558.62,602.20 561.06,602.24 563.49,603.02 565.90,603.11 568.32,603.20 570.76,603.20 573.18,603.25 575.60,603.49 578.02,603.64 580.45,603.76 582.87,603.76 585.30,604.07 587.72,604.09 590.15,604.21 592.57,604.35 594.99,604.35 594.99,604.94 592.57,604.94 590.15,604.94 587.72,604.94 585.30,604.94 582.87,604.94 580.45,604.94 578.02,604.82 575.60,604.81 573.18,604.73 570.76,604.72 568.32,604.72 565.90,604.72 563.49,604.72 561.06,604.72 558.62,604.72 556.21,604.72 553.78,604.60 551.37,604.60 548.94,604.58 546.52,604.55 544.09,604.35 541.65,604.27 539.23,603.61 536.81,603.46 534.40,603.39 531.97,603.39 529.55,603.28 527.15,603.18 524.66,602.54 522.24,602.54 519.82,601.26 517.45,600.99 514.96,600.19 512.54,598.68 510.13,598.35 507.74,597.87 505.27,597.62 502.85,596.21 500.37,594.82 498.01,592.16 495.62,592.16 493.22,592.16 490.83,589.95 488.21,589.65 485.87,589.17 483.62,586.34 481.16,586.07 478.48,584.49 476.28,581.54 473.90,580.18 471.30,578.48 468.93,578.48 466.34,575.15 464.08,574.55 461.63,573.61 458.95,573.61 456.75,573.57 454.37,570.94 451.76,568.04 449.88,568.04 446.81,568.04 444.55,566.95 442.10,566.95 439.41,566.13 437.97,564.06 434.84,563.64 433.13,563.64 429.36,563.64 427.28,563.64 425.02,563.64 422.57,563.64 419.88,554.51 416.91,552.41 413.60,550.85 409.83,550.85 405.49,550.85 400.35,547.18 394.06,544.85 385.96,537.42 374.53,531.72 355.00,520.38 355.00,473.87" fill="#c0392b" fill-opacity="0.18" stroke="none"/><polygon points="355.00,559.35 355.00,559.35 374.53,559.35 385.96,559.35 394.06,559.35 400.35,559.35 405.49,559.35 409.83,559.45 413.60,559.45 416.91,561.07 419.88,561.07 422.57,562.71 425.02,562.71 427.28,564.17 429.36,570.85 433.13,570.85 434.84,571.92 437.97,575.04 439.41,575.39 442.10,579.64 444.55,581.96 446.81,584.21 449.88,585.74 451.76,587.91 454.37,591.38 456.75,591.96 458.95,594.63 461.63,595.79 464.08,595.79 466.34,596.36 468.93,596.36 471.30,596.54 473.90,597.43 476.28,597.48 478.48,598.00 481.16,598.15 483.62,599.20 485.87,599.20 488.21,599.67 490.83,600.99 493.22,601.34 495.62,601.82 498.01,602.25 500.37,602.35 502.85,602.59 505.27,602.59 507.74,602.59 510.13,602.61 512.54,602.85 514.96,602.85 517.45,603.06 519.82,603.25 522.24,603.55 524.66,603.65 527.15,603.70 529.55,603.70 531.97,603.75 534.40,603.75 536.81,603.87 539.23,603.87 541.65,603.87 544.09,603.87 546.52,603.88 548.94,604.20 551.37,604.24 553.78,604.25 556.21,604.25 558.62,604.25 561.06,604.56 563.49,604.56 565.90,604.56 568.32,604.56 570.76,604.56 573.18,604.56 575.60,604.56 578.02,604.56 580.45,604.56 582.87,604.56 585.30,604.56 587.72,604.56 590.15,604.56 592.57,604.56 594.99,604.56 594.99,604.94 592.57,604.94 590.15,604.94 587.72,604.94 585.30,604.94 582.87,604.94 580.45,604.94 578.02,604.94 575.60,604.94 573.18,604.94 570.76,604.94 568.32,604.94 565.90,604.94 563.49,604.94 561.06,604.94 558.62,604.94 556.21,604.94 553.78,604.94 551.37,604.94 548.94,604.94 546.52,604.94 544.09,604.94 541.65,604.94 539.23,604.94 536.81,604.94 534.40,604.94 531.97,604.94 529.55,604.94 527.15,604.94 524.66,604.94 522.24,604.94 519.82,604.94 517.45,604.82 514.96,604.82 512.54,604.81 510.13,604.81 507.74,604.62 505.27,604.41 502.85,604.41 500.37,604.30 498.01,604.01 495.62,603.78 493.22,603.78 490.83,603.61 488.21,603.57 485.87,603.57 483.62,603.57 481.16,603.57 478.48,603.39 476.28,602.57 473.90,602.57 471.30,602.38 468.93,602.38 466.34,602.38 464.08,602.38 461.63,601.47 458.95,601.30 456.75,601.30 454.37,601.30 451.76,599.77 449.88,599.66 446.81,599.45 444.55,597.99 442.10,597.83 439.41,590.38 437.97,590.38 434.84,589.75 433.13,589.75 429.36,586.50 427.28,586.50 425.02,586.16 422.57,584.71 419.88,582.38 416.91,582.38 413.60,580.70 409.83,580.32 405.49,578.72 400.35,576.40 394.06,575.84 385.96,573.84 374.53,573.10 355.00,573.10 355.00,559.35" fill="#2874a6" fill-opacity="0.18" stroke="none"/><polyline points="355.00,473.87 355.00,500.66 374.53,516.09 385.96,524.94 394.06,527.05 400.35,528.26 405.49,534.81 409.83,540.75 413.60,540.78 416.91,545.15 419.88,546.36 422.57,547.74 425.02,548.09 427.28,550.01 429.36,552.49 433.13,552.97 434.84,552.97 437.97,556.00 439.41,557.28 442.10,560.07 444.55,560.96 446.81,560.96 449.88,561.36 451.76,563.39 454.37,563.78 456.75,564.61 458.95,566.69 461.63,567.64 464.08,570.07 466.34,570.66 468.93,571.80 471.30,572.93 473.90,573.60 476.28,573.67 478.48,574.40 481.16,575.85 483.62,577.07 485.87,578.43 488.21,581.05 490.83,581.79 493.22,582.70 495.62,583.83 498.01,584.91 500.37,585.61 502.85,588.60 505.27,590.43 507.74,592.01 510.13,593.73 512.54,595.55 514.96,596.32 517.45,598.05 519.82,598.28 522.24,598.39 524.66,599.44 527.15,599.80 529.55,600.06 531.97,600.76 534.40,600.76 536.81,601.28 539.23,601.78 541.65,601.78 544.09,602.74 546.52,602.90 548.94,603.25 551.37,603.34 553.78,603.51 556.21,603.63 558.62,604.11 561.06,604.14 563.49,604.18 565.90,604.18 568.32,604.18 570.76,604.18 573.18,604.35 575.60,604.41 578.02,604.58 580.45,604.59 582.87,604.59 585.30,604.66 587.72,604.66 590.15,604.72 592.57,604.72 594.99,604.72" fill="none" stroke="#c0392b" stroke-width="1.8"/><polyline points="355.00,559.35 355.00,559.35 374.53,559.59 385.96,560.71 394.06,563.18 400.35,563.85 405.49,567.66 409.83,568.87 413.60,570.81 416.91,574.28 419.88,575.10 422.57,575.76 425.02,576.64 427.28,578.36 429.36,579.35 433.13,579.35 434.84,580.43 437.97,581.83 439.41,582.26 442.10,586.36 444.55,590.76 446.81,592.82 449.88,594.62 451.76,596.03 454.37,596.68 456.75,596.98 458.95,597.99 461.63,598.95 464.08,598.95 466.34,599.39 468.93,599.64 471.30,599.90 473.90,599.98 476.28,601.02 478.48,601.31 481.16,601.85 483.62,602.07 485.87,602.23 488.21,602.59 490.83,602.95 493.22,603.06 495.62,603.33 498.01,603.38 500.37,603.44 502.85,603.50 505.27,603.50 507.74,603.50 510.13,603.65 512.54,603.74 514.96,603.91 517.45,603.91 519.82,604.33 522.24,604.47 524.66,604.48 527.15,604.59 529.55,604.59 531.97,604.59 534.40,604.59 536.81,604.63 539.23,604.63 541.65,604.67 544.09,604.67 546.52,604.72 548.94,604.72 551.37,604.72 553.78,604.72 556.21,604.81 558.62,604.81 561.06,604.81 563.49,604.81 565.90,604.81 568.32,604.81 570.76,604.81 573.18,604.81 575.60,604.81 578.02,604.81 580.45,604.81 582.87,604.81 585.30,604.81 587.72,604.81 590.15,604.81 592.57,604.81 594.99,604.81" fill="none" stroke="#2874a6" stroke-width="1.8"/><text x="589.00" y="594.72" font-family="Arial" font-size="9" fill="#666666" text-anchor="end" dominant-baseline="middle">&#916; 11.6</text><line x1="355.00" y1="610.00" x2="595.00" y2="610.00" stroke="#333333" stroke-width="1"/><line x1="355.00" y1="610.00" x2="355.00" y2="614.00" stroke="#333333" stroke-width="1"/><text x="355.00" y="626.00" font-family="Arial,sans-serif" font-size="10" text-anchor="middle" fill="#333333">1</text><line x1="419.88" y1="610.00" x2="419.88" y2="614.00" stroke="#333333" stroke-width="1"/><text x="419.88" y="626.00" font-family="Arial,sans-serif" font-size="10" text-anchor="middle" fill="#333333">10</text><line x1="484.77" y1="610.00" x2="484.77" y2="614.00" stroke="#333333" stroke-width="1"/><text x="484.77" y="626.00" font-family="Arial,sans-serif" font-size="10" text-anchor="middle" fill="#333333">100</text><line x1="549.65" y1="610.00" x2="549.65" y2="614.00" stroke="#333333" stroke-width="1"/><text x="549.65" y="626.00" font-family="Arial,sans-serif" font-size="10" text-anchor="middle" fill="#333333">1000</text><line x1="595.00" y1="610.00" x2="595.00" y2="614.00" stroke="#333333" stroke-width="1"/><text x="595.00" y="626.00" font-family="Arial,sans-serif" font-size="10" text-anchor="middle" fill="#333333">5000</text><text x="475.00" y="448.67" font-family="Arial,sans-serif" font-size="12" font-weight="bold" text-anchor="middle" fill="#222222">H=5, fc=280</text></g><g><rect x="640.00" y="456.67" width="240.00" height="153.33" fill="white" stroke="none"/><line x1="640.00" y1="456.67" x2="640.00" y2="610.00" stroke="#333333" stroke-width="1"/><line x1="636.00" y1="610.00" x2="640.00" y2="610.00" stroke="#333333" stroke-width="1"/><text x="634.00" y="613.00" font-family="Arial,sans-serif" font-size="9" text-anchor="end" fill="#333333">5000</text><line x1="640.00" y1="610.00" x2="880.00" y2="610.00" stroke="#dddddd" stroke-width="0.5"/><line x1="636.00" y1="571.67" x2="640.00" y2="571.67" stroke="#333333" stroke-width="1"/><text x="634.00" y="574.67" font-family="Arial,sans-serif" font-size="9" text-anchor="end" fill="#333333">10000</text><line x1="640.00" y1="571.67" x2="880.00" y2="571.67" stroke="#dddddd" stroke-width="0.5"/><line x1="636.00" y1="533.33" x2="640.00" y2="533.33" stroke="#333333" stroke-width="1"/><text x="634.00" y="536.33" font-family="Arial,sans-serif" font-size="9" text-anchor="end" fill="#333333">15000</text><line x1="640.00" y1="533.33" x2="880.00" y2="533.33" stroke="#dddddd" stroke-width="0.5"/><line x1="636.00" y1="495.00" x2="640.00" y2="495.00" stroke="#333333" stroke-width="1"/><text x="634.00" y="498.00" font-family="Arial,sans-serif" font-size="9" text-anchor="end" fill="#333333">20000</text><line x1="640.00" y1="495.00" x2="880.00" y2="495.00" stroke="#dddddd" stroke-width="0.5"/><line x1="636.00" y1="456.67" x2="640.00" y2="456.67" stroke="#333333" stroke-width="1"/><text x="634.00" y="459.67" font-family="Arial,sans-serif" font-size="9" text-anchor="end" fill="#333333">25000</text><line x1="640.00" y1="456.67" x2="880.00" y2="456.67" stroke="#dddddd" stroke-width="0.5"/><polygon points="640.00,470.18 640.00,479.25 659.53,489.96 670.96,502.69 679.06,503.20 685.35,515.40 690.49,519.54 694.83,521.14 698.60,523.88 701.91,527.16 704.88,527.16 707.57,531.22 710.02,531.85 712.28,540.31 714.36,540.58 718.13,541.42 719.84,541.72 722.97,545.41 724.41,546.13 727.10,548.83 729.55,548.83 731.81,549.35 734.88,553.54 736.76,554.57 739.37,555.44 741.75,555.44 743.95,556.68 746.63,556.68 749.08,556.81 751.34,557.20 753.93,558.17 756.30,560.22 758.90,563.75 761.28,563.75 763.48,564.10 766.16,564.34 768.62,564.34 770.87,564.41 773.21,564.81 775.83,567.12 778.22,567.12 780.62,571.12 783.01,572.21 785.37,576.63 787.85,578.33 790.27,580.15 792.74,583.53 795.13,587.02 797.54,588.61 799.96,588.71 802.45,592.24 804.82,592.57 807.24,592.57 809.66,593.43 812.15,593.86 814.55,594.48 816.97,594.49 819.40,596.45 821.81,596.55 824.23,597.19 826.65,597.87 829.09,598.87 831.52,599.19 833.94,600.44 836.37,600.63 838.78,601.06 841.21,601.06 843.62,601.27 846.06,601.43 848.49,602.04 850.90,602.06 853.32,602.13 855.76,602.28 858.18,602.28 860.60,602.28 863.02,602.29 865.45,602.53 867.87,602.53 870.30,602.97 872.72,602.97 875.15,602.98 877.57,602.98 879.99,602.98 879.99,603.74 877.57,603.74 875.15,603.62 872.72,603.62 870.30,603.62 867.87,603.62 865.45,603.62 863.02,603.62 860.60,603.61 858.18,603.53 855.76,603.52 853.32,603.39 850.90,603.39 848.49,603.38 846.06,603.38 843.62,603.38 841.21,603.37 838.78,603.34 836.37,603.34 833.94,603.34 831.52,603.14 829.09,603.14 826.65,602.58 824.23,602.46 821.81,602.27 819.40,602.20 816.97,602.20 814.55,601.98 812.15,601.98 809.66,601.53 807.24,601.53 804.82,600.31 802.45,599.99 799.96,599.99 797.54,598.80 795.13,596.69 792.74,596.42 790.27,596.24 787.85,594.77 785.37,593.37 783.01,590.97 780.62,590.88 778.22,590.84 775.83,589.27 773.21,587.92 770.87,587.40 768.62,584.41 766.16,584.07 763.48,582.59 761.28,579.86 758.90,578.71 756.30,576.42 753.93,576.42 751.34,574.04 749.08,572.78 746.63,572.78 743.95,571.93 741.75,571.09 739.37,568.52 736.76,565.55 734.88,565.55 731.81,565.36 729.55,564.61 727.10,564.61 724.41,563.66 722.97,563.12 719.84,560.96 718.13,560.96 714.36,560.96 712.28,560.96 710.02,560.96 707.57,560.96 704.88,551.57 701.91,549.34 698.60,547.95 694.83,547.95 690.49,547.95 685.35,544.21 679.06,541.75 670.96,534.07 659.53,528.54 640.00,516.95 640.00,470.18" fill="#c0392b" fill-opacity="0.18" stroke="none"/><polygon points="640.00,557.00 640.00,557.00 659.53,557.00 670.96,557.00 679.06,557.00 685.35,557.00 690.49,557.00 694.83,557.00 698.60,557.00 701.91,558.87 704.88,558.87 707.57,558.87 710.02,558.87 712.28,560.46 714.36,561.41 718.13,568.74 719.84,569.56 722.97,572.84 724.41,573.32 727.10,575.92 729.55,578.25 731.81,584.12 734.88,584.64 736.76,586.58 739.37,587.45 741.75,590.35 743.95,593.19 746.63,593.72 749.08,593.72 751.34,594.08 753.93,594.97 756.30,595.18 758.90,596.24 761.28,596.55 763.48,596.77 766.16,597.68 768.62,598.26 770.87,598.49 773.21,599.12 775.83,600.07 778.22,600.14 780.62,600.52 783.01,600.61 785.37,600.96 787.85,601.14 790.27,601.31 792.74,601.31 795.13,601.31 797.54,601.31 799.96,601.31 802.45,601.72 804.82,602.04 807.24,602.34 809.66,602.37 812.15,602.37 814.55,602.49 816.97,602.55 819.40,602.55 821.81,602.60 824.23,602.60 826.65,602.87 829.09,602.87 831.52,602.94 833.94,603.03 836.37,603.08 838.78,603.33 841.21,603.34 843.62,603.35 846.06,603.39 848.49,603.39 850.90,603.39 853.32,603.39 855.76,603.39 858.18,603.39 860.60,603.39 863.02,603.39 865.45,603.39 867.87,603.39 870.30,603.39 872.72,603.39 875.15,603.39 877.57,603.39 879.99,603.39 879.99,603.74 877.57,603.74 875.15,603.74 872.72,603.74 870.30,603.74 867.87,603.74 865.45,603.74 863.02,603.74 860.60,603.74 858.18,603.74 855.76,603.74 853.32,603.74 850.90,603.74 848.49,603.74 846.06,603.74 843.62,603.74 841.21,603.74 838.78,603.74 836.37,603.74 833.94,603.74 831.52,603.74 829.09,603.74 826.65,603.74 824.23,603.74 821.81,603.74 819.40,603.74 816.97,603.74 814.55,603.74 812.15,603.74 809.66,603.74 807.24,603.74 804.82,603.74 802.45,603.62 799.96,603.62 797.54,603.61 795.13,603.61 792.74,603.40 790.27,603.40 787.85,603.40 785.37,603.18 783.01,603.09 780.62,602.81 778.22,602.55 775.83,602.40 773.21,602.37 770.87,602.30 768.62,602.30 766.16,602.30 763.48,602.18 761.28,601.88 758.90,601.88 756.30,601.88 753.93,601.38 751.34,601.38 749.08,601.38 746.63,600.15 743.95,600.01 741.75,600.01 739.37,600.01 736.76,599.23 734.88,599.02 731.81,598.16 729.55,596.38 727.10,593.02 724.41,588.86 722.97,588.86 719.84,588.11 718.13,588.11 714.36,584.65 712.28,584.65 710.02,584.24 707.57,582.85 704.88,580.45 701.91,580.45 698.60,578.76 694.83,578.42 690.49,576.61 685.35,574.15 679.06,573.59 670.96,571.54 659.53,570.83 640.00,570.83 640.00,557.00" fill="#2874a6" fill-opacity="0.18" stroke="none"/><polyline points="640.00,470.18 640.00,496.97 659.53,512.68 670.96,521.60 679.06,523.90 685.35,524.72 690.49,531.30 694.83,537.76 698.60,537.86 701.91,541.90 704.88,543.37 707.57,544.70 710.02,544.98 712.28,547.22 714.36,549.52 718.13,550.05 719.84,550.05 722.97,553.09 724.41,554.44 727.10,557.22 729.55,558.14 731.81,558.14 734.88,558.56 736.76,560.71 739.37,561.65 741.75,562.76 743.95,565.00 746.63,565.36 749.08,568.18 751.34,568.58 753.93,569.96 756.30,570.89 758.90,572.12 761.28,572.82 763.48,573.39 766.16,573.88 768.62,576.32 770.87,577.02 773.21,579.25 775.83,579.98 778.22,581.29 780.62,582.11 783.01,583.48 785.37,584.40 787.85,586.91 790.27,589.85 792.74,590.94 795.13,592.84 797.54,594.50 799.96,595.25 802.45,596.74 804.82,597.13 807.24,598.04 809.66,598.42 812.15,598.42 814.55,598.69 816.97,600.38 819.40,600.38 821.81,600.84 824.23,601.28 826.65,601.36 829.09,601.41 831.52,601.50 833.94,602.07 836.37,602.07 838.78,602.13 841.21,602.13 843.62,602.50 846.06,602.58 848.49,602.61 850.90,602.94 853.32,602.97 855.76,602.97 858.18,603.14 860.60,603.24 863.02,603.29 865.45,603.37 867.87,603.37 870.30,603.38 872.72,603.38 875.15,603.38 877.57,603.38 879.99,603.39" fill="none" stroke="#c0392b" stroke-width="1.8"/><polyline points="640.00,557.00 640.00,557.00 659.53,557.30 670.96,558.41 679.06,560.87 685.35,561.47 690.49,565.30 694.83,566.77 698.60,568.80 701.91,572.06 704.88,572.85 707.57,573.55 710.02,574.54 712.28,576.25 714.36,577.29 718.13,578.20 719.84,578.74 722.97,579.81 724.41,580.30 727.10,584.36 729.55,589.19 731.81,591.59 734.88,593.16 736.76,594.26 739.37,595.90 741.75,596.41 743.95,597.02 746.63,597.71 749.08,597.71 751.34,598.06 753.93,598.43 756.30,598.92 758.90,599.24 761.28,599.92 763.48,600.14 766.16,600.91 768.62,601.19 770.87,601.20 773.21,601.46 775.83,601.85 778.22,601.87 780.62,602.17 783.01,602.19 785.37,602.25 787.85,602.29 790.27,602.29 792.74,602.33 795.13,602.45 797.54,602.52 799.96,602.59 802.45,602.59 804.82,602.97 807.24,603.16 809.66,603.16 812.15,603.38 814.55,603.38 816.97,603.38 819.40,603.38 821.81,603.43 824.23,603.43 826.65,603.46 829.09,603.46 831.52,603.56 833.94,603.61 836.37,603.61 838.78,603.61 841.21,603.61 843.62,603.61 846.06,603.61 848.49,603.61 850.90,603.61 853.32,603.61 855.76,603.61 858.18,603.61 860.60,603.61 863.02,603.61 865.45,603.61 867.87,603.61 870.30,603.61 872.72,603.61 875.15,603.61 877.57,603.61 879.99,603.61" fill="none" stroke="#2874a6" stroke-width="1.8"/><text x="874.00" y="593.39" font-family="Arial" font-size="9" fill="#666666" text-anchor="end" dominant-baseline="middle">&#916; 28.4</text><line x1="640.00" y1="610.00" x2="880.00" y2="610.00" stroke="#333333" stroke-width="1"/><line x1="640.00" y1="610.00" x2="640.00" y2="614.00" stroke="#333333" stroke-width="1"/><text x="640.00" y="626.00" font-family="Arial,sans-serif" font-size="10" text-anchor="middle" fill="#333333">1</text><line x1="704.88" y1="610.00" x2="704.88" y2="614.00" stroke="#333333" stroke-width="1"/><text x="704.88" y="626.00" font-family="Arial,sans-serif" font-size="10" text-anchor="middle" fill="#333333">10</text><line x1="769.77" y1="610.00" x2="769.77" y2="614.00" stroke="#333333" stroke-width="1"/><text x="769.77" y="626.00" font-family="Arial,sans-serif" font-size="10" text-anchor="middle" fill="#333333">100</text><line x1="834.65" y1="610.00" x2="834.65" y2="614.00" stroke="#333333" stroke-width="1"/><text x="834.65" y="626.00" font-family="Arial,sans-serif" font-size="10" text-anchor="middle" fill="#333333">1000</text><line x1="880.00" y1="610.00" x2="880.00" y2="614.00" stroke="#333333" stroke-width="1"/><text x="880.00" y="626.00" font-family="Arial,sans-serif" font-size="10" text-anchor="middle" fill="#333333">5000</text><text x="760.00" y="448.67" font-family="Arial,sans-serif" font-size="12" font-weight="bold" text-anchor="middle" fill="#222222">H=5, fc=320</text></g><rect x="310.00" y="667.00" width="22" height="10" fill="#c0392b" fill-opacity="0.35" stroke="#c0392b" stroke-width="1.8"/><text x="338.00" y="676.00" font-family="Arial,sans-serif" font-size="12" fill="#222222">HCA (median +/- p10-p90)</text><rect x="480.00" y="667.00" width="22" height="10" fill="#2874a6" fill-opacity="0.35" stroke="#2874a6" stroke-width="1.8"/><text x="508.00" y="676.00" font-family="Arial,sans-serif" font-size="12" fill="#222222">BA (median +/- p10-p90)</text></svg>