<?xml version="1.0" encoding="UTF-8"?><svg xmlns="http://www.w3.org/2000/svg" width="900" height="700" viewBox="0 0 900 700"><rect width="900" height="700" fill="white"/><text x="450.00" y="20" font-family="Arial,sans-serif" font-size="15" font-weight="bold" text-anchor="middle" fill="#111111">Convergence Trajectories: HCA vs BA (30 trials, 5000 iterations, deterministic seeds)</text><text x="450.00" y="635.00" font-family="Arial,sans-serif" font-size="12" text-anchor="middle" fill="#222222">Iteration (log scale)</text><text x="15" y="325.00" font-family="Arial,sans-serif" font-size="12" text-anchor="middle" fill="#222222" transform="rotate(-90 15 325.00)">Best cost found (baht)</text><g><rect x="70.00" y="40.00" width="240.00" height="153.33" fill="white" stroke="none"/><line x1="70.00" y1="40.00" x2="70.00" y2="193.33" stroke="#333333" stroke-width="1"/><line x1="66.00" y1="193.33" x2="70.00" y2="193.33" stroke="#333333" stroke-width="1"/><text x="64.00" y="196.33" font-family="Arial,sans-serif" font-size="9" text-anchor="end" fill="#333333">2460</text><line x1="70.00" y1="193.33" x2="310.00" y2="193.33" stroke="#dddddd" stroke-width="0.5"/><line x1="66.00" y1="155.00" x2="70.00" y2="155.00" stroke="#333333" stroke-width="1"/><text x="64.00" y="158.00" font-family="Arial,sans-serif" font-size="9" text-anchor="end" fill="#333333">4599</text><line x1="70.00" y1="155.00" x2="310.00" y2="155.00" stroke="#dddddd" stroke-width="0.5"/><line x1="66.00" y1="116.67" x2="70.00" y2="116.67" stroke="#333333" stroke-width="1"/><text x="64.00" y="119.67" font-family="Arial,sans-serif" font-size="9" text-anchor="end" fill="#333333">6737</text><line x1="70.00" y1="116.67" x2="310.00" y2="116.67" stroke="#dddddd" stroke-width="0.5"/><line x1="66.00" y1="78.33" x2="70.00" y2="78.33" stroke="#333333" stroke-width="1"/><text x="64.00" y="81.33" font-family="Arial,sans-serif" font-size="9" text-anchor="end" fill="#333333">8875</text><line x1="70.00" y1="78.33" x2="310.00" y2="78.33" stroke="#dddddd" stroke-width="0.5"/><line x1="66.00" y1="40.00" x2="70.00" y2="40.00" stroke="#333333" stroke-width="1"/><text x="64.00" y="43.00" font-family="Arial,sans-serif" font-size="9" text-anchor="end" fill="#333333">11014</text><line x1="70.00" y1="40.00" x2="310.00" y2="40.00" stroke="#dddddd" stroke-width="0.5"/><polygon points="70.00,46.97 70.00,46.97 89.53,46.97 100.96,46.97 109.06,73.45 115.35,76.55 120.49,83.08 124.83,98.25 128.60,103.53 131.91,103.53 134.88,123.63 137.57,133.97 140.02,134.36 142.28,139.27 144.36,139.45 148.13,148.43 149.84,152.85 152.97,155.09 154.41,155.89 157.10,157.79 159.55,158.05 161.81,161.41 164.88,161.65 166.76,163.50 169.37,164.83 171.75,166.37 173.95,166.49 176.63,167.93 179.08,168.52 181.34,168.52 183.93,171.17 186.30,172.53 188.90,174.73 191.28,174.92 193.48,175.52 196.16,176.64 198.62,179.38 200.87,180.34 203.21,180.61 205.83,180.61 208.22,180.81 210.62,180.98 213.01,181.94 215.37,181.94 217.85,182.69 220.27,183.12 222.74,183.92 225.13,184.26 227.54,184.45 229.96,184.45 232.45,184.65 234.82,184.93 237.24,184.93 239.66,185.54 242.15,185.84 244.55,186.02 246.97,186.33 249.40,186.33 251.81,186.33 254.23,186.36 256.65,186.36 259.09,186.36 261.52,186.36 263.94,186.36 266.37,186.36 268.78,186.36 271.21,186.36 273.62,186.36 276.06,186.36 278.49,186.36 280.90,186.36 283.32,186.36 285.76,186.36 288.18,186.36 290.60,186.36 293.02,186.36 295.45,186.36 297.87,186.36 300.30,186.36 302.72,186.36 305.15,186.36 307.57,186.36 309.99,186.36 309.99,186.36 307.57,186.36 305.15,186.36 302.72,186.36 300.30,186.36 297.87,186.36 295.45,186.36 293.02,186.36 290.60,186.36 288.18,186.36 285.76,186.36 283.32,186.36 280.90,186.36 278.49,186.36 276.06,186.36 273.62,186.36 271.21,186.36 268.78,186.36 266.37,186.36 263.94,186.36 261.52,186.36 259.09,186.36 256.65,186.36 254.23,186.36 251.81,186.36 249.40,186.36 246.97,186.36 244.55,186.36 242.15,186.36 239.66,186.36 237.24,186.36 234.82,186.36 232.45,186.36 229.96,186.36 227.54,186.36 225.13,186.36 222.74,186.36 220.27,186.36 217.85,186.36 215.37,186.36 213.01,186.12 210.62,185.99 208.22,185.61 205.83,185.37 203.21,185.37 200.87,185.37 198.62,184.91 196.16,184.91 193.48,183.85 191.28,183.78 188.90,183.78 186.30,183.52 183.93,183.52 181.34,180.74 179.08,180.61 176.63,180.61 173.95,180.61 171.75,180.61 169.37,180.37 166.76,180.30 164.88,179.56 161.81,179.56 159.55,178.49 157.10,177.16 154.41,176.69 152.97,173.64 149.84,173.64 148.13,172.55 144.36,168.60 142.28,168.29 140.02,164.14 137.57,163.43 134.88,161.63 131.91,161.63 128.60,153.91 124.83,153.87 120.49,149.21 115.35,141.47 109.06,134.21 100.96,124.55 89.53,112.28 70.00,89.66 70.00,46.97" fill="#c0392b" fill-opacity="0.18" stroke="none"/><polygon points="70.00,149.61 70.00,149.61 89.53,149.61 100.96,149.61 109.06,150.60 115.35,150.60 120.49,150.93 124.83,154.07 128.60,157.14 131.91,157.14 134.88,164.87 137.57,164.87 140.02,164.87 142.28,167.67 144.36,168.33 148.13,168.92 149.84,168.92 152.97,170.56 154.41,170.56 157.10,175.38 159.55,175.38 161.81,178.66 164.88,179.12 166.76,179.12 169.37,180.14 171.75,180.14 173.95,181.24 176.63,181.86 179.08,182.27 181.34,182.32 183.93,182.69 186.30,184.18 188.90,184.22 191.28,184.33 193.48,184.88 196.16,185.52 198.62,185.56 200.87,185.56 203.21,185.56 205.83,185.64 208.22,185.83 210.62,186.03 213.01,186.05 215.37,186.36 217.85,186.36 220.27,186.36 222.74,186.36 225.13,186.36 227.54,186.36 229.96,186.36 232.45,186.36 234.82,186.36 237.24,186.36 239.66,186.36 242.15,186.36 244.55,186.36 246.97,186.36 249.40,186.36 251.81,186.36 254.23,186.36 256.65,186.36 259.09,186.36 261.52,186.36 263.94,186.36 266.37,186.36 268.78,186.36 271.21,186.36 273.62,186.36 276.06,186.36 278.49,186.36 280.90,186.36 283.32,186.36 285.76,186.36 288.18,186.36 290.60,186.36 293.02,186.36 295.45,186.36 297.87,186.36 300.30,186.36 302.72,186.36 305.15,186.36 307.57,186.36 309.99,186.36 309.99,186.36 307.57,186.36 305.15,186.36 302.72,186.36 300.30,186.36 297.87,186.36 295.45,186.36 293.02,186.36 290.60,186.36 288.18,186.36 285.76,186.36 283.32,186.36 280.90,186.36 278.49,186.36 276.06,186.36 273.62,186.36 271.21,186.36 268.78,186.36 266.37,186.36 263.94,186.36 261.52,186.36 259.09,186.36 256.65,186.36 254.23,186.36 251.81,186.36 249.40,186.36 246.97,186.36 244.55,186.36 242.15,186.36 239.66,186.36 237.24,186.36 234.82,186.36 232.45,186.36 229.96,186.36 227.54,186.36 225.13,186.36 222.74,186.36 220.27,186.36 217.85,186.36 215.37,186.36 213.01,186.36 210.62,186.36 208.22,186.36 205.83,186.36 203.21,186.36 200.87,186.36 198.62,186.36 196.16,186.36 193.48,186.36 191.28,186.36 188.90,186.36 186.30,186.36 183.93,186.36 181.34,186.36 179.08,186.36 176.63,186.36 173.95,186.36 171.75,186.36 169.37,186.36 166.76,186.36 164.88,185.99 161.81,185.99 159.55,185.47 157.10,185.20 154.41,185.20 152.97,184.83 149.84,184.36 148.13,183.81 144.36,183.50 142.28,181.33 140.02,181.33 137.57,181.33 134.88,180.92 131.91,180.55 128.60,178.77 124.83,176.58 120.49,176.58 115.35,176.08 109.06,175.50 100.96,171.55 89.53,168.94 70.00,168.13 70.00,149.61" fill="#2874a6" fill-opacity="0.18" stroke="none"/><polyline points="70.00,46.97 70.00,46.97 89.53,83.67 100.96,96.30 109.06,116.56 115.35,120.50 120.49,129.89 124.83,135.45 128.60,141.28 131.91,145.71 134.88,148.44 137.57,149.65 140.02,152.68 142.28,155.39 144.36,158.07 148.13,161.41 149.84,165.79 152.97,166.37 154.41,166.37 157.10,168.06 159.55,169.90 161.81,170.30 164.88,171.04 166.76,171.52 169.37,171.52 171.75,172.03 173.95,173.73 176.63,175.87 179.08,176.77 181.34,177.25 183.93,177.63 186.30,179.12 188.90,179.23 191.28,179.81 193.48,180.15 196.16,180.94 198.62,182.10 200.87,182.31 203.21,182.67 205.83,182.79 208.22,183.31 210.62,184.05 213.01,184.18 215.37,184.60 217.85,185.01 220.27,185.15 222.74,185.29 225.13,185.69 227.54,185.94 229.96,185.96 232.45,186.08 234.82,186.36 237.24,186.36 239.66,186.36 242.15,186.36 244.55,186.36 246.97,186.36 249.40,186.36 251.81,186.36 254.23,186.36 256.65,186.36 259.09,186.36 261.52,186.36 263.94,186.36 266.37,186.36 268.78,186.36 271.21,186.36 273.62,186.36 276.06,186.36 278.49,186.36 280.90,186.36 283.32,186.36 285.76,186.36 288.18,186.36 290.60,186.36 293.02,186.36 295.45,186.36 297.87,186.36 300.30,186.36 302.72,186.36 305.15,186.36 307.57,186.36 309.99,186.36" fill="none" stroke="#c0392b" stroke-width="1.8"/><polyline points="70.00,149.61 70.00,150.17 89.53,157.10 100.96,159.80 109.06,160.71 115.35,162.56 120.49,163.31 124.83,166.29 128.60,168.61 131.91,168.89 134.88,169.49 137.57,171.32 140.02,173.69 142.28,173.85 144.36,175.90 148.13,176.70 149.84,178.03 152.97,178.03 154.41,178.80 157.10,181.18 159.55,182.91 161.81,182.91 164.88,183.27 166.76,183.29 169.37,183.94 171.75,184.76 173.95,184.90 176.63,185.05 179.08,185.43 181.34,185.50 183.93,185.61 186.30,185.74 188.90,186.10 191.28,186.36 193.48,186.36 196.16,186.36 198.62,186.36 200.87,186.36 203.21,186.36 205.83,186.36 208.22,186.36 210.62,186.36 213.01,186.36 215.37,186.36 217.85,186.36 220.27,186.36 222.74,186.36 225.13,186.36 227.54,186.36 229.96,186.36 232.45,186.36 234.82,186.36 237.24,186.36 239.66,186.36 242.15,186.36 244.55,186.36 246.97,186.36 249.40,186.36 251.81,186.36 254.23,186.36 256.65,186.36 259.09,186.36 261.52,186.36 263.94,186.36 266.37,186.36 268.78,186.36 271.21,186.36 273.62,186.36 276.06,186.36 278.49,186.36 280.90,186.36 283.32,186.36 285.76,186.36 288.18,186.36 290.60,186.36 293.02,186.36 295.45,186.36 297.87,186.36 300.30,186.36 302.72,186.36 305.15,186.36 307.57,186.36 309.99,186.36" fill="none" stroke="#2874a6" stroke-width="1.8"/><line x1="70.00" y1="193.33" x2="310.00" y2="193.33" stroke="#333333" stroke-width="1"/><line x1="70.00" y1="193.33" x2="70.00" y2="197.33" stroke="#333333" stroke-width="1"/><text x="70.00" y="209.33" font-family="Arial,sans-serif" font-size="10" text-anchor="middle" fill="#333333">1</text><line x1="134.88" y1="193.33" x2="134.88" y2="197.33" stroke="#333333" stroke-width="1"/><text x="134.88" y="209.33" font-family="Arial,sans-serif" font-size="10" text-anchor="middle" fill="#333333">10</text><line x1="199.77" y1="193.33" x2="199.77" y2="197.33" stroke="#333333" stroke-width="1"/><text x="199.77" y="209.33" font-family="Arial,sans-serif" font-size="10" text-anchor="middle" fill="#333333">100</text><line x1="264.65" y1="193.33" x2="264.65" y2="197.33" stroke="#333333" stroke-width="1"/><text x="264.65" y="209.33" font-family="Arial,sans-serif" font-size="10" text-anchor="middle" fill="#333333">1000</text><line x1="310.00" y1="193.33" x2="310.00" y2="197.33" stroke="#333333" stroke-width="1"/><text x="310.00" y="209.33" font-family="Arial,sans-serif" font-size="10" text-anchor="middle" fill="#333333">5000</text><text x="190.00" y="32.00" font-family="Arial,sans-serif" font-size="12" font-weight="bold" text-anchor="middle" fill="#222222">H=3, fc=240</text></g><g><rect x="355.00" y="40.00" width="240.00" height="153.33" fill="white" stroke="none"/><line x1="355.00" y1="40.00" x2="355.00" y2="193.33" stroke="#333333" stroke-width="1"/><line x1="351.00" y1="193.33" x2="355.00" y2="193.33" stroke="#333333" stroke-width="1"/><text x="349.00" y="196.33" font-family="Arial,sans-serif" font-size="9" text-anchor="end" fill="#333333">2550</text><line x1="355.00" y1="193.33" x2="595.00" y2="193.33" stroke="#dddddd" stroke-width="0.5"/><line x1="351.00" y1="155.00" x2="355.00" y2="155.00" stroke="#333333" stroke-width="1"/><text x="349.00" y="158.00" font-family="Arial,sans-serif" font-size="9" text-anchor="end" fill="#333333">4709</text><line x1="355.00" y1="155.00" x2="595.00" y2="155.00" stroke="#dddddd" stroke-width="0.5"/><line x1="351.00" y1="116.67" x2="355.00" y2="116.67" stroke="#333333" stroke-width="1"/><text x="349.00" y="119.67" font-family="Arial,sans-serif" font-size="9" text-anchor="end" fill="#333333">6868</text><line x1="355.00" y1="116.67" x2="595.00" y2="116.67" stroke="#dddddd" stroke-width="0.5"/><line x1="351.00" y1="78.33" x2="355.00" y2="78.33" stroke="#333333" stroke-width="1"/><text x="349.00" y="81.33" font-family="Arial,sans-serif" font-size="9" text-anchor="end" fill="#333333">9027</text><line x1="355.00" y1="78.33" x2="595.00" y2="78.33" stroke="#dddddd" stroke-width="0.5"/><line x1="351.00" y1="40.00" x2="355.00" y2="40.00" stroke="#333333" stroke-width="1"/><text x="349.00" y="43.00" font-family="Arial,sans-serif" font-size="9" text-anchor="end" fill="#333333">11186</text><line x1="355.00" y1="40.00" x2="595.00" y2="40.00" stroke="#dddddd" stroke-width="0.5"/><polygon points="355.00,46.97 355.00,46.97 374.53,46.97 385.96,46.97 394.06,73.58 400.35,76.43 405.49,83.12 409.83,98.30 413.60,103.52 416.91,103.52 419.88,123.02 422.57,133.61 425.02,134.12 427.28,139.07 429.36,139.20 433.13,148.01 434.84,152.26 437.97,154.62 439.41,155.44 442.10,157.37 444.55,157.56 446.81,160.85 449.88,161.09 451.76,163.16 454.37,164.43 456.75,165.96 458.95,166.03 461.63,167.50 464.08,168.10 466.34,168.10 468.93,171.46 471.30,173.07 473.90,174.80 476.28,174.95 478.48,175.38 481.16,176.51 483.62,177.52 485.87,179.55 488.21,180.45 490.83,180.45 493.22,180.86 495.62,180.93 498.01,181.97 500.37,181.99 502.85,182.70 505.27,183.07 507.74,183.94 510.13,184.28 512.54,184.47 514.96,184.47 517.45,184.67 519.82,184.94 522.24,184.94 524.66,185.55 527.15,185.84 529.55,186.02 531.97,186.33 534.40,186.33 536.81,186.33 539.23,186.36 541.65,186.36 544.09,186.36 546.52,186.36 548.94,186.36 551.37,186.36 553.78,186.36 556.21,186.36 558.62,186.36 561.06,186.36 563.49,186.36 565.90,186.36 568.32,186.36 570.76,186.36 573.18,186.36 575.60,186.36 578.02,186.36 580.45,186.36 582.87,186.36 585.30,186.36 587.72,186.36 590.15,186.36 592.57,186.36 594.99,186.36 594.99,186.36 592.57,186.36 590.15,186.36 587.72,186.36 585.30,186.36 582.87,186.36 580.45,186.36 578.02,186.36 575.60,186.36 573.18,186.36 570.76,186.36 568.32,186.36 565.90,186.36 563.49,186.36 561.06,186.36 558.62,186.36 556.21,186.36 553.78,186.36 551.37,186.36 548.94,186.36 546.52,186.36 544.09,186.36 541.65,186.36 539.23,186.36 536.81,186.36 534.40,186.36 531.97,186.36 529.55,186.36 527.15,186.36 524.66,186.36 522.24,186.36 519.82,186.36 517.45,186.36 514.96,186.36 512.54,186.36 510.13,186.36 507.74,186.36 505.27,186.36 502.85,186.36 500.37,186.36 498.01,186.36 495.62,186.13 493.22,186.13 490.83,185.62 488.21,185.62 485.87,185.62 483.62,185.60 481.16,184.92 478.48,183.87 476.28,183.80 473.90,183.80 471.30,183.44 468.93,183.44 466.34,180.64 464.08,179.77 461.63,179.77 458.95,179.77 456.75,179.56 454.37,179.53 451.76,179.53 449.88,179.53 446.81,179.53 444.55,178.36 442.10,176.64 439.41,175.25 437.97,172.22 434.84,172.22 433.13,169.74 429.36,168.26 427.28,167.85 425.02,163.73 422.57,163.15 419.88,161.42 416.91,161.42 413.60,153.56 409.83,153.51 405.49,148.75 400.35,141.24 394.06,134.07 385.96,124.15 374.53,112.13 355.00,89.26 355.00,46.97" fill="#c0392b" fill-opacity="0.18" stroke="none"/><polygon points="355.00,149.63 355.00,149.63 374.53,149.63 385.96,149.63 394.06,150.91 400.35,150.91 405.49,151.07 409.83,154.17 413.60,157.34 416.91,157.34 419.88,164.56 422.57,164.56 425.02,164.56 427.28,167.42 429.36,168.04 433.13,168.82 434.84,168.82 437.97,170.51 439.41,170.51 442.10,175.46 444.55,175.46 446.81,178.74 449.88,179.19 451.76,179.19 454.37,180.20 456.75,180.20 458.95,181.29 461.63,181.91 464.08,182.21 466.34,182.35 468.93,182.73 471.30,184.20 473.90,184.24 476.28,184.35 478.48,184.89 481.16,185.53 483.62,185.57 485.87,185.57 488.21,185.57 490.83,185.65 493.22,185.83 495.62,186.04 498.01,186.05 500.37,186.36 502.85,186.36 505.27,186.36 507.74,186.36 510.13,186.36 512.54,186.36 514.96,186.36 517.45,186.36 519.82,186.36 522.24,186.36 524.66,186.36 527.15,186.36 529.55,186.36 531.97,186.36 534.40,186.36 536.81,186.36 539.23,186.36 541.65,186.36 544.09,186.36 546.52,186.36 548.94,186.36 551.37,186.36 553.78,186.36 556.21,186.36 558.62,186.36 561.06,186.36 563.49,186.36 565.90,186.36 568.32,186.36 570.76,186.36 573.18,186.36 575.60,186.36 578.02,186.36 580.45,186.36 582.87,186.36 585.30,186.36 587.72,186.36 590.15,186.36 592.57,186.36 594.99,186.36 594.99,186.36 592.57,186.36 590.15,186.36 587.72,186.36 585.30,186.36 582.87,186.36 580.45,186.36 578.02,186.36 575.60,186.36 573.18,186.36 570.76,186.36 568.32,186.36 565.90,186.36 563.49,186.36 561.06,186.36 558.62,186.36 556.21,186.36 553.78,186.36 551.37,186.36 548.94,186.36 546.52,186.36 544.09,186.36 541.65,186.36 539.23,186.36 536.81,186.36 534.40,186.36 531.97,186.36 529.55,186.36 527.15,186.36 524.66,186.36 522.24,186.36 519.82,186.36 517.45,186.36 514.96,186.36 512.54,186.36 510.13,186.36 507.74,186.36 505.27,186.36 502.85,186.36 500.37,186.36 498.01,186.36 495.62,186.36 493.22,186.36 490.83,186.36 488.21,186.36 485.87,186.36 483.62,186.36 481.16,186.36 478.48,186.36 476.28,186.36 473.90,186.36 471.30,186.36 468.93,186.36 466.34,186.36 464.08,186.36 461.63,186.36 458.95,186.36 456.75,186.36 454.37,186.36 451.76,186.36 449.88,185.99 446.81,185.99 444.55,185.47 442.10,185.21 439.41,185.21 437.97,184.85 434.84,184.38 433.13,183.83 429.36,183.53 427.28,182.86 425.02,182.86 422.57,182.86 419.88,181.79 416.91,180.85 413.60,180.85 409.83,176.66 405.49,176.66 400.35,176.18 394.06,175.60 385.96,171.59 374.53,168.88 355.00,168.05 355.00,149.63" fill="#2874a6" fill-opacity="0.18" stroke="none"/><polyline points="355.00,46.97 355.00,46.97 374.53,83.44 385.96,96.20 394.06,116.18 400.35,120.29 405.49,129.57 409.83,134.77 413.60,139.96 416.91,145.02 419.88,148.00 422.57,149.24 425.02,152.17 427.28,155.01 429.36,157.65 433.13,161.18 434.84,165.76 437.97,166.17 439.41,166.17 442.10,167.74 444.55,169.63 446.81,170.08 449.88,170.84 451.76,171.23 454.37,171.23 456.75,171.84 458.95,173.49 461.63,175.81 464.08,176.28 466.34,176.59 468.93,176.85 471.30,178.28 473.90,179.17 476.28,179.81 478.48,180.15 481.16,180.90 483.62,182.05 485.87,182.29 488.21,182.62 490.83,182.79 493.22,183.24 495.62,184.07 498.01,184.20 500.37,184.62 502.85,185.03 505.27,185.16 507.74,185.30 510.13,185.89 512.54,185.97 514.96,186.02 517.45,186.23 519.82,186.36 522.24,186.36 524.66,186.36 527.15,186.36 529.55,186.36 531.97,186.36 534.40,186.36 536.81,186.36 539.23,186.36 541.65,186.36 544.09,186.36 546.52,186.36 548.94,186.36 551.37,186.36 553.78,186.36 556.21,186.36 558.62,186.36 561.06,186.36 563.49,186.36 565.90,186.36 568.32,186.36 570.76,186.36 573.18,186.36 575.60,186.36 578.02,186.36 580.45,186.36 582.87,186.36 585.30,186.36 587.72,186.36 590.15,186.36 592.57,186.36 594.99,186.36" fill="none" stroke="#c0392b" stroke-width="1.8"/><polyline points="355.00,149.63 355.00,150.19 374.53,157.05 385.96,159.74 394.06,160.79 400.35,162.22 405.49,163.23 409.83,166.20 413.60,168.67 416.91,168.81 419.88,169.37 422.57,171.18 425.02,173.70 427.28,173.97 429.36,176.00 433.13,176.71 434.84,178.06 437.97,178.06 439.41,178.87 442.10,181.44 444.55,183.14 446.81,183.37 449.88,183.61 451.76,183.96 454.37,183.96 456.75,184.77 458.95,184.91 461.63,185.06 464.08,185.44 466.34,185.51 468.93,185.61 471.30,185.75 473.90,186.23 476.28,186.36 478.48,186.36 481.16,186.36 483.62,186.36 485.87,186.36 488.21,186.36 490.83,186.36 493.22,186.36 495.62,186.36 498.01,186.36 500.37,186.36 502.85,186.36 505.27,186.36 507.74,186.36 510.13,186.36 512.54,186.36 514.96,186.36 517.45,186.36 519.82,186.36 522.24,186.36 524.66,186.36 527.15,186.36 529.55,186.36 531.97,186.36 534.40,186.36 536.81,186.36 539.23,186.36 541.65,186.36 544.09,186.36 546.52,186.36 548.94,186.36 551.37,186.36 553.78,186.36 556.21,186.36 558.62,186.36 561.06,186.36 563.49,186.36 565.90,186.36 568.32,186.36 570.76,186.36 573.18,186.36 575.60,186.36 578.02,186.36 580.45,186.36 582.87,186.36 585.30,186.36 587.72,186.36 590.15,186.36 592.57,186.36 594.99,186.36" fill="none" stroke="#2874a6" stroke-width="1.8"/><line x1="355.00" y1="193.33" x2="595.00" y2="193.33" stroke="#333333" stroke-width="1"/><line x1="355.00" y1="193.33" x2="355.00" y2="197.33" stroke="#333333" stroke-width="1"/><text x="355.00" y="209.33" font-family="Arial,sans-serif" font-size="10" text-anchor="middle" fill="#333333">1</text><line x1="419.88" y1="193.33" x2="419.88" y2="197.33" stroke="#333333" stroke-width="1"/><text x="419.88" y="209.33" font-family="Arial,sans-serif" font-size="10" text-anchor="middle" fill="#333333">10</text><line x1="484.77" y1="193.33" x2="484.77" y2="197.33" stroke="#333333" stroke-width="1"/><text x="484.77" y="209.33" font-family="Arial,sans-serif" font-size="10" text-anchor="middle" fill="#333333">100</text><line x1="549.65" y1="193.33" x2="549.65" y2="197.33" stroke="#333333" stroke-width="1"/><text x="549.65" y="209.33" font-family="Arial,sans-serif" font-size="10" text-anchor="middle" fill="#333333">1000</text><line x1="595.00" y1="193.33" x2="595.00" y2="197.33" stroke="#333333" stroke-width="1"/><text x="595.00" y="209.33" font-family="Arial,sans-serif" font-size="10" text-anchor="middle" fill="#333333">5000</text><text x="475.00" y="32.00" font-family="Arial,sans-serif" font-size="12" font-weight="bold" text-anchor="middle" fill="#222222">H=3, fc=280</text></g><g><rect x="640.00" y="40.00" width="240.00" height="153.33" fill="white" stroke="none"/><line x1="640.00" y1="40.00" x2="640.00" y2="193.33" stroke="#333333" stroke-width="1"/><line x1="636.00" y1="193.33" x2="640.00" y2="193.33" stroke="#333333" stroke-width="1"/><text x="634.00" y="196.33" font-family="Arial,sans-serif" font-size="9" text-anchor="end" fill="#333333">2638</text><line x1="640.00" y1="193.33" x2="880.00" y2="193.33" stroke="#dddddd" stroke-width="0.5"/><line x1="636.00" y1="155.00" x2="640.00" y2="155.00" stroke="#333333" stroke-width="1"/><text x="634.00" y="158.00" font-family="Arial,sans-serif" font-size="9" text-anchor="end" fill="#333333">4818</text><line x1="640.00" y1="155.00" x2="880.00" y2="155.00" stroke="#dddddd" stroke-width="0.5"/><line x1="636.00" y1="116.67" x2="640.00" y2="116.67" stroke="#333333" stroke-width="1"/><text x="634.00" y="119.67" font-family="Arial,sans-serif" font-size="9" text-anchor="end" fill="#333333">6997</text><line x1="640.00" y1="116.67" x2="880.00" y2="116.67" stroke="#dddddd" stroke-width="0.5"/><line x1="636.00" y1="78.33" x2="640.00" y2="78.33" stroke="#333333" stroke-width="1"/><text x="634.00" y="81.33" font-family="Arial,sans-serif" font-size="9" text-anchor="end" fill="#333333">9177</text><line x1="640.00" y1="78.33" x2="880.00" y2="78.33" stroke="#dddddd" stroke-width="0.5"/><line x1="636.00" y1="40.00" x2="640.00" y2="40.00" stroke="#333333" stroke-width="1"/><text x="634.00" y="43.00" font-family="Arial,sans-serif" font-size="9" text-anchor="end" fill="#333333">11356</text><line x1="640.00" y1="40.00" x2="880.00" y2="40.00" stroke="#dddddd" stroke-width="0.5"/><polygon points="640.00,46.97 640.00,46.97 659.53,46.97 670.96,46.97 679.06,73.71 685.35,76.32 690.49,83.16 694.83,98.35 698.60,103.51 701.91,103.51 704.88,122.43 707.57,133.27 710.02,133.90 712.28,138.87 714.36,138.96 718.13,147.60 719.84,151.68 722.97,154.15 724.41,155.00 727.10,157.00 729.55,157.09 731.81,160.30 734.88,160.54 736.76,162.83 739.37,164.08 741.75,165.49 743.95,165.58 746.63,167.09 749.08,167.68 751.34,167.68 753.93,171.73 756.30,174.65 758.90,175.06 761.28,175.32 763.48,176.37 766.16,176.70 768.62,179.00 770.87,179.61 773.21,180.30 775.83,180.30 778.22,180.82 780.62,180.95 783.01,182.01 785.37,182.01 787.85,182.74 790.27,183.20 792.74,184.12 795.13,184.41 797.54,184.54 799.96,184.66 802.45,184.78 804.82,185.31 807.24,185.31 809.66,185.85 812.15,185.91 814.55,186.03 816.97,186.33 819.40,186.33 821.81,186.33 824.23,186.36 826.65,186.36 829.09,186.36 831.52,186.36 833.94,186.36 836.37,186.36 838.78,186.36 841.21,186.36 843.62,186.36 846.06,186.36 848.49,186.36 850.90,186.36 853.32,186.36 855.76,186.36 858.18,186.36 860.60,186.36 863.02,186.36 865.45,186.36 867.87,186.36 870.30,186.36 872.72,186.36 875.15,186.36 877.57,186.36 879.99,186.36 879.99,186.36 877.57,186.36 875.15,186.36 872.72,186.36 870.30,186.36 867.87,186.36 865.45,186.36 863.02,186.36 860.60,186.36 858.18,186.36 855.76,186.36 853.32,186.36 850.90,186.36 848.49,186.36 846.06,186.36 843.62,186.36 841.21,186.36 838.78,186.36 836.37,186.36 833.94,186.36 831.52,186.36 829.09,186.36 826.65,186.36 824.23,186.36 821.81,186.36 819.40,186.36 816.97,186.36 814.55,186.36 812.15,186.36 809.66,186.36 807.24,186.36 804.82,186.36 802.45,186.36 799.96,186.36 797.54,186.36 795.13,186.36 792.74,186.36 790.27,186.36 787.85,186.36 785.37,186.36 783.01,186.36 780.62,186.13 778.22,186.13 775.83,185.61 773.21,185.38 770.87,185.38 768.62,185.13 766.16,185.08 763.48,183.90 761.28,183.83 758.90,183.83 756.30,183.37 753.93,183.37 751.34,180.69 749.08,179.82 746.63,179.74 743.95,179.74 741.75,179.52 739.37,179.50 736.76,179.50 734.88,179.50 731.81,179.50 729.55,178.24 727.10,176.42 724.41,175.11 722.97,171.99 719.84,171.84 718.13,169.30 714.36,167.98 712.28,167.47 710.02,163.34 707.57,162.88 704.88,161.23 701.91,161.23 698.60,153.21 694.83,153.16 690.49,148.31 685.35,141.02 679.06,133.93 670.96,123.76 659.53,111.98 640.00,88.88 640.00,46.97" fill="#c0392b" fill-opacity="0.18" stroke="none"/><polygon points="640.00,149.65 640.00,149.65 659.53,149.65 670.96,149.65 679.06,151.21 685.35,151.21 690.49,151.37 694.83,154.26 698.60,157.53 701.91,157.53 704.88,164.26 707.57,164.26 710.02,164.26 712.28,167.20 714.36,167.79 718.13,168.72 719.84,168.72 722.97,170.45 724.41,170.45 727.10,175.54 729.55,175.54 731.81,178.81 734.88,179.26 736.76,179.26 739.37,180.26 741.75,180.26 743.95,181.34 746.63,181.95 749.08,182.15 751.34,182.37 753.93,182.76 756.30,184.22 758.90,184.26 761.28,184.37 763.48,184.91 766.16,185.20 768.62,185.54 770.87,185.57 773.21,185.57 775.83,185.65 778.22,185.84 780.62,186.04 783.01,186.05 785.37,186.36 787.85,186.36 790.27,186.36 792.74,186.36 795.13,186.36 797.54,186.36 799.96,186.36 802.45,186.36 804.82,186.36 807.24,186.36 809.66,186.36 812.15,186.36 814.55,186.36 816.97,186.36 819.40,186.36 821.81,186.36 824.23,186.36 826.65,186.36 829.09,186.36 831.52,186.36 833.94,186.36 836.37,186.36 838.78,186.36 841.21,186.36 843.62,186.36 846.06,186.36 848.49,186.36 850.90,186.36 853.32,186.36 855.76,186.36 858.18,186.36 860.60,186.36 863.02,186.36 865.45,186.36 867.87,186.36 870.30,186.36 872.72,186.36 875.15,186.36 877.57,186.36 879.99,186.36 879.99,186.36 877.57,186.36 875.15,186.36 872.72,186.36 870.30,186.36 867.87,186.36 865.45,186.36 863.02,186.36 860.60,186.36 858.18,186.36 855.76,186.36 853.32,186.36 850.90,186.36 848.49,186.36 846.06,186.36 843.62,186.36 841.21,186.36 838.78,186.36 836.37,186.36 833.94,186.36 831.52,186.36 829.09,186.36 826.65,186.36 824.23,186.36 821.81,186.36 819.40,186.36 816.97,186.36 814.55,186.36 812.15,186.36 809.66,186.36 807.24,186.36 804.82,186.36 802.45,186.36 799.96,186.36 797.54,186.36 795.13,186.36 792.74,186.36 790.27,186.36 787.85,186.36 785.37,186.36 783.01,186.36 780.62,186.36 778.22,186.36 775.83,186.36 773.21,186.36 770.87,186.36 768.62,186.36 766.16,186.36 763.48,186.36 761.28,186.36 758.90,186.36 756.30,186.36 753.93,186.36 751.34,186.36 749.08,186.36 746.63,186.36 743.95,186.36 741.75,186.36 739.37,186.36 736.76,186.36 734.88,185.99 731.81,185.99 729.55,185.48 727.10,185.22 724.41,185.22 722.97,184.86 719.84,184.39 718.13,183.86 714.36,183.55 712.28,182.88 710.02,182.88 707.57,182.88 704.88,181.74 701.91,180.89 698.60,180.89 694.83,176.74 690.49,176.74 685.35,176.28 679.06,175.70 670.96,171.64 659.53,168.82 640.00,167.96 640.00,149.65" fill="#2874a6" fill-opacity="0.18" stroke="none"/><polyline points="640.00,46.97 640.00,46.97 659.53,83.22 670.96,95.83 679.06,115.81 685.35,120.15 690.49,129.13 694.83,134.49 698.60,139.60 701.91,144.34 704.88,147.56 707.57,148.84 710.02,151.67 712.28,154.62 714.36,157.11 718.13,161.05 719.84,165.68 722.97,165.94 724.41,165.94 727.10,167.44 729.55,169.38 731.81,169.91 734.88,170.64 736.76,170.94 739.37,170.94 741.75,172.82 743.95,174.11 746.63,176.20 749.08,176.41 751.34,176.92 753.93,177.33 756.30,178.43 758.90,179.43 761.28,180.16 763.48,180.43 766.16,180.87 768.62,182.23 770.87,182.32 773.21,182.64 775.83,182.83 778.22,183.27 780.62,184.09 783.01,184.36 785.37,184.86 787.85,185.08 790.27,185.17 792.74,185.28 795.13,185.91 797.54,186.21 799.96,186.36 802.45,186.36 804.82,186.36 807.24,186.36 809.66,186.36 812.15,186.36 814.55,186.36 816.97,186.36 819.40,186.36 821.81,186.36 824.23,186.36 826.65,186.36 829.09,186.36 831.52,186.36 833.94,186.36 836.37,186.36 838.78,186.36 841.21,186.36 843.62,186.36 846.06,186.36 848.49,186.36 850.90,186.36 853.32,186.36 855.76,186.36 858.18,186.36 860.60,186.36 863.02,186.36 865.45,186.36 867.87,186.36 870.30,186.36 872.72,186.36 875.15,186.36 877.57,186.36 879.99,186.36" fill="none" stroke="#c0392b" stroke-width="1.8"/><polyline points="640.00,149.65 640.00,150.20 659.53,156.96 670.96,159.66 679.06,160.88 685.35,162.15 690.49,163.15 694.83,166.17 698.60,168.73 701.91,168.74 704.88,169.88 707.57,171.08 710.02,174.08 712.28,174.42 714.36,176.10 718.13,176.75 719.84,178.11 722.97,178.14 724.41,178.95 727.10,181.43 729.55,183.17 731.81,183.40 734.88,183.63 736.76,184.30 739.37,184.30 741.75,184.79 743.95,184.84 746.63,185.01 749.08,185.32 751.34,185.45 753.93,185.52 756.30,185.62 758.90,186.08 761.28,186.36 763.48,186.36 766.16,186.36 768.62,186.36 770.87,186.36 773.21,186.36 775.83,186.36 778.22,186.36 780.62,186.36 783.01,186.36 785.37,186.36 787.85,186.36 790.27,186.36 792.74,186.36 795.13,186.36 797.54,186.36 799.96,186.36 802.45,186.36 804.82,186.36 807.24,186.36 809.66,186.36 812.15,186.36 814.55,186.36 816.97,186.36 819.40,186.36 821.81,186.36 824.23,186.36 826.65,186.36 829.09,186.36 831.52,186.36 833.94,186.36 836.37,186.36 838.78,186.36 841.21,186.36 843.62,186.36 846.06,186.36 848.49,186.36 850.90,186.36 853.32,186.36 855.76,186.36 858.18,186.36 860.60,186.36 863.02,186.36 865.45,186.36 867.87,186.36 870.30,186.36 872.72,186.36 875.15,186.36 877.57,186.36 879.99,186.36" fill="none" stroke="#2874a6" stroke-width="1.8"/><line x1="640.00" y1="193.33" x2="880.00" y2="193.33" stroke="#333333" stroke-width="1"/><line x1="640.00" y1="193.33" x2="640.00" y2="197.33" stroke="#333333" stroke-width="1"/><text x="640.00" y="209.33" font-family="Arial,sans-serif" font-size="10" text-anchor="middle" fill="#333333">1</text><line x1="704.88" y1="193.33" x2="704.88" y2="197.33" stroke="#333333" stroke-width="1"/><text x="704.88" y="209.33" font-family="Arial,sans-serif" font-size="10" text-anchor="middle" fill="#333333">10</text><line x1="769.77" y1="193.33" x2="769.77" y2="197.33" stroke="#333333" stroke-width="1"/><text x="769.77" y="209.33" font-family="Arial,sans-serif" font-size="10" text-anchor="middle" fill="#333333">100</text><line x1="834.65" y1="193.33" x2="834.65" y2="197.33" stroke="#333333" stroke-width="1"/><text x="834.65" y="209.33" font-family="Arial,sans-serif" font-size="10" text-anchor="middle" fill="#333333">1000</text><line x1="880.00" y1="193.33" x2="880.00" y2="197.33" stroke="#333333" stroke-width="1"/><text x="880.00" y="209.33" font-family="Arial,sans-serif" font-size="10" text-anchor="middle" fill="#333333">5000</text><text x="760.00" y="32.00" font-family="Arial,sans-serif" font-size="12" font-weight="bold" text-anchor="middle" fill="#222222">H=3, fc=320</text></g><g><rect x="70.00" y="248.33" width="240.00" height="153.33" fill="white" stroke="none"/><line x1="70.00" y1="248.33" x2="70.00" y2="401.67" stroke="#333333" stroke-width="1"/><line x1="66.00" y1="401.67" x2="70.00" y2="401.67" stroke="#333333" stroke-width="1"/><text x="64.00" y="404.67" font-family="Arial,sans-serif" font-size="9" text-anchor="end" fill="#333333">3420</text><line x1="70.00" y1="401.67" x2="310.00" y2="401.67" stroke="#dddddd" stroke-width="0.5"/><line x1="66.00" y1="363.33" x2="70.00" y2="363.33" stroke="#333333" stroke-width="1"/><text x="64.00" y="366.33" font-family="Arial,sans-serif" font-size="9" text-anchor="end" fill="#333333">6475</text><line x1="70.00" y1="363.33" x2="310.00" y2="363.33" stroke="#dddddd" stroke-width="0.5"/><line x1="66.00" y1="325.00" x2="70.00" y2="325.00" stroke="#333333" stroke-width="1"/><text x="64.00" y="328.00" font-family="Arial,sans-serif" font-size="9" text-anchor="end" fill="#333333">9529</text><line x1="70.00" y1="325.00" x2="310.00" y2="325.00" stroke="#dddddd" stroke-width="0.5"/><line x1="66.00" y1="286.67" x2="70.00" y2="286.67" stroke="#333333" stroke-width="1"/><text x="64.00" y="289.67" font-family="Arial,sans-serif" font-size="9" text-anchor="end" fill="#333333">12584</text><line x1="70.00" y1="286.67" x2="310.00" y2="286.67" stroke="#dddddd" stroke-width="0.5"/><line x1="66.00" y1="248.33" x2="70.00" y2="248.33" stroke="#333333" stroke-width="1"/><text x="64.00" y="251.33" font-family="Arial,sans-serif" font-size="9" text-anchor="end" fill="#333333">15639</text><line x1="70.00" y1="248.33" x2="310.00" y2="248.33" stroke="#dddddd" stroke-width="0.5"/><polygon points="70.00,255.30 70.00,255.30 89.53,255.30 100.96,255.30 109.06,277.48 115.35,278.15 120.49,287.99 124.83,296.40 128.60,302.43 131.91,302.91 134.88,303.13 137.57,312.75 140.02,324.48 142.28,324.48 144.36,331.68 148.13,334.69 149.84,335.48 152.97,335.80 154.41,348.09 157.10,351.69 159.55,351.69 161.81,354.73 164.88,354.73 166.76,356.04 169.37,359.37 171.75,359.37 173.95,359.85 176.63,364.41 179.08,364.41 181.34,364.41 183.93,364.93 186.30,367.35 188.90,367.58 191.28,369.13 193.48,370.00 196.16,371.83 198.62,373.74 200.87,373.74 203.21,373.74 205.83,374.24 208.22,376.75 210.62,376.75 213.01,381.14 215.37,382.16 217.85,383.89 220.27,386.72 222.74,386.83 225.13,387.68 227.54,388.87 229.96,389.22 232.45,389.76 234.82,389.76 237.24,389.96 239.66,389.96 242.15,390.30 244.55,391.35 246.97,391.44 249.40,391.67 251.81,391.79 254.23,391.79 256.65,391.79 259.09,392.01 261.52,392.44 263.94,392.78 266.37,392.97 268.78,392.97 271.21,393.11 273.62,393.11 276.06,393.31 278.49,393.38 280.90,393.44 283.32,393.64 285.76,393.82 288.18,393.82 290.60,393.82 293.02,393.82 295.45,393.82 297.87,394.02 300.30,394.02 302.72,394.16 305.15,394.52 307.57,394.52 309.99,394.55 309.99,394.70 307.57,394.70 305.15,394.70 302.72,394.70 300.30,394.70 297.87,394.70 295.45,394.70 293.02,394.70 290.60,394.70 288.18,394.70 285.76,394.70 283.32,394.70 280.90,394.70 278.49,394.70 276.06,394.70 273.62,394.70 271.21,394.70 268.78,394.70 266.37,394.70 263.94,394.70 261.52,394.70 259.09,394.70 256.65,394.70 254.23,394.70 251.81,394.55 249.40,394.05 246.97,394.05 244.55,393.84 242.15,393.84 239.66,393.84 237.24,393.72 234.82,393.72 232.45,393.63 229.96,393.60 227.54,393.59 225.13,392.98 222.74,392.93 220.27,392.81 217.85,392.81 215.37,392.50 213.01,392.15 210.62,391.34 208.22,391.34 205.83,391.34 203.21,390.04 200.87,390.04 198.62,387.10 196.16,387.10 193.48,386.66 191.28,386.52 188.90,386.52 186.30,386.52 183.93,385.11 181.34,382.60 179.08,382.30 176.63,382.30 173.95,377.85 171.75,377.45 169.37,376.73 166.76,374.54 164.88,373.11 161.81,373.11 159.55,373.00 157.10,370.70 154.41,369.00 152.97,366.67 149.84,366.66 148.13,365.68 144.36,362.60 142.28,361.38 140.02,357.15 137.57,357.15 134.88,356.50 131.91,356.50 128.60,346.51 124.83,343.87 120.49,340.39 115.35,338.42 109.06,330.80 100.96,322.46 89.53,311.75 70.00,292.52 70.00,255.30" fill="#c0392b" fill-opacity="0.18" stroke="none"/><polygon points="70.00,352.70 70.00,352.70 89.53,352.70 100.96,352.70 109.06,352.70 115.35,352.70 120.49,353.46 124.83,356.78 128.60,358.66 131.91,364.24 134.88,366.66 137.57,366.66 140.02,367.13 142.28,369.32 144.36,369.88 148.13,370.40 149.84,370.40 152.97,372.93 154.41,374.09 157.10,380.03 159.55,380.03 161.81,382.56 164.88,383.58 166.76,385.55 169.37,386.08 171.75,386.80 173.95,387.06 176.63,388.82 179.08,388.82 181.34,388.82 183.93,388.82 186.30,388.99 188.90,389.68 191.28,389.72 193.48,389.72 196.16,391.80 198.62,391.92 200.87,391.92 203.21,392.48 205.83,392.48 208.22,392.66 210.62,392.66 213.01,393.00 215.37,393.42 217.85,393.66 220.27,393.71 222.74,393.71 225.13,393.71 227.54,393.80 229.96,393.82 232.45,393.82 234.82,393.82 237.24,393.82 239.66,393.82 242.15,394.28 244.55,394.33 246.97,394.38 249.40,394.38 251.81,394.50 254.23,394.50 256.65,394.50 259.09,394.51 261.52,394.51 263.94,394.51 266.37,394.54 268.78,394.56 271.21,394.56 273.62,394.57 276.06,394.70 278.49,394.70 280.90,394.70 283.32,394.70 285.76,394.70 288.18,394.70 290.60,394.70 293.02,394.70 295.45,394.70 297.87,394.70 300.30,394.70 302.72,394.70 305.15,394.70 307.57,394.70 309.99,394.70 309.99,394.70 307.57,394.70 305.15,394.70 302.72,394.70 300.30,394.70 297.87,394.70 295.45,394.70 293.02,394.70 290.60,394.70 288.18,394.70 285.76,394.70 283.32,394.70 280.90,394.70 278.49,394.70 276.06,394.70 273.62,394.70 271.21,394.70 268.78,394.70 266.37,394.70 263.94,394.70 261.52,394.70 259.09,394.70 256.65,394.70 254.23,394.70 251.81,394.70 249.40,394.70 246.97,394.70 244.55,394.70 242.15,394.70 239.66,394.70 237.24,394.70 234.82,394.70 232.45,394.70 229.96,394.70 227.54,394.70 225.13,394.70 222.74,394.70 220.27,394.70 217.85,394.70 215.37,394.55 213.01,394.55 210.62,394.53 208.22,394.40 205.83,394.40 203.21,394.40 200.87,394.40 198.62,394.40 196.16,394.40 193.48,393.88 191.28,393.70 188.90,393.47 186.30,393.47 183.93,393.47 181.34,393.47 179.08,392.98 176.63,392.75 173.95,392.12 171.75,392.12 169.37,392.12 166.76,392.12 164.88,390.84 161.81,390.84 159.55,389.81 157.10,389.57 154.41,387.87 152.97,387.35 149.84,387.35 148.13,387.35 144.36,384.69 142.28,384.69 140.02,384.02 137.57,384.02 134.88,381.10 131.91,381.10 128.60,379.13 124.83,378.53 120.49,378.53 115.35,377.04 109.06,375.67 100.96,372.61 89.53,370.70 70.00,369.20 70.00,352.70" fill="#2874a6" fill-opacity="0.18" stroke="none"/><polyline points="70.00,255.30 70.00,255.30 89.53,283.70 100.96,294.54 109.06,312.03 115.35,317.78 120.49,326.09 124.83,330.64 128.60,335.74 131.91,340.41 134.88,341.86 137.57,344.97 140.02,347.14 142.28,349.04 144.36,350.79 148.13,354.81 149.84,356.98 152.97,358.76 154.41,358.76 157.10,360.87 159.55,362.98 161.81,363.58 164.88,366.11 166.76,366.49 169.37,366.61 171.75,368.24 173.95,368.70 176.63,370.60 179.08,372.01 181.34,374.27 183.93,374.27 186.30,375.17 188.90,377.66 191.28,379.49 193.48,379.49 196.16,382.47 198.62,383.27 200.87,384.19 203.21,384.50 205.83,387.28 208.22,387.37 210.62,387.51 213.01,388.08 215.37,388.86 217.85,389.99 220.27,389.99 222.74,390.89 225.13,390.89 227.54,391.55 229.96,392.25 232.45,393.07 234.82,393.25 237.24,393.25 239.66,393.29 242.15,393.31 244.55,393.31 246.97,393.31 249.40,393.31 251.81,393.43 254.23,393.67 256.65,393.67 259.09,393.69 261.52,393.77 263.94,393.77 266.37,393.82 268.78,393.82 271.21,393.82 273.62,393.82 276.06,393.93 278.49,394.45 280.90,394.48 283.32,394.63 285.76,394.70 288.18,394.70 290.60,394.70 293.02,394.70 295.45,394.70 297.87,394.70 300.30,394.70 302.72,394.70 305.15,394.70 307.57,394.70 309.99,394.70" fill="none" stroke="#c0392b" stroke-width="1.8"/><polyline points="70.00,352.70 70.00,352.70 89.53,358.21 100.96,360.75 109.06,362.82 115.35,363.09 120.49,365.11 124.83,367.71 128.60,370.39 131.91,371.24 134.88,372.25 137.57,373.54 140.02,375.02 142.28,376.63 144.36,377.79 148.13,378.19 149.84,378.40 152.97,379.71 154.41,380.51 157.10,386.01 159.55,386.96 161.81,387.73 164.88,387.97 166.76,388.86 169.37,390.36 171.75,390.68 173.95,390.75 176.63,390.76 179.08,390.76 181.34,391.12 183.93,391.42 186.30,392.24 188.90,392.53 191.28,392.56 193.48,392.97 196.16,393.14 198.62,393.52 200.87,393.52 203.21,393.58 205.83,393.70 208.22,393.73 210.62,393.75 213.01,393.81 215.37,393.82 217.85,393.82 220.27,394.03 222.74,394.36 225.13,394.45 227.54,394.53 229.96,394.53 232.45,394.54 234.82,394.57 237.24,394.63 239.66,394.70 242.15,394.70 244.55,394.70 246.97,394.70 249.40,394.70 251.81,394.70 254.23,394.70 256.65,394.70 259.09,394.70 261.52,394.70 263.94,394.70 266.37,394.70 268.78,394.70 271.21,394.70 273.62,394.70 276.06,394.70 278.49,394.70 280.90,394.70 283.32,394.70 285.76,394.70 288.18,394.70 290.60,394.70 293.02,394.70 295.45,394.70 297.87,394.70 300.30,394.70 302.72,394.70 305.15,394.70 307.57,394.70 309.99,394.70" fill="none" stroke="#2874a6" stroke-width="1.8"/><line x1="70.00" y1="401.67" x2="310.00" y2="401.67" stroke="#333333" stroke-width="1"/><line x1="70.00" y1="401.67" x2="70.00" y2="405.67" stroke="#333333" stroke-width="1"/><text x="70.00" y="417.67" font-family="Arial,sans-serif" font-size="10" text-anchor="middle" fill="#333333">1</text><line x1="134.88" y1="401.67" x2="134.88" y2="405.67" stroke="#333333" stroke-width="1"/><text x="134.88" y="417.67" font-family="Arial,sans-serif" font-size="10" text-anchor="middle" fill="#333333">10</text><line x1="199.77" y1="401.67" x2="199.77" y2="405.67" stroke="#333333" stroke-width="1"/><text x="199.77" y="417.67" font-family="Arial,sans-serif" font-size="10" text-anchor="middle" fill="#333333">100</text><line x1="264.65" y1="401.67" x2="264.65" y2="405.67" stroke="#333333" stroke-width="1"/><text x="264.65" y="417.67" font-family="Arial,sans-serif" font-size="10" text-anchor="middle" fill="#333333">1000</text><line x1="310.00" y1="401.67" x2="310.00" y2="405.67" stroke="#333333" stroke-width="1"/><text x="310.00" y="417.67" font-family="Arial,sans-serif" font-size="10" text-anchor="middle" fill="#333333">5000</text><text x="190.00" y="240.33" font-family="Arial,sans-serif" font-size="12" font-weight="bold" text-anchor="middle" fill="#222222">H=4, fc=240</text></g><g><rect x="355.00" y="248.33" width="240.00" height="153.33" fill="white" stroke="none"/><line x1="355.00" y1="248.33" x2="355.00" y2="401.67" stroke="#333333" stroke-width="1"/><line x1="351.00" y1="401.67" x2="355.00" y2="401.67" stroke="#333333" stroke-width="1"/><text x="349.00" y="404.67" font-family="Arial,sans-serif" font-size="9" text-anchor="end" fill="#333333">3538</text><line x1="355.00" y1="401.67" x2="595.00" y2="401.67" stroke="#dddddd" stroke-width="0.5"/><line x1="351.00" y1="363.33" x2="355.00" y2="363.33" stroke="#333333" stroke-width="1"/><text x="349.00" y="366.33" font-family="Arial,sans-serif" font-size="9" text-anchor="end" fill="#333333">6636</text><line x1="355.00" y1="363.33" x2="595.00" y2="363.33" stroke="#dddddd" stroke-width="0.5"/><line x1="351.00" y1="325.00" x2="355.00" y2="325.00" stroke="#333333" stroke-width="1"/><text x="349.00" y="328.00" font-family="Arial,sans-serif" font-size="9" text-anchor="end" fill="#333333">9735</text><line x1="355.00" y1="325.00" x2="595.00" y2="325.00" stroke="#dddddd" stroke-width="0.5"/><line x1="351.00" y1="286.67" x2="355.00" y2="286.67" stroke="#333333" stroke-width="1"/><text x="349.00" y="289.67" font-family="Arial,sans-serif" font-size="9" text-anchor="end" fill="#333333">12833</text><line x1="355.00" y1="286.67" x2="595.00" y2="286.67" stroke="#dddddd" stroke-width="0.5"/><line x1="351.00" y1="248.33" x2="355.00" y2="248.33" stroke="#333333" stroke-width="1"/><text x="349.00" y="251.33" font-family="Arial,sans-serif" font-size="9" text-anchor="end" fill="#333333">15931</text><line x1="355.00" y1="248.33" x2="595.00" y2="248.33" stroke="#dddddd" stroke-width="0.5"/><polygon points="355.00,255.30 355.00,255.30 374.53,255.30 385.96,255.30 394.06,277.51 400.35,277.97 405.49,287.87 409.83,295.98 413.60,302.04 416.91,302.51 419.88,302.51 422.57,311.96 425.02,323.65 427.28,323.65 429.36,330.08 433.13,332.94 434.84,334.81 437.97,335.27 439.41,347.33 442.10,350.87 444.55,350.87 446.81,351.82 449.88,351.82 451.76,354.91 454.37,357.41 456.75,357.43 458.95,358.80 461.63,362.63 464.08,362.64 466.34,362.64 468.93,364.09 471.30,364.46 473.90,366.94 476.28,368.58 478.48,369.46 481.16,371.23 483.62,374.84 485.87,374.84 488.21,376.23 490.83,376.40 493.22,377.43 495.62,378.12 498.01,380.51 500.37,381.15 502.85,383.65 505.27,384.47 507.74,385.91 510.13,386.03 512.54,386.80 514.96,389.37 517.45,390.29 519.82,390.29 522.24,390.73 524.66,390.93 527.15,391.51 529.55,391.62 531.97,391.73 534.40,391.73 536.81,391.92 539.23,391.92 541.65,391.92 544.09,392.38 546.52,392.96 548.94,393.14 551.37,393.20 553.78,393.20 556.21,393.20 558.62,393.20 561.06,393.56 563.49,393.58 565.90,393.68 568.32,393.70 570.76,393.83 573.18,393.83 575.60,393.83 578.02,393.84 580.45,393.84 582.87,394.03 585.30,394.03 587.72,394.17 590.15,394.52 592.57,394.52 594.99,394.56 594.99,394.70 592.57,394.70 590.15,394.70 587.72,394.70 585.30,394.70 582.87,394.70 580.45,394.70 578.02,394.70 575.60,394.70 573.18,394.70 570.76,394.70 568.32,394.70 565.90,394.70 563.49,394.70 561.06,394.70 558.62,394.70 556.21,394.70 553.78,394.70 551.37,394.70 548.94,394.70 546.52,394.70 544.09,394.70 541.65,394.70 539.23,394.70 536.81,394.56 534.40,394.56 531.97,394.56 529.55,394.05 527.15,394.05 524.66,394.05 522.24,393.74 519.82,393.73 517.45,393.65 514.96,393.64 512.54,393.60 510.13,393.00 507.74,392.96 505.27,392.83 502.85,392.83 500.37,392.53 498.01,392.18 495.62,391.19 493.22,391.19 490.83,391.19 488.21,391.19 485.87,391.19 483.62,388.16 481.16,388.16 478.48,388.16 476.28,386.67 473.90,386.67 471.30,386.52 468.93,385.12 466.34,382.41 464.08,382.10 461.63,382.10 458.95,379.76 456.75,378.25 454.37,377.70 451.76,374.19 449.88,372.70 446.81,372.70 444.55,372.59 442.10,370.22 439.41,368.36 437.97,365.97 434.84,365.95 433.13,365.08 429.36,362.04 427.28,360.85 425.02,356.55 422.57,356.55 419.88,356.05 416.91,356.05 413.60,345.56 409.83,343.06 405.49,339.81 400.35,337.88 394.06,330.35 385.96,321.82 374.53,311.39 355.00,292.00 355.00,255.30" fill="#c0392b" fill-opacity="0.18" stroke="none"/><polygon points="355.00,352.57 355.00,352.57 374.53,352.57 385.96,352.57 394.06,352.57 400.35,352.57 405.49,353.41 409.83,356.69 413.60,358.09 416.91,363.73 419.88,366.59 422.57,366.59 425.02,366.73 427.28,368.90 429.36,369.54 433.13,370.30 434.84,370.30 437.97,372.98 439.41,374.08 442.10,379.81 444.55,379.81 446.81,382.72 449.88,383.63 451.76,385.58 454.37,386.81 456.75,387.23 458.95,387.38 461.63,388.80 464.08,388.80 466.34,388.80 468.93,388.80 471.30,389.06 473.90,389.73 476.28,389.79 478.48,389.79 481.16,391.83 483.62,391.96 485.87,391.96 488.21,392.51 490.83,392.51 493.22,392.69 495.62,392.69 498.01,393.02 500.37,393.44 502.85,393.68 505.27,393.73 507.74,393.73 510.13,393.73 512.54,393.81 514.96,393.83 517.45,393.83 519.82,393.84 522.24,393.84 524.66,393.84 527.15,394.28 529.55,394.33 531.97,394.39 534.40,394.39 536.81,394.50 539.23,394.50 541.65,394.50 544.09,394.51 546.52,394.51 548.94,394.51 551.37,394.54 553.78,394.57 556.21,394.57 558.62,394.57 561.06,394.70 563.49,394.70 565.90,394.70 568.32,394.70 570.76,394.70 573.18,394.70 575.60,394.70 578.02,394.70 580.45,394.70 582.87,394.70 585.30,394.70 587.72,394.70 590.15,394.70 592.57,394.70 594.99,394.70 594.99,394.70 592.57,394.70 590.15,394.70 587.72,394.70 585.30,394.70 582.87,394.70 580.45,394.70 578.02,394.70 575.60,394.70 573.18,394.70 570.76,394.70 568.32,394.70 565.90,394.70 563.49,394.70 561.06,394.70 558.62,394.70 556.21,394.70 553.78,394.70 551.37,394.70 548.94,394.70 546.52,394.70 544.09,394.70 541.65,394.70 539.23,394.70 536.81,394.70 534.40,394.70 531.97,394.70 529.55,394.70 527.15,394.70 524.66,394.70 522.24,394.70 519.82,394.70 517.45,394.70 514.96,394.70 512.54,394.70 510.13,394.70 507.74,394.70 505.27,394.70 502.85,394.70 500.37,394.55 498.01,394.55 495.62,394.53 493.22,394.40 490.83,394.40 488.21,394.40 485.87,394.40 483.62,394.40 481.16,394.40 478.48,393.89 476.28,393.71 473.90,393.48 471.30,393.48 468.93,393.48 466.34,393.48 464.08,393.01 461.63,392.69 458.95,392.14 456.75,392.14 454.37,392.14 451.76,392.14 449.88,390.89 446.81,390.89 444.55,389.87 442.10,389.64 439.41,387.95 437.97,387.45 434.84,387.45 433.13,387.45 429.36,384.62 427.28,384.52 425.02,383.84 422.57,383.84 419.88,380.87 416.91,380.87 413.60,378.95 409.83,378.23 405.49,378.23 400.35,376.83 394.06,375.60 385.96,372.40 374.53,370.41 355.00,368.89 355.00,352.57" fill="#2874a6" fill-opacity="0.18" stroke="none"/><polyline points="355.00,255.30 355.00,255.30 374.53,283.39 385.96,294.12 394.06,311.50 400.35,317.10 405.49,325.30 409.83,329.97 413.60,334.28 416.91,337.91 419.88,341.08 422.57,342.68 425.02,346.31 427.28,348.11 429.36,349.88 433.13,352.90 434.84,355.07 437.97,356.84 439.41,356.84 442.10,360.11 444.55,362.10 446.81,362.55 449.88,364.39 451.76,364.43 454.37,365.01 456.75,367.68 458.95,367.97 461.63,370.19 464.08,371.77 466.34,373.87 468.93,374.23 471.30,374.86 473.90,376.45 476.28,378.05 478.48,378.05 481.16,381.43 483.62,382.54 485.87,384.03 488.21,384.32 490.83,387.22 493.22,387.31 495.62,387.40 498.01,387.96 500.37,388.73 502.85,389.90 505.27,389.90 507.74,390.90 510.13,391.08 512.54,391.91 514.96,392.29 517.45,392.79 519.82,393.11 522.24,393.11 524.66,393.33 527.15,393.34 529.55,393.34 531.97,393.54 534.40,393.58 536.81,393.62 539.23,393.68 541.65,393.71 544.09,393.73 546.52,393.73 548.94,393.73 551.37,393.78 553.78,393.78 556.21,393.84 558.62,393.84 561.06,394.19 563.49,394.46 565.90,394.47 568.32,394.56 570.76,394.56 573.18,394.63 575.60,394.70 578.02,394.70 580.45,394.70 582.87,394.70 585.30,394.70 587.72,394.70 590.15,394.70 592.57,394.70 594.99,394.70" fill="none" stroke="#c0392b" stroke-width="1.8"/><polyline points="355.00,352.57 355.00,352.57 374.53,357.85 385.96,360.51 394.06,362.61 400.35,362.75 405.49,364.87 409.83,367.41 413.60,370.15 416.91,370.85 419.88,371.95 422.57,373.26 425.02,374.76 427.28,376.36 429.36,377.55 433.13,377.95 434.84,378.31 437.97,379.71 439.41,380.40 442.10,385.87 444.55,386.33 446.81,387.61 449.88,387.98 451.76,388.84 454.37,389.97 456.75,390.67 458.95,390.76 461.63,390.82 464.08,390.82 466.34,391.07 468.93,391.30 471.30,392.06 473.90,392.40 476.28,392.40 478.48,392.82 481.16,393.16 483.62,393.54 485.87,393.54 488.21,393.60 490.83,393.71 493.22,393.74 495.62,393.76 498.01,393.83 500.37,393.84 502.85,393.84 505.27,394.04 507.74,394.36 510.13,394.46 512.54,394.53 514.96,394.53 517.45,394.54 519.82,394.57 522.24,394.63 524.66,394.70 527.15,394.70 529.55,394.70 531.97,394.70 534.40,394.70 536.81,394.70 539.23,394.70 541.65,394.70 544.09,394.70 546.52,394.70 548.94,394.70 551.37,394.70 553.78,394.70 556.21,394.70 558.62,394.70 561.06,394.70 563.49,394.70 565.90,394.70 568.32,394.70 570.76,394.70 573.18,394.70 575.60,394.70 578.02,394.70 580.45,394.70 582.87,394.70 585.30,394.70 587.72,394.70 590.15,394.70 592.57,394.70 594.99,394.70" fill="none" stroke="#2874a6" stroke-width="1.8"/><line x1="355.00" y1="401.67" x2="595.00" y2="401.67" stroke="#333333" stroke-width="1"/><line x1="355.00" y1="401.67" x2="355.00" y2="405.67" stroke="#333333" stroke-width="1"/><text x="355.00" y="417.67" font-family="Arial,sans-serif" font-size="10" text-anchor="middle" fill="#333333">1</text><line x1="419.88" y1="401.67" x2="419.88" y2="405.67" stroke="#333333" stroke-width="1"/><text x="419.88" y="417.67" font-family="Arial,sans-serif" font-size="10" text-anchor="middle" fill="#333333">10</text><line x1="484.77" y1="401.67" x2="484.77" y2="405.67" stroke="#333333" stroke-width="1"/><text x="484.77" y="417.67" font-family="Arial,sans-serif" font-size="10" text-anchor="middle" fill="#333333">100</text><line x1="549.65" y1="401.67" x2="549.65" y2="405.67" stroke="#333333" stroke-width="1"/><text x="549.65" y="417.67" font-family="Arial,sans-serif" font-size="10" text-anchor="middle" fill="#333333">1000</text><line x1="595.00" y1="401.67" x2="595.00" y2="405.67" stroke="#333333" stroke-width="1"/><text x="595.00" y="417.67" font-family="Arial,sans-serif" font-size="10" text-anchor="middle" fill="#333333">5000</text><text x="475.00" y="240.33" font-family="Arial,sans-serif" font-size="12" font-weight="bold" text-anchor="middle" fill="#222222">H=4, fc=280</text></g><g><rect x="640.00" y="248.33" width="240.00" height="153.33" fill="white" stroke="none"/><line x1="640.00" y1="248.33" x2="640.00" y2="401.67" stroke="#333333" stroke-width="1"/><line x1="636.00" y1="401.67" x2="640.00" y2="401.67" stroke="#333333" stroke-width="1"/><text x="634.00" y="404.67" font-family="Arial,sans-serif" font-size="9" text-anchor="end" fill="#333333">3655</text><line x1="640.00" y1="401.67" x2="880.00" y2="401.67" stroke="#dddddd" stroke-width="0.5"/><line x1="636.00" y1="363.33" x2="640.00" y2="363.33" stroke="#333333" stroke-width="1"/><text x="634.00" y="366.33" font-family="Arial,sans-serif" font-size="9" text-anchor="end" fill="#333333">6796</text><line x1="640.00" y1="363.33" x2="880.00" y2="363.33" stroke="#dddddd" stroke-width="0.5"/><line x1="636.00" y1="325.00" x2="640.00" y2="325.00" stroke="#333333" stroke-width="1"/><text x="634.00" y="328.00" font-family="Arial,sans-serif" font-size="9" text-anchor="end" fill="#333333">9938</text><line x1="640.00" y1="325.00" x2="880.00" y2="325.00" stroke="#dddddd" stroke-width="0.5"/><line x1="636.00" y1="286.67" x2="640.00" y2="286.67" stroke="#333333" stroke-width="1"/><text x="634.00" y="289.67" font-family="Arial,sans-serif" font-size="9" text-anchor="end" fill="#333333">13079</text><line x1="640.00" y1="286.67" x2="880.00" y2="286.67" stroke="#dddddd" stroke-width="0.5"/><line x1="636.00" y1="248.33" x2="640.00" y2="248.33" stroke="#333333" stroke-width="1"/><text x="634.00" y="251.33" font-family="Arial,sans-serif" font-size="9" text-anchor="end" fill="#333333">16221</text><line x1="640.00" y1="248.33" x2="880.00" y2="248.33" stroke="#dddddd" stroke-width="0.5"/><polygon points="640.00,255.30 640.00,255.30 659.53,255.30 670.96,255.30 679.06,277.29 685.35,278.01 690.49,287.75 694.83,295.58 698.60,301.46 701.91,301.92 704.88,301.92 707.57,311.19 710.02,322.86 712.28,322.86 714.36,329.27 718.13,332.38 719.84,334.17 722.97,334.76 724.41,346.60 727.10,350.09 729.55,350.09 731.81,351.21 734.88,351.21 736.76,354.20 739.37,356.93 741.75,356.98 743.95,357.96 746.63,361.68 749.08,361.69 751.34,361.71 753.93,363.58 756.30,364.05 758.90,366.28 761.28,368.10 763.48,369.34 766.16,371.87 768.62,376.32 770.87,377.29 773.21,377.49 775.83,378.08 778.22,378.70 780.62,380.32 783.01,380.93 785.37,383.52 787.85,383.63 790.27,385.41 792.74,387.11 795.13,387.91 797.54,389.28 799.96,390.15 802.45,390.31 804.82,390.55 807.24,390.70 809.66,391.43 812.15,392.58 814.55,392.58 816.97,392.63 819.40,393.15 821.81,393.15 824.23,393.15 826.65,393.16 829.09,393.25 831.52,393.41 833.94,393.48 836.37,393.62 838.78,393.65 841.21,393.66 843.62,393.70 846.06,393.71 848.49,393.71 850.90,393.71 853.32,393.71 855.76,393.74 858.18,393.84 860.60,393.84 863.02,393.85 865.45,393.85 867.87,394.04 870.30,394.36 872.72,394.54 875.15,394.56 877.57,394.56 879.99,394.56 879.99,394.70 877.57,394.70 875.15,394.70 872.72,394.70 870.30,394.70 867.87,394.70 865.45,394.70 863.02,394.70 860.60,394.70 858.18,394.70 855.76,394.70 853.32,394.70 850.90,394.70 848.49,394.70 846.06,394.70 843.62,394.70 841.21,394.70 838.78,394.70 836.37,394.70 833.94,394.70 831.52,394.70 829.09,394.70 826.65,394.70 824.23,394.70 821.81,394.70 819.40,394.70 816.97,394.58 814.55,394.56 812.15,394.56 809.66,394.36 807.24,394.04 804.82,394.04 802.45,394.04 799.96,394.04 797.54,393.72 795.13,393.69 792.74,393.66 790.27,393.19 787.85,392.88 785.37,392.72 783.01,392.25 780.62,391.31 778.22,391.04 775.83,390.62 773.21,390.62 770.87,390.36 768.62,387.97 766.16,387.70 763.48,386.65 761.28,386.53 758.90,386.50 756.30,386.50 753.93,385.05 751.34,382.58 749.08,381.87 746.63,381.87 743.95,379.57 741.75,378.06 739.37,377.48 736.76,373.85 734.88,372.30 731.81,372.30 729.55,372.20 727.10,369.75 724.41,367.73 722.97,365.30 719.84,365.28 718.13,364.49 714.36,361.50 712.28,360.34 710.02,355.98 707.57,355.98 704.88,355.61 701.91,355.61 698.60,344.78 694.83,342.29 690.49,339.25 685.35,337.36 679.06,329.92 670.96,321.20 659.53,311.04 640.00,291.51 640.00,255.30" fill="#c0392b" fill-opacity="0.18" stroke="none"/><polygon points="640.00,352.44 640.00,352.44 659.53,352.44 670.96,352.44 679.06,352.44 685.35,352.44 690.49,353.36 694.83,356.60 698.60,357.73 701.91,363.25 704.88,366.24 707.57,366.24 710.02,366.60 712.28,368.62 714.36,369.21 718.13,370.20 719.84,370.20 722.97,373.13 724.41,374.02 727.10,379.61 729.55,379.61 731.81,382.87 734.88,383.68 736.76,385.60 739.37,386.82 741.75,387.32 743.95,387.49 746.63,388.78 749.08,388.78 751.34,388.78 753.93,388.78 756.30,389.13 758.90,389.80 761.28,389.85 763.48,389.85 766.16,391.87 768.62,392.00 770.87,392.00 773.21,392.54 775.83,392.54 778.22,392.72 780.62,392.72 783.01,393.04 785.37,393.46 787.85,393.69 790.27,393.74 792.74,393.74 795.13,393.74 797.54,393.82 799.96,393.85 802.45,393.85 804.82,393.85 807.24,393.85 809.66,394.29 812.15,394.29 814.55,394.34 816.97,394.39 819.40,394.39 821.81,394.50 824.23,394.50 826.65,394.50 829.09,394.52 831.52,394.52 833.94,394.52 836.37,394.55 838.78,394.57 841.21,394.57 843.62,394.57 846.06,394.70 848.49,394.70 850.90,394.70 853.32,394.70 855.76,394.70 858.18,394.70 860.60,394.70 863.02,394.70 865.45,394.70 867.87,394.70 870.30,394.70 872.72,394.70 875.15,394.70 877.57,394.70 879.99,394.70 879.99,394.70 877.57,394.70 875.15,394.70 872.72,394.70 870.30,394.70 867.87,394.70 865.45,394.70 863.02,394.70 860.60,394.70 858.18,394.70 855.76,394.70 853.32,394.70 850.90,394.70 848.49,394.70 846.06,394.70 843.62,394.70 841.21,394.70 838.78,394.70 836.37,394.70 833.94,394.70 831.52,394.70 829.09,394.70 826.65,394.70 824.23,394.70 821.81,394.70 819.40,394.70 816.97,394.70 814.55,394.70 812.15,394.70 809.66,394.70 807.24,394.70 804.82,394.70 802.45,394.70 799.96,394.70 797.54,394.70 795.13,394.70 792.74,394.70 790.27,394.70 787.85,394.70 785.37,394.55 783.01,394.55 780.62,394.54 778.22,394.41 775.83,394.41 773.21,394.41 770.87,394.41 768.62,394.41 766.16,394.41 763.48,393.90 761.28,393.73 758.90,393.50 756.30,393.50 753.93,393.50 751.34,393.50 749.08,393.03 746.63,392.71 743.95,392.17 741.75,392.17 739.37,392.17 736.76,392.17 734.88,390.63 731.81,389.92 729.55,389.92 727.10,389.71 724.41,388.04 722.97,386.18 719.84,386.18 718.13,386.18 714.36,384.65 712.28,384.37 710.02,383.67 707.57,383.67 704.88,380.65 701.91,380.65 698.60,378.84 694.83,377.88 690.49,377.88 685.35,376.54 679.06,375.54 670.96,372.20 659.53,370.12 640.00,368.59 640.00,352.44" fill="#2874a6" fill-opacity="0.18" stroke="none"/><polyline points="640.00,255.30 640.00,255.30 659.53,283.08 670.96,293.72 679.06,310.99 685.35,316.44 690.49,324.54 694.83,329.33 698.60,333.69 701.91,337.00 704.88,340.50 707.57,342.05 710.02,345.50 712.28,347.22 714.36,349.01 718.13,352.00 719.84,354.32 722.97,356.27 724.41,356.27 727.10,359.63 729.55,361.49 731.81,361.99 734.88,363.84 736.76,363.84 739.37,364.35 741.75,367.29 743.95,367.52 746.63,369.76 749.08,371.46 751.34,373.50 753.93,373.94 756.30,374.57 758.90,377.30 761.28,377.97 763.48,378.83 766.16,381.78 768.62,383.92 770.87,384.71 773.21,385.79 775.83,387.58 778.22,387.94 780.62,387.94 783.01,387.94 785.37,388.60 787.85,389.22 790.27,389.57 792.74,390.67 795.13,390.80 797.54,392.62 799.96,392.62 802.45,393.28 804.82,393.41 807.24,393.41 809.66,393.55 812.15,393.63 814.55,393.63 816.97,393.66 819.40,393.67 821.81,393.72 824.23,393.74 826.65,393.74 829.09,393.85 831.52,393.93 833.94,394.00 836.37,394.00 838.78,394.00 841.21,394.00 843.62,394.00 846.06,394.56 848.49,394.56 850.90,394.56 853.32,394.70 855.76,394.70 858.18,394.70 860.60,394.70 863.02,394.70 865.45,394.70 867.87,394.70 870.30,394.70 872.72,394.70 875.15,394.70 877.57,394.70 879.99,394.70" fill="none" stroke="#c0392b" stroke-width="1.8"/><polyline points="640.00,352.44 640.00,352.44 659.53,357.39 670.96,360.28 679.06,362.39 685.35,362.63 690.49,364.65 694.83,367.29 698.60,369.89 701.91,370.47 704.88,371.67 707.57,372.99 710.02,374.51 712.28,376.10 714.36,377.32 718.13,377.72 719.84,378.23 722.97,379.56 724.41,380.44 727.10,385.74 729.55,386.02 731.81,387.36 734.88,388.07 736.76,388.82 739.37,389.84 741.75,390.34 743.95,390.67 746.63,390.75 749.08,390.78 751.34,391.02 753.93,391.34 756.30,391.96 758.90,392.34 761.28,392.40 763.48,392.67 766.16,393.11 768.62,393.49 770.87,393.49 773.21,393.61 775.83,393.70 778.22,393.76 780.62,393.80 783.01,393.85 785.37,393.85 787.85,393.87 790.27,394.21 792.74,394.37 795.13,394.46 797.54,394.54 799.96,394.55 802.45,394.56 804.82,394.57 807.24,394.63 809.66,394.70 812.15,394.70 814.55,394.70 816.97,394.70 819.40,394.70 821.81,394.70 824.23,394.70 826.65,394.70 829.09,394.70 831.52,394.70 833.94,394.70 836.37,394.70 838.78,394.70 841.21,394.70 843.62,394.70 846.06,394.70 848.49,394.70 850.90,394.70 853.32,394.70 855.76,394.70 858.18,394.70 860.60,394.70 863.02,394.70 865.45,394.70 867.87,394.70 870.30,394.70 872.72,394.70 875.15,394.70 877.57,394.70 879.99,394.70" fill="none" stroke="#2874a6" stroke-width="1.8"/><line x1="640.00" y1="401.67" x2="880.00" y2="401.67" stroke="#333333" stroke-width="1"/><line x1="640.00" y1="401.67" x2="640.00" y2="405.67" stroke="#333333" stroke-width="1"/><text x="640.00" y="417.67" font-family="Arial,sans-serif" font-size="10" text-anchor="middle" fill="#333333">1</text><line x1="704.88" y1="401.67" x2="704.88" y2="405.67" stroke="#333333" stroke-width="1"/><text x="704.88" y="417.67" font-family="Arial,sans-serif" font-size="10" text-anchor="middle" fill="#333333">10</text><line x1="769.77" y1="401.67" x2="769.77" y2="405.67" stroke="#333333" stroke-width="1"/><text x="769.77" y="417.67" font-family="Arial,sans-serif" font-size="10" text-anchor="middle" fill="#333333">100</text><line x1="834.65" y1="401.67" x2="834.65" y2="405.67" stroke="#333333" stroke-width="1"/><text x="834.65" y="417.67" font-family="Arial,sans-serif" font-size="10" text-anchor="middle" fill="#333333">1000</text><line x1="880.00" y1="401.67" x2="880.00" y2="405.67" stroke="#333333" stroke-width="1"/><text x="880.00" y="417.67" font-family="Arial,sans-serif" font-size="10" text-anchor="middle" fill="#333333">5000</text><text x="760.00" y="240.33" font-family="Arial,sans-serif" font-size="12" font-weight="bold" text-anchor="middle" fill="#222222">H=4, fc=320</text></g><g><rect x="70.00" y="456.67" width="240.00" height="153.33" fill="white" stroke="none"/><line x1="70.00" y1="456.67" x2="70.00" y2="610.00" stroke="#333333" stroke-width="1"/><line x1="66.00" y1="610.00" x2="70.00" y2="610.00" stroke="#333333" stroke-width="1"/><text x="64.00" y="613.00" font-family="Arial,sans-serif" font-size="9" text-anchor="end" fill="#333333">4619</text><line x1="70.00" y1="610.00" x2="310.00" y2="610.00" stroke="#dddddd" stroke-width="0.5"/><line x1="66.00" y1="571.67" x2="70.00" y2="571.67" stroke="#333333" stroke-width="1"/><text x="64.00" y="574.67" font-family="Arial,sans-serif" font-size="9" text-anchor="end" fill="#333333">9242</text><line x1="70.00" y1="571.67" x2="310.00" y2="571.67" stroke="#dddddd" stroke-width="0.5"/><line x1="66.00" y1="533.33" x2="70.00" y2="533.33" stroke="#333333" stroke-width="1"/><text x="64.00" y="536.33" font-family="Arial,sans-serif" font-size="9" text-anchor="end" fill="#333333">13864</text><line x1="70.00" y1="533.33" x2="310.00" y2="533.33" stroke="#dddddd" stroke-width="0.5"/><line x1="66.00" y1="495.00" x2="70.00" y2="495.00" stroke="#333333" stroke-width="1"/><text x="64.00" y="498.00" font-family="Arial,sans-serif" font-size="9" text-anchor="end" fill="#333333">18487</text><line x1="70.00" y1="495.00" x2="310.00" y2="495.00" stroke="#dddddd" stroke-width="0.5"/><line x1="66.00" y1="456.67" x2="70.00" y2="456.67" stroke="#333333" stroke-width="1"/><text x="64.00" y="459.67" font-family="Arial,sans-serif" font-size="9" text-anchor="end" fill="#333333">23110</text><line x1="70.00" y1="456.67" x2="310.00" y2="456.67" stroke="#dddddd" stroke-width="0.5"/><polygon points="70.00,463.64 70.00,473.24 89.53,484.45 100.96,497.83 109.06,498.37 115.35,512.26 120.49,515.93 124.83,518.04 128.60,521.26 131.91,524.85 134.88,524.85 137.57,528.68 140.02,529.32 142.28,538.48 144.36,539.32 148.13,539.84 149.84,540.32 152.97,543.89 154.41,544.22 157.10,547.24 159.55,547.24 161.81,547.80 164.88,552.15 166.76,553.13 169.37,553.85 171.75,553.85 173.95,555.61 176.63,555.61 179.08,555.69 181.34,556.20 183.93,557.05 186.30,559.18 188.90,562.36 191.28,562.36 193.48,563.14 196.16,563.23 198.62,563.23 200.87,563.28 203.21,563.80 205.83,566.03 208.22,568.81 210.62,569.24 213.01,571.30 215.37,571.36 217.85,577.80 220.27,579.03 222.74,580.63 225.13,582.50 227.54,584.23 229.96,584.53 232.45,586.93 234.82,587.18 237.24,590.04 239.66,590.04 242.15,592.48 244.55,592.48 246.97,592.48 249.40,592.74 251.81,593.40 254.23,593.40 256.65,593.40 259.09,595.10 261.52,595.10 263.94,595.90 266.37,597.23 268.78,599.36 271.21,599.71 273.62,600.29 276.06,600.55 278.49,600.68 280.90,600.88 283.32,600.88 285.76,600.95 288.18,600.95 290.60,601.03 293.02,601.14 295.45,601.37 297.87,601.39 300.30,601.39 302.72,601.77 305.15,601.77 307.57,601.77 309.99,601.88 309.99,602.69 307.57,602.69 305.15,602.69 302.72,602.69 300.30,602.69 297.87,602.56 295.45,602.56 293.02,602.46 290.60,602.37 288.18,602.37 285.76,602.37 283.32,602.37 280.90,602.37 278.49,602.37 276.06,602.37 273.62,602.37 271.21,602.37 268.78,602.37 266.37,602.37 263.94,602.07 261.52,601.88 259.09,601.88 256.65,601.30 254.23,601.01 251.81,601.01 249.40,600.81 246.97,600.81 244.55,600.53 242.15,599.99 239.66,599.77 237.24,599.31 234.82,599.05 232.45,599.05 229.96,599.05 227.54,598.35 225.13,597.16 222.74,596.23 220.27,595.65 217.85,594.28 215.37,593.27 213.01,590.35 210.62,590.11 208.22,590.11 205.83,590.11 203.21,589.89 200.87,586.58 198.62,584.37 196.16,583.21 193.48,581.95 191.28,578.44 188.90,577.90 186.30,575.41 183.93,575.22 181.34,571.73 179.08,570.99 176.63,570.76 173.95,570.76 171.75,570.15 169.37,567.24 166.76,564.38 164.88,564.38 161.81,564.38 159.55,562.97 157.10,562.97 154.41,562.43 152.97,560.08 149.84,559.63 148.13,559.63 144.36,559.63 142.28,559.63 140.02,559.63 137.57,559.63 134.88,550.04 131.91,547.92 128.60,546.04 124.83,546.04 120.49,546.03 115.35,542.14 109.06,539.77 100.96,532.01 89.53,525.64 70.00,513.76 70.00,463.64" fill="#c0392b" fill-opacity="0.18" stroke="none"/><polygon points="70.00,554.63 70.00,554.63 89.53,554.63 100.96,554.63 109.06,554.63 115.35,554.63 120.49,554.63 124.83,554.93 128.60,554.93 131.91,556.34 134.88,556.34 137.57,558.15 140.02,558.15 142.28,560.12 144.36,566.79 148.13,566.79 149.84,568.24 152.97,571.68 154.41,572.71 157.10,575.40 159.55,578.65 161.81,579.93 164.88,582.41 166.76,584.65 169.37,588.42 171.75,589.20 173.95,590.07 176.63,591.70 179.08,591.82 181.34,591.82 183.93,593.49 186.30,593.77 188.90,595.45 191.28,595.45 193.48,596.69 196.16,596.69 198.62,597.13 200.87,597.22 203.21,597.22 205.83,599.01 208.22,599.47 210.62,599.65 213.01,600.03 215.37,600.04 217.85,600.25 220.27,600.65 222.74,600.65 225.13,600.65 227.54,600.77 229.96,601.06 232.45,601.20 234.82,601.20 237.24,601.38 239.66,601.38 242.15,601.38 244.55,601.79 246.97,601.81 249.40,601.91 251.81,601.91 254.23,601.91 256.65,601.92 259.09,601.92 261.52,602.04 263.94,602.04 266.37,602.04 268.78,602.29 271.21,602.29 273.62,602.29 276.06,602.31 278.49,602.31 280.90,602.31 283.32,602.31 285.76,602.31 288.18,602.31 290.60,602.31 293.02,602.31 295.45,602.31 297.87,602.31 300.30,602.31 302.72,602.31 305.15,602.31 307.57,602.31 309.99,602.31 309.99,603.03 307.57,603.03 305.15,603.03 302.72,603.03 300.30,603.03 297.87,603.03 295.45,603.03 293.02,603.03 290.60,603.03 288.18,603.03 285.76,603.03 283.32,603.03 280.90,603.03 278.49,603.03 276.06,602.69 273.62,602.69 271.21,602.69 268.78,602.69 266.37,602.69 263.94,602.69 261.52,602.69 259.09,602.69 256.65,602.69 254.23,602.69 251.81,602.69 249.40,602.69 246.97,602.69 244.55,602.69 242.15,602.69 239.66,602.69 237.24,602.55 234.82,602.55 232.45,602.55 229.96,602.55 227.54,602.55 225.13,602.55 222.74,602.55 220.27,602.55 217.85,602.46 215.37,602.46 213.01,602.31 210.62,602.31 208.22,602.31 205.83,602.09 203.21,601.47 200.87,601.23 198.62,601.23 196.16,601.21 193.48,601.13 191.28,600.14 188.90,600.14 186.30,599.92 183.93,599.45 181.34,599.45 179.08,599.45 176.63,599.03 173.95,598.84 171.75,598.84 169.37,598.84 166.76,597.18 164.88,597.07 161.81,596.84 159.55,595.42 157.10,595.17 154.41,587.28 152.97,587.28 149.84,586.74 148.13,586.74 144.36,583.45 142.28,583.45 140.02,583.16 137.57,581.53 134.88,579.07 131.91,579.07 128.60,577.26 124.83,576.82 120.49,575.31 115.35,572.95 109.06,572.35 100.96,570.24 89.53,569.40 70.00,569.40 70.00,554.63" fill="#2874a6" fill-opacity="0.18" stroke="none"/><polyline points="70.00,463.64 70.00,492.61 89.53,508.98 100.96,518.49 109.06,520.57 115.35,522.29 120.49,529.35 124.83,535.15 128.60,535.15 131.91,540.26 134.88,541.46 137.57,542.82 140.02,543.17 142.28,545.22 144.36,547.87 148.13,548.36 149.84,548.36 152.97,551.62 154.41,552.92 157.10,555.96 159.55,556.88 161.81,556.88 164.88,557.30 166.76,558.45 169.37,559.35 171.75,560.15 173.95,562.88 176.63,563.92 179.08,566.25 181.34,567.41 183.93,567.66 186.30,568.16 188.90,568.96 191.28,569.44 193.48,570.43 196.16,571.95 198.62,574.12 200.87,575.61 203.21,577.88 205.83,578.57 208.22,579.59 210.62,580.66 213.01,581.48 215.37,582.60 217.85,585.40 220.27,586.42 222.74,589.38 225.13,591.21 227.54,593.19 229.96,594.03 232.45,594.85 234.82,595.44 237.24,596.09 239.66,596.51 242.15,596.98 244.55,597.94 246.97,598.88 249.40,599.05 251.81,599.05 254.23,599.31 256.65,599.54 259.09,599.81 261.52,599.85 263.94,600.42 266.37,600.54 268.78,600.99 271.21,601.06 273.62,601.38 276.06,601.39 278.49,601.72 280.90,601.72 283.32,601.80 285.76,601.80 288.18,601.84 290.60,601.86 293.02,601.96 295.45,602.15 297.87,602.16 300.30,602.17 302.72,602.22 305.15,602.31 307.57,602.31 309.99,602.31" fill="none" stroke="#c0392b" stroke-width="1.8"/><polyline points="70.00,554.63 70.00,554.63 89.53,554.81 100.96,556.05 109.06,558.73 115.35,559.44 120.49,563.56 124.83,564.65 128.60,566.66 131.91,570.61 134.88,571.47 137.57,572.23 140.02,573.05 142.28,574.93 144.36,575.95 148.13,576.85 149.84,577.87 152.97,578.85 154.41,578.97 157.10,583.26 159.55,587.69 161.81,589.64 164.88,591.64 166.76,593.33 169.37,593.98 171.75,594.08 173.95,595.05 176.63,595.60 179.08,595.87 181.34,596.63 183.93,597.31 186.30,597.35 188.90,597.88 191.28,598.50 193.48,598.78 196.16,599.26 198.62,599.68 200.87,599.68 203.21,600.20 205.83,600.88 208.22,600.96 210.62,601.08 213.01,601.17 215.37,601.21 217.85,601.21 220.27,601.38 222.74,601.39 225.13,601.44 227.54,601.79 229.96,601.90 232.45,601.90 234.82,601.99 237.24,602.22 239.66,602.31 242.15,602.31 244.55,602.31 246.97,602.38 249.40,602.45 251.81,602.45 254.23,602.45 256.65,602.50 259.09,602.50 261.52,602.55 263.94,602.55 266.37,602.55 268.78,602.55 271.21,602.55 273.62,602.55 276.06,602.55 278.49,602.55 280.90,602.55 283.32,602.55 285.76,602.55 288.18,602.55 290.60,602.55 293.02,602.55 295.45,602.55 297.87,602.55 300.30,602.55 302.72,602.62 305.15,602.62 307.57,602.62 309.99,602.69" fill="none" stroke="#2874a6" stroke-width="1.8"/><line x1="70.00" y1="610.00" x2="310.00" y2="610.00" stroke="#333333" stroke-width="1"/><line x1="70.00" y1="610.00" x2="70.00" y2="614.00" stroke="#333333" stroke-width="1"/><text x="70.00" y="626.00" font-family="Arial,sans-serif" font-size="10" text-anchor="middle" fill="#333333">1</text><line x1="134.88" y1="610.00" x2="134.88" y2="614.00" stroke="#333333" stroke-width="1"/><text x="134.88" y="626.00" font-family="Arial,sans-serif" font-size="10" text-anchor="middle" fill="#333333">10</text><line x1="199.77" y1="610.00" x2="199.77" y2="614.00" stroke="#333333" stroke-width="1"/><text x="199.77" y="626.00" font-family="Arial,sans-serif" font-size="10" text-anchor="middle" fill="#333333">100</text><line x1="264.65" y1="610.00" x2="264.65" y2="614.00" stroke="#333333" stroke-width="1"/><text x="264.65" y="626.00" font-family="Arial,sans-serif" font-size="10" text-anchor="middle" fill="#333333">1000</text><line x1="310.00" y1="610.00" x2="310.00" y2="614.00" stroke="#333333" stroke-width="1"/><text x="310.00" y="626.00" font-family="Arial,sans-serif" font-size="10" text-anchor="middle" fill="#333333">5000</text><text x="190.00" y="448.67" font-family="Arial,sans-serif" font-size="12" font-weight="bold" text-anchor="middle" fill="#222222">H=5, fc=240</text></g><g><rect x="355.00" y="456.67" width="240.00" height="153.33" fill="white" stroke="none"/><line x1="355.00" y1="456.67" x2="355.00" y2="610.00" stroke="#333333" stroke-width="1"/><line x1="351.00" y1="610.00" x2="355.00" y2="610.00" stroke="#333333" stroke-width="1"/><text x="349.00" y="613.00" font-family="Arial,sans-serif" font-size="9" text-anchor="end" fill="#333333">4805</text><line x1="355.00" y1="610.00" x2="595.00" y2="610.00" stroke="#dddddd" stroke-width="0.5"/><line x1="351.00" y1="571.67" x2="355.00" y2="571.67" stroke="#333333" stroke-width="1"/><text x="349.00" y="574.67" font-family="Arial,sans-serif" font-size="9" text-anchor="end" fill="#333333">9506</text><line x1="355.00" y1="571.67" x2="595.00" y2="571.67" stroke="#dddddd" stroke-width="0.5"/><line x1="351.00" y1="533.33" x2="355.00" y2="533.33" stroke="#333333" stroke-width="1"/><text x="349.00" y="536.33" font-family="Arial,sans-serif" font-size="9" text-anchor="end" fill="#333333">14208</text><line x1="355.00" y1="533.33" x2="595.00" y2="533.33" stroke="#dddddd" stroke-width="0.5"/><line x1="351.00" y1="495.00" x2="355.00" y2="495.00" stroke="#333333" stroke-width="1"/><text x="349.00" y="498.00" font-family="Arial,sans-serif" font-size="9" text-anchor="end" fill="#333333">18909</text><line x1="355.00" y1="495.00" x2="595.00" y2="495.00" stroke="#dddddd" stroke-width="0.5"/><line x1="351.00" y1="456.67" x2="355.00" y2="456.67" stroke="#333333" stroke-width="1"/><text x="349.00" y="459.67" font-family="Arial,sans-serif" font-size="9" text-anchor="end" fill="#333333">23610</text><line x1="355.00" y1="456.67" x2="595.00" y2="456.67" stroke="#dddddd" stroke-width="0.5"/><polygon points="355.00,463.64 355.00,473.18 374.53,484.39 385.96,497.82 394.06,498.18 400.35,511.59 405.49,515.60 409.83,517.48 413.60,520.52 416.91,524.03 419.88,524.03 422.57,528.18 425.02,528.62 427.28,537.76 429.36,538.30 433.13,538.98 434.84,539.37 437.97,543.10 439.41,543.67 442.10,546.55 444.55,546.55 446.81,547.11 449.88,551.48 451.76,552.51 454.37,553.38 456.75,553.43 458.95,554.85 461.63,554.85 464.08,554.96 466.34,555.44 468.93,556.35 471.30,558.49 473.90,561.93 476.28,561.93 478.48,562.51 481.16,562.67 483.62,562.67 485.87,562.74 488.21,563.20 490.83,565.53 493.22,565.53 495.62,569.12 498.01,570.70 500.37,571.67 502.85,576.70 505.27,578.53 507.74,580.69 510.13,583.30 512.54,585.64 514.96,585.77 517.45,586.82 519.82,589.86 522.24,591.05 524.66,591.63 527.15,592.62 529.55,592.74 531.97,592.74 534.40,593.09 536.81,594.07 539.23,594.74 541.65,595.73 544.09,596.81 546.52,596.82 548.94,598.71 551.37,599.28 553.78,599.37 556.21,599.37 558.62,600.11 561.06,600.16 563.49,600.99 565.90,601.08 568.32,601.18 570.76,601.18 573.18,601.23 575.60,601.48 578.02,601.65 580.45,601.77 582.87,601.77 585.30,602.11 587.72,602.12 590.15,602.25 592.57,602.40 594.99,602.40 594.99,603.03 592.57,603.03 590.15,603.03 587.72,603.03 585.30,603.03 582.87,603.03 580.45,603.03 578.02,602.91 575.60,602.89 573.18,602.81 570.76,602.80 568.32,602.80 565.90,602.80 563.49,602.80 561.06,602.80 558.62,602.80 556.21,602.80 553.78,602.66 551.37,602.66 548.94,602.64 546.52,602.61 544.09,602.40 541.65,602.32 539.23,601.61 536.81,601.46 534.40,601.38 531.97,601.38 529.55,601.26 527.15,601.16 524.66,600.48 522.24,600.48 519.82,599.11 517.45,598.83 514.96,597.98 512.54,596.37 510.13,596.02 507.74,595.51 505.27,595.24 502.85,593.75 500.37,592.26 498.01,589.43 495.62,589.43 493.22,589.43 490.83,587.09 488.21,586.77 485.87,586.26 483.62,583.24 481.16,582.96 478.48,581.28 476.28,578.14 473.90,576.70 471.30,574.89 468.93,574.89 466.34,571.34 464.08,570.71 461.63,569.71 458.95,569.71 456.75,569.67 454.37,566.87 451.76,563.78 449.88,563.78 446.81,563.78 444.55,562.63 442.10,562.63 439.41,561.76 437.97,559.55 434.84,559.11 433.13,559.11 429.36,559.11 427.28,559.11 425.02,559.11 422.57,559.11 419.88,549.39 416.91,547.17 413.60,545.50 409.83,545.50 405.49,545.50 400.35,541.60 394.06,539.12 385.96,531.22 374.53,525.15 355.00,513.09 355.00,463.64" fill="#c0392b" fill-opacity="0.18" stroke="none"/><polygon points="355.00,554.54 355.00,554.54 374.53,554.54 385.96,554.54 394.06,554.54 400.35,554.54 405.49,554.54 409.83,554.65 413.60,554.65 416.91,556.37 419.88,556.37 422.57,558.11 425.02,558.11 427.28,559.67 429.36,566.77 433.13,566.77 434.84,567.91 437.97,571.22 439.41,571.60 442.10,576.12 444.55,578.59 446.81,580.98 449.88,582.61 451.76,584.92 454.37,588.60 456.75,589.22 458.95,592.07 461.63,593.30 464.08,593.30 466.34,593.91 468.93,593.91 471.30,594.09 473.90,595.05 476.28,595.09 478.48,595.65 481.16,595.80 483.62,596.93 485.87,596.93 488.21,597.42 490.83,598.82 493.22,599.20 495.62,599.72 498.01,600.17 500.37,600.28 502.85,600.53 505.27,600.53 507.74,600.53 510.13,600.55 512.54,600.80 514.96,600.80 517.45,601.03 519.82,601.23 522.24,601.56 524.66,601.66 527.15,601.71 529.55,601.71 531.97,601.77 534.40,601.77 536.81,601.90 539.23,601.90 541.65,601.90 544.09,601.90 546.52,601.90 548.94,602.24 551.37,602.28 553.78,602.29 556.21,602.30 558.62,602.30 561.06,602.63 563.49,602.63 565.90,602.63 568.32,602.63 570.76,602.63 573.18,602.63 575.60,602.63 578.02,602.63 580.45,602.63 582.87,602.63 585.30,602.63 587.72,602.63 590.15,602.63 592.57,602.63 594.99,602.63 594.99,603.03 592.57,603.03 590.15,603.03 587.72,603.03 585.30,603.03 582.87,603.03 580.45,603.03 578.02,603.03 575.60,603.03 573.18,603.03 570.76,603.03 568.32,603.03 565.90,603.03 563.49,603.03 561.06,603.03 558.62,603.03 556.21,603.03 553.78,603.03 551.37,603.03 548.94,603.03 546.52,603.03 544.09,603.03 541.65,603.03 539.23,603.03 536.81,603.03 534.40,603.03 531.97,603.03 529.55,603.03 527.15,603.03 524.66,603.03 522.24,603.03 519.82,603.03 517.45,602.91 514.96,602.91 512.54,602.89 510.13,602.89 507.74,602.68 505.27,602.46 502.85,602.46 500.37,602.35 498.01,602.04 495.62,601.79 493.22,601.79 490.83,601.61 488.21,601.57 485.87,601.57 483.62,601.57 481.16,601.57 478.48,601.38 476.28,600.51 473.90,600.51 471.30,600.31 468.93,600.31 466.34,600.31 464.08,600.31 461.63,599.34 458.95,599.16 456.75,599.16 454.37,599.16 451.76,597.53 449.88,597.41 446.81,597.19 444.55,595.64 442.10,595.47 439.41,587.55 437.97,587.55 434.84,586.88 433.13,586.88 429.36,583.42 427.28,583.42 425.02,583.06 422.57,581.52 419.88,579.03 416.91,579.03 413.60,577.24 409.83,576.84 405.49,575.14 400.35,572.67 394.06,572.08 385.96,569.95 374.53,569.16 355.00,569.16 355.00,554.54" fill="#2874a6" fill-opacity="0.18" stroke="none"/><polyline points="355.00,463.64 355.00,492.13 374.53,508.53 385.96,517.95 394.06,520.20 400.35,521.47 405.49,528.44 409.83,534.76 413.60,534.79 416.91,539.45 419.88,540.73 422.57,542.19 425.02,542.56 427.28,544.61 429.36,547.24 433.13,547.76 434.84,547.76 437.97,550.98 439.41,552.34 442.10,555.31 444.55,556.26 446.81,556.26 449.88,556.68 451.76,558.84 454.37,559.25 456.75,560.14 458.95,562.35 461.63,563.36 464.08,565.94 466.34,566.57 468.93,567.79 471.30,568.98 473.90,569.70 476.28,569.78 478.48,570.55 481.16,572.09 483.62,573.39 485.87,574.83 488.21,577.62 490.83,578.41 493.22,579.38 495.62,580.58 498.01,581.73 500.37,582.47 502.85,585.65 505.27,587.59 507.74,589.27 510.13,591.10 512.54,593.04 514.96,593.86 517.45,595.71 519.82,595.95 522.24,596.06 524.66,597.18 527.15,597.56 529.55,597.83 531.97,598.58 534.40,598.58 536.81,599.13 539.23,599.67 541.65,599.67 544.09,600.68 546.52,600.85 548.94,601.23 551.37,601.33 553.78,601.51 556.21,601.64 558.62,602.14 561.06,602.18 563.49,602.22 565.90,602.22 568.32,602.22 570.76,602.22 573.18,602.40 575.60,602.46 578.02,602.65 580.45,602.66 582.87,602.66 585.30,602.73 587.72,602.73 590.15,602.80 592.57,602.80 594.99,602.80" fill="none" stroke="#c0392b" stroke-width="1.8"/><polyline points="355.00,554.54 355.00,554.54 374.53,554.79 385.96,555.99 394.06,558.62 400.35,559.32 405.49,563.38 409.83,564.67 413.60,566.73 416.91,570.42 419.88,571.29 422.57,571.99 425.02,572.93 427.28,574.77 429.36,575.82 433.13,575.82 434.84,576.96 437.97,578.45 439.41,578.90 442.10,583.27 444.55,587.95 446.81,590.14 449.88,592.06 451.76,593.55 454.37,594.24 456.75,594.56 458.95,595.64 461.63,596.66 464.08,596.66 466.34,597.13 468.93,597.39 471.30,597.67 473.90,597.75 476.28,598.86 478.48,599.17 481.16,599.74 483.62,599.98 485.87,600.15 488.21,600.53 490.83,600.91 493.22,601.03 495.62,601.32 498.01,601.37 500.37,601.43 502.85,601.49 505.27,601.49 507.74,601.49 510.13,601.66 512.54,601.76 514.96,601.93 517.45,601.93 519.82,602.38 522.24,602.53 524.66,602.54 527.15,602.66 529.55,602.66 531.97,602.66 534.40,602.66 536.81,602.70 539.23,602.70 541.65,602.74 544.09,602.74 546.52,602.80 548.94,602.80 551.37,602.80 553.78,602.80 556.21,602.89 558.62,602.89 561.06,602.89 563.49,602.89 565.90,602.89 568.32,602.89 570.76,602.89 573.18,602.89 575.60,602.89 578.02,602.89 580.45,602.89 582.87,602.89 585.30,602.89 587.72,602.89 590.15,602.89 592.57,602.89 594.99,602.89" fill="none" stroke="#2874a6" stroke-width="1.8"/><line x1="355.00" y1="610.00" x2="595.00" y2="610.00" stroke="#333333" stroke-width="1"/><line x1="355.00" y1="610.00" x2="355.00" y2="614.00" stroke="#333333" stroke-width="1"/><text x="355.00" y="626.00" font-family="Arial,sans-serif" font-size="10" text-anchor="middle" fill="#333333">1</text><line x1="419.88" y1="610.00" x2="419.88" y2="614.00" stroke="#333333" stroke-width="1"/><text x="419.88" y="626.00" font-family="Arial,sans-serif" font-size="10" text-anchor="middle" fill="#333333">10</text><line x1="484.77" y1="610.00" x2="484.77" y2="614.00" stroke="#333333" stroke-width="1"/><text x="484.77" y="626.00" font-family="Arial,sans-serif" font-size="10" text-anchor="middle" fill="#333333">100</text><line x1="549.65" y1="610.00" x2="549.65" y2="614.00" stroke="#333333" stroke-width="1"/><text x="549.65" y="626.00" font-family="Arial,sans-serif" font-size="10" text-anchor="middle" fill="#333333">1000</text><line x1="595.00" y1="610.00" x2="595.00" y2="614.00" stroke="#333333" stroke-width="1"/><text x="595.00" y="626.00" font-family="Arial,sans-serif" font-size="10" text-anchor="middle" fill="#333333">5000</text><text x="475.00" y="448.67" font-family="Arial,sans-serif" font-size="12" font-weight="bold" text-anchor="middle" fill="#222222">H=5, fc=280</text></g><g><rect x="640.00" y="456.67" width="240.00" height="153.33" fill="white" stroke="none"/><line x1="640.00" y1="456.67" x2="640.00" y2="610.00" stroke="#333333" stroke-width="1"/><line x1="636.00" y1="610.00" x2="640.00" y2="610.00" stroke="#333333" stroke-width="1"/><text x="634.00" y="613.00" font-family="Arial,sans-serif" font-size="9" text-anchor="end" fill="#333333">4946</text><line x1="640.00" y1="610.00" x2="880.00" y2="610.00" stroke="#dddddd" stroke-width="0.5"/><line x1="636.00" y1="571.67" x2="640.00" y2="571.67" stroke="#333333" stroke-width="1"/><text x="634.00" y="574.67" font-family="Arial,sans-serif" font-size="9" text-anchor="end" fill="#333333">9736</text><line x1="640.00" y1="571.67" x2="880.00" y2="571.67" stroke="#dddddd" stroke-width="0.5"/><line x1="636.00" y1="533.33" x2="640.00" y2="533.33" stroke="#333333" stroke-width="1"/><text x="634.00" y="536.33" font-family="Arial,sans-serif" font-size="9" text-anchor="end" fill="#333333">14527</text><line x1="640.00" y1="533.33" x2="880.00" y2="533.33" stroke="#dddddd" stroke-width="0.5"/><line x1="636.00" y1="495.00" x2="640.00" y2="495.00" stroke="#333333" stroke-width="1"/><text x="634.00" y="498.00" font-family="Arial,sans-serif" font-size="9" text-anchor="end" fill="#333333">19317</text><line x1="640.00" y1="495.00" x2="880.00" y2="495.00" stroke="#dddddd" stroke-width="0.5"/><line x1="636.00" y1="456.67" x2="640.00" y2="456.67" stroke="#333333" stroke-width="1"/><text x="634.00" y="459.67" font-family="Arial,sans-serif" font-size="9" text-anchor="end" fill="#333333">24108</text><line x1="640.00" y1="456.67" x2="880.00" y2="456.67" stroke="#dddddd" stroke-width="0.5"/><polygon points="640.00,463.64 640.00,473.10 659.53,484.28 670.96,497.56 679.06,498.09 685.35,510.83 690.49,515.15 694.83,516.82 698.60,519.68 701.91,523.10 704.88,523.10 707.57,527.34 710.02,528.00 712.28,536.83 714.36,537.11 718.13,537.99 719.84,538.30 722.97,542.16 724.41,542.91 727.10,545.72 729.55,545.72 731.81,546.26 734.88,550.64 736.76,551.72 739.37,552.62 741.75,552.62 743.95,553.92 746.63,553.92 749.08,554.05 751.34,554.46 753.93,555.47 756.30,557.61 758.90,561.29 761.28,561.29 763.48,561.66 766.16,561.91 768.62,561.91 770.87,561.98 773.21,562.40 775.83,564.81 778.22,564.81 780.62,568.99 783.01,570.13 785.37,574.73 787.85,576.52 790.27,578.41 792.74,581.94 795.13,585.59 797.54,587.24 799.96,587.34 802.45,591.03 804.82,591.38 807.24,591.38 809.66,592.28 812.15,592.72 814.55,593.36 816.97,593.38 819.40,595.43 821.81,595.53 824.23,596.20 826.65,596.90 829.09,597.95 831.52,598.28 833.94,599.59 836.37,599.79 838.78,600.24 841.21,600.24 843.62,600.46 846.06,600.63 848.49,601.26 850.90,601.28 853.32,601.35 855.76,601.51 858.18,601.51 860.60,601.51 863.02,601.52 865.45,601.78 867.87,601.78 870.30,602.23 872.72,602.23 875.15,602.24 877.57,602.24 879.99,602.24 879.99,603.03 877.57,603.03 875.15,602.91 872.72,602.91 870.30,602.91 867.87,602.91 865.45,602.91 863.02,602.91 860.60,602.90 858.18,602.81 855.76,602.80 853.32,602.67 850.90,602.67 848.49,602.66 846.06,602.66 843.62,602.66 841.21,602.65 838.78,602.62 836.37,602.62 833.94,602.62 831.52,602.41 829.09,602.41 826.65,601.83 824.23,601.70 821.81,601.50 819.40,601.42 816.97,601.42 814.55,601.20 812.15,601.20 809.66,600.73 807.24,600.73 804.82,599.46 802.45,599.12 799.96,599.12 797.54,597.88 795.13,595.67 792.74,595.39 790.27,595.21 787.85,593.67 785.37,592.22 783.01,589.70 780.62,589.61 778.22,589.57 775.83,587.94 773.21,586.52 770.87,585.98 768.62,582.86 766.16,582.50 763.48,580.96 761.28,578.11 758.90,576.91 756.30,574.51 753.93,574.51 751.34,572.04 749.08,570.72 746.63,570.72 743.95,569.83 741.75,568.96 739.37,566.27 736.76,563.17 734.88,563.17 731.81,562.98 729.55,562.19 727.10,562.19 724.41,561.20 722.97,560.64 719.84,558.38 718.13,558.38 714.36,558.38 712.28,558.38 710.02,558.38 707.57,558.38 704.88,548.58 701.91,546.25 698.60,544.80 694.83,544.80 690.49,544.80 685.35,540.90 679.06,538.33 670.96,530.32 659.53,524.55 640.00,512.45 640.00,463.64" fill="#c0392b" fill-opacity="0.18" stroke="none"/><polygon points="640.00,554.25 640.00,554.25 659.53,554.25 670.96,554.25 679.06,554.25 685.35,554.25 690.49,554.25 694.83,554.25 698.60,554.25 701.91,556.20 704.88,556.20 707.57,556.20 710.02,556.20 712.28,557.86 714.36,558.86 718.13,566.50 719.84,567.35 722.97,570.79 724.41,571.28 727.10,574.00 729.55,576.42 731.81,582.55 734.88,583.10 736.76,585.13 739.37,586.03 741.75,589.06 743.95,592.02 746.63,592.58 749.08,592.58 751.34,592.95 753.93,593.88 756.30,594.10 758.90,595.21 761.28,595.53 763.48,595.76 766.16,596.71 768.62,597.32 770.87,597.55 773.21,598.21 775.83,599.21 778.22,599.27 780.62,599.68 783.01,599.76 785.37,600.13 787.85,600.32 790.27,600.50 792.74,600.50 795.13,600.50 797.54,600.50 799.96,600.50 802.45,600.92 804.82,601.26 807.24,601.58 809.66,601.61 812.15,601.61 814.55,601.73 816.97,601.79 819.40,601.79 821.81,601.84 824.23,601.84 826.65,602.13 829.09,602.13 831.52,602.20 833.94,602.29 836.37,602.34 838.78,602.61 841.21,602.61 843.62,602.62 846.06,602.67 848.49,602.67 850.90,602.67 853.32,602.67 855.76,602.67 858.18,602.67 860.60,602.67 863.02,602.67 865.45,602.67 867.87,602.67 870.30,602.67 872.72,602.67 875.15,602.67 877.57,602.67 879.99,602.67 879.99,603.03 877.57,603.03 875.15,603.03 872.72,603.03 870.30,603.03 867.87,603.03 865.45,603.03 863.02,603.03 860.60,603.03 858.18,603.03 855.76,603.03 853.32,603.03 850.90,603.03 848.49,603.03 846.06,603.03 843.62,603.03 841.21,603.03 838.78,603.03 836.37,603.03 833.94,603.03 831.52,603.03 829.09,603.03 826.65,603.03 824.23,603.03 821.81,603.03 819.40,603.03 816.97,603.03 814.55,603.03 812.15,603.03 809.66,603.03 807.24,603.03 804.82,603.03 802.45,602.91 799.96,602.91 797.54,602.90 795.13,602.90 792.74,602.68 790.27,602.68 787.85,602.68 785.37,602.45 783.01,602.36 780.62,602.07 778.22,601.79 775.83,601.64 773.21,601.60 770.87,601.53 768.62,601.53 766.16,601.53 763.48,601.41 761.28,601.10 758.90,601.10 756.30,601.10 753.93,600.58 751.34,600.58 749.08,600.58 746.63,599.28 743.95,599.14 741.75,599.14 739.37,599.14 736.76,598.33 734.88,598.11 731.81,597.21 729.55,595.36 727.10,591.85 724.41,587.50 722.97,587.50 719.84,586.72 718.13,586.72 714.36,583.11 712.28,583.11 710.02,582.68 707.57,581.23 704.88,578.72 701.91,578.72 698.60,576.96 694.83,576.60 690.49,574.71 685.35,572.15 679.06,571.57 670.96,569.43 659.53,568.69 640.00,568.69 640.00,554.25" fill="#2874a6" fill-opacity="0.18" stroke="none"/><polyline points="640.00,463.64 640.00,491.60 659.53,508.00 670.96,517.30 679.06,519.71 685.35,520.56 690.49,527.42 694.83,534.17 698.60,534.27 701.91,538.49 704.88,540.02 707.57,541.41 710.02,541.71 712.28,544.05 714.36,546.45 718.13,547.00 719.84,547.00 722.97,550.17 724.41,551.58 727.10,554.47 729.55,555.44 731.81,555.44 734.88,555.88 736.76,558.13 739.37,559.10 741.75,560.26 743.95,562.60 746.63,562.97 749.08,565.92 751.34,566.33 753.93,567.78 756.30,568.75 758.90,570.03 761.28,570.77 763.48,571.36 766.16,571.87 768.62,574.41 770.87,575.15 773.21,577.48 775.83,578.24 778.22,579.60 780.62,580.45 783.01,581.89 785.37,582.85 787.85,585.46 790.27,588.54 792.74,589.67 795.13,591.66 797.54,593.38 799.96,594.17 802.45,595.73 804.82,596.14 807.24,597.09 809.66,597.49 812.15,597.49 814.55,597.76 816.97,599.53 819.40,599.53 821.81,600.01 824.23,600.47 826.65,600.55 829.09,600.60 831.52,600.70 833.94,601.29 836.37,601.29 838.78,601.35 841.21,601.35 843.62,601.74 846.06,601.82 848.49,601.86 850.90,602.20 853.32,602.23 855.76,602.23 858.18,602.41 860.60,602.52 863.02,602.57 865.45,602.65 867.87,602.65 870.30,602.65 872.72,602.65 875.15,602.66 877.57,602.66 879.99,602.67" fill="none" stroke="#c0392b" stroke-width="1.8"/><polyline points="640.00,554.25 640.00,554.25 659.53,554.56 670.96,555.72 679.06,558.29 685.35,558.91 690.49,562.92 694.83,564.45 698.60,566.56 701.91,569.97 704.88,570.80 707.57,571.52 710.02,572.56 712.28,574.35 714.36,575.43 718.13,576.37 719.84,576.94 722.97,578.06 724.41,578.57 727.10,582.81 729.55,587.85 731.81,590.35 734.88,591.99 736.76,593.14 739.37,594.86 741.75,595.38 743.95,596.02 746.63,596.74 749.08,596.74 751.34,597.11 753.93,597.50 756.30,598.00 758.90,598.33 761.28,599.05 763.48,599.28 766.16,600.08 768.62,600.37 770.87,600.38 773.21,600.66 775.83,601.06 778.22,601.08 780.62,601.40 783.01,601.42 785.37,601.48 787.85,601.52 790.27,601.52 792.74,601.56 795.13,601.69 797.54,601.77 799.96,601.83 802.45,601.83 804.82,602.23 807.24,602.43 809.66,602.43 812.15,602.66 814.55,602.66 816.97,602.66 819.40,602.66 821.81,602.71 824.23,602.71 826.65,602.75 829.09,602.75 831.52,602.85 833.94,602.90 836.37,602.90 838.78,602.90 841.21,602.90 843.62,602.90 846.06,602.90 848.49,602.90 850.90,602.90 853.32,602.90 855.76,602.90 858.18,602.90 860.60,602.90 863.02,602.90 865.45,602.90 867.87,602.90 870.30,602.90 872.72,602.90 875.15,602.90 877.57,602.90 879.99,602.90" fill="none" stroke="#2874a6" stroke-width="1.8"/><line x1="640.00" y1="610.00" x2="880.00" y2="610.00" stroke="#333333" stroke-width="1"/><line x1="640.00" y1="610.00" x2="640.00" y2="614.00" stroke="#333333" stroke-width="1"/><text x="640.00" y="626.00" font-family="Arial,sans-serif" font-size="10" text-anchor="middle" fill="#333333">1</text><line x1="704.88" y1="610.00" x2="704.88" y2="614.00" stroke="#333333" stroke-width="1"/><text x="704.88" y="626.00" font-family="Arial,sans-serif" font-size="10" text-anchor="middle" fill="#333333">10</text><line x1="769.77" y1="610.00" x2="769.77" y2="614.00" stroke="#333333" stroke-width="1"/><text x="769.77" y="626.00" font-family="Arial,sans-serif" font-size="10" text-anchor="middle" fill="#333333">100</text><line x1="834.65" y1="610.00" x2="834.65" y2="614.00" stroke="#333333" stroke-width="1"/><text x="834.65" y="626.00" font-family="Arial,sans-serif" font-size="10" text-anchor="middle" fill="#333333">1000</text><line x1="880.00" y1="610.00" x2="880.00" y2="614.00" stroke="#333333" stroke-width="1"/><text x="880.00" y="626.00" font-family="Arial,sans-serif" font-size="10" text-anchor="middle" fill="#333333">5000</text><text x="760.00" y="448.67" font-family="Arial,sans-serif" font-size="12" font-weight="bold" text-anchor="middle" fill="#222222">H=5, fc=320</text></g><rect x="310.00" y="667.00" width="22" height="10" fill="#c0392b" fill-opacity="0.35" stroke="#c0392b" stroke-width="1.8"/><text x="338.00" y="676.00" font-family="Arial,sans-serif" font-size="12" fill="#222222">HCA (median +/- p10-p90)</text><rect x="480.00" y="667.00" width="22" height="10" fill="#2874a6" fill-opacity="0.35" stroke="#2874a6" stroke-width="1.8"/><text x="508.00" y="676.00" font-family="Arial,sans-serif" font-size="12" fill="#222222">BA (median +/- p10-p90)</text></svg>